<?xml version="1.0" encoding="UTF-8"?>
<svg id="Capa_2" data-name="Capa 2" xmlns="http://www.w3.org/2000/svg" viewBox="0 0 472.74 88.26">
  <defs>
    <style>
      .cls-1 {
        fill: #4296b4;
      }

      .cls-2 {
        fill: #5fa3bd;
      }

      .cls-3 {
        fill: #73a950;
      }

      .cls-4 {
        fill: #346094;
      }

      .cls-5 {
        fill: #f7d93e;
      }
    </style>
  </defs>
  <g id="Layer_1" data-name="Layer 1">
    <g>
      <g>
        <path class="cls-3" d="m35.64,49.12c1.2.9,3.1,1.8,4.1,3,.7-.3,1.1,0,1.5.3l-.6.7.5.1c-.1.3-.3-.1-.4.4l.5-.3c-.2.3.6.9-.4.9l1.1,1.1c.2.3.7-.4.8,0-.1.2.9-1,.7-.8.3,1.3,1.1.7,1.5,1.7h-.2c.3-.1.5.2.6.1.6-.8-.5.2-.3-.4.6-.5.6,0,1-.5,0,.4.4.2.6.3-.1.6.5.7.3,1.4.3-.1,1-.5,1.3-.2-.2.6-.5.4-.3.8l.4-.3c.2.3.1.3-.1.5.2.2.6-.3.7.2l-.5.2c.3.1.4.2.7.6-.2.2-.3.1-.3-.1-.3.7.5.1.5.2.1-.2,0-.4.4-.7.1.2.8-.1.5.4l-.5.2c.6.1.6-.2.8.2,0,0-.1.1-.2.2.6-.2.6.5.9.8h-.1c.2,0,.6-.2.7-.1,0-.4.1-.4.4-.8-.3.8,1-.3,1.1.5-.2.2-.5.3-.4,0-.7.4-1.2.9-1.7.9.3,0,.5.1.3.3l.5-.5c.1.1.2.2.2.3.4-.3.3-.7.8-.7.4.1-.4.7-.1.5.5.1.7-.4.9.1h-.2c0,.4.7.5.2,1.2-.2.1-.4.3-.4.1l.1-.1c-.7.2.3.1-.3.6.3-.4.6,0,.7.3l.3-.4c1.6-.7-.8.7-.1,1.1.6,0,0-.2.4-.3.2.3-.1.7.4.8-.1.2-.1.6-.5,1.1.4,0,.4.8.9.4,0-.7-.8.1-.6-.8l.5-.3c.2.3.8.4.8.7,0-.1.1-.2.2-.3.5.2,1-.1,1.3.4-.3.4-.5.2-.7,0-.1.5.2.3.5.7-.3.4-.2-.3-.6,0l.5.3-.1.1c.6-.5.3.3.7.4.6.6,1.4-.1,2.2-.2-.1.2-.2.4-.3.5.1-.4-.1-.2-.3-.1.3.1-.1,1-.4,1.1.5.1.2-.4.5-.4l.4.5c.2-.3.1-.5.6-.6.3.1.3.2.5.5-.2.1-.3.5-.5.3,0,.2.2.4.5.2,0-.5.7.2.9-.5v.5c-.1-.1-.2.1-.3,0-.3.5.3.1.5.1,0,.2.2.5.1.6.2,0,.3.3.1.5.2,0,.3-.3.5-.4l.4.5c-.2.3-.8,1-1,1,.4-.1.7-.7,1-.4-.6.3,0,.7-.8,1-.2.5.2.9.6.9.5-.2,0-.4.3-.8.8.5,1.8-.6,2.1.1v-.2c.5.1.4.1.9-.1-.5.4-.9,1.6-.3,1.9.3-.2.2-.7.6-1l.4.2c0,.1-.1.1-.2.1.4.1-.1,1.1.5.6l-.4,1,.2-.4c.3-.2.6,0,.8,0,.6,0,.5.4.4.8.1-.2.4-.8.7-.7-.7.8.3.8-.1,1.2.1.1.1.5.4.2l-.5.5c.7-.6,1-.3,1.4-.1-.9.8.4.2-.3,1.2.6-.6.7.2,1.3-.2.2.2-.3.7-.4,1l.3-.1c-.2.4.2.8.3,1.3l.7-.3-.1.3c.2-.1.4,0,.5-.3l.1.1c.6-.6.3,0,.8,0,0,.1-.2.3-.3.3.1.1-.2.4-.3.6.1-.2,1.4-.6,1.4-1.2.2-.3.6-.3.6,0l-.4.6.7-.4c.3.1,0,.5.1.7-.2-.1-1.3.7-.9,1.1-.3-.1-.7.1-.9.1.1.1.1.2-.3.3.5.1.4-.2.8,0-.5.5-.5.7-.4,1.1l.1-.5c.1,0,.1-.1.2-.1,0-.1,0-.2.2-.4.1.1.9-.2.7.1.4-1,1.1-.1,1.3-.7.2-.1.4.1.2.3-.6.1-.3.7-.7,1,.2,0,.1-.6.4-.6.2.1,0,.5,0,.8h-.1v.4c.3-.2.1-.6.5-.5,0,.2.3.2.1.4-.4.2-.7.7-1,.6.2.1.7.5,1-.1l.2.2c.1-.3.1-1,.5-.7l-.1.1.6-.1-.1.4c.1-.1.3-.2.3-.1-.1.2-.1.3-.3.5.3.2.5,0,.7-.1.2.1.2.3-.2.5.2.3.6.6.5,1,.5.1,0-.2.5-.3-.5,1.1.7,1.2,1.2,1.6.6-.9.2,0,.9-.5-.3.1-.1,1-.7.8l.3.2c-.2.6-.7-.1-1,.7.3.2,1.2-.4,1.3.2-.6.4.4.1-.2.6-.2.1-.3,0-.4-.1v.2c.5.7.8-.4,1.4-.5.4.3-.1.7-.3,1,0,.2.2.3.5.2-.5.1-.1-.7.3-1-.4.7.5.6.8.4,0-1.1-.3-.4-.2-1.5-.2.1-.7.7-.8.2.4-.1.3-.3.3-.4-.2.4-.3-.1-.5,0,.1-.3.8-.5.6-.9l-.7.7c0-.2.5-.5.1-.5.5-.2.5-.6,1-.4.2-1-.9-.3-1.5-.3.1,0,.2-.1.2-.1-.2.1-.4,0-.5-.1-.1-.4.5-.2.6-.4l-.4-.3v-.1c-.2,0-.3,0-.2-.2.3-.1.6-.3.8-.5l-.8.2c.3-.2.1-.7.5-.6l-.6-.4.4-.5c-.2,0-.3.1-.2.3-.1-.3-1.6.1-.6-.8-.8,0-.8-.3-1.5-.5.8-.1.1-1,.7-.8,0-.4-.6,0-.9-.1,0-.4.5-.8.9-.8h-.4l.1-.1-.5.1c0-.5.4-.5.3-.8l-.4.4.1-.4c-.1.2-.3.2-.5.1l.1-.1-.3-.1c.4-.1-.1-.3.3-.5-.1-.2-.2-.2-.5-.4l-.2.3c-.6-.1.4-.4.1-.8l-.3.4c.1-1-1.1-.4-1-1.1.3.1.6-.3.5-.2-.4-.1-.8-.7-1.5-.5.4-.6.5-.8.4-1.3-.2-.2-.3-.2-.7.1,0-.4-.7-.5-.4-.9-.3.2-.1-.2-.5-.1l.1-.2-.3.4c.3-1.1-1-.2-.8-1.2h.2-.3c.1-.2.3-.2.5-.4l-.7-.8-.1.4c-.2-.1-.6.1-.6-.3.8-.2-.2-.3.1-.7h.3q-.2-.2-.5.2c-.4-.2.4-.8-.2-.7l.2.2c-.1.2-.5.4-.6.3,0-.1.1-.3.2-.3-.3-.1-.5-.6-.7-.5,0-.2.2-.4.4-.4-.8-.2-.2-.3-.9-.4l.2-.2-.4.1.1-.6-.1.3c-.2-.1-.4-.1-.5-.4l.3-.2c-.6-.3-.1-1-.9-1,0-.1.2-.1.2-.1-.8.1.2-.8-.7-.6.1-.1.2-.2.3-.3h-.4l.4-.4-.7.4.3-.5-.2.1c.5-.9-.3-.6,0-1.4l-.4.5c-1.6.4-1-2-2.2-2.3l.4-.4-.8.1c.1-.5.4-.2.5-.5-.5-.1-.7.4-1.2.1,0-.5.3-.2.6-.3-.6-.2-1.3-.5-1.4-1-.1,0-.1.1-.1.1-.4-.1-.6-.6-.9-.8.2-.2.3-.1.4-.1-.1-.1-.1-.4-.4-.3l.4-.2c-.2-.3-.8-.4-.5-.8-.1.2-.4.4-.6.3.5-.7-.7-.2-.7-.8.2-.1.4.1.4,0,0-.3-.4-.2-.7-.1l.3-.2-1-.3c.5-.7-.7-.5-.3-.9-.2-.3,0,.5-.4.2.1-.3-.4-.2,0-.5h.1l-.2-.2.5-.2c-.3-.1-.8.1-1,.4,0-.4-.4-.5-.2-.9h.2c-.6-.3.2-1.8-.8-1.6,0-.1.1-.2.2-.1l-.3-.3.3-.2-.9-.1.2-.2c-.3-.4-.9-.8-1.4-1.2h.2c-.8-.2-.3-.6-.8-.7h.1l-.3-.3.2-.1c-.6.2-.1-1.2-.3-.7-.3.1-.7.1-1,.3-.4-.3.2-.3.1-.7-.2-.3-.6,0-.8-.5l.2-.2c-.2-.1-.4-.1-.7-.3h.2c-.7.1.1-1-1-.4,0-.3-.4-.5,0-.8-.7-.2-1.1-.4-1.7-.7.5-.7-.1-.1-.1-.7l-.3.4c-.7-.6-.6-2.1-1.4-2.6l.3-.4-.5.2c-.6-.9-1.4-1.9-2-2.5-.4,0-1,.1-1.2-.3h.1c-.7-.3-1.4-.7-1.8-1.5.2-.1.2-.3.4-.3-.5.2-.4-.3-.5-.4l-.1.4c-.5.2-.4-.4-.3-.7l-.6.1s0-.1.1-.2l-.2.1.3-.6c-.2,0-.6-.2-1.1.1.1-.2,0-.5.2-.4l-.8-1.1v.3c-.3.3-.8.3-.8,0,.5-.1.5-.5.6-.8-.3.1-.2.4-.4.5-.4.1-.8-.2-.8-.4h.2c-.3-.1.1-.8-.1-.9-.5.1-.4-.3-.9.3-.4-.2.3-.5.2-.6-.4.1-.6-.4-.4-.8-1,.7-.5-1-1.2-.4l.2-.6c-.2.2-.6.6-.9.5,0-.4.4-.7.5-.9l-.8.6c-.3-1.7-2.1-2.6-2.6-4.3-.6-.3-1.6-.6-2.1-1.3h.2l-.4-.8.1.7c-.2,0-.4,0-.5-.1-.3-.9-.8-2.1-1.9-2.5-1.3.3.4-1-.7-.9.1,0,.2-.1.4-.2-.8-.2-1.2-.4-2.2-.4.8-.7-.4-.3.1-.7l-.4.3c.1-.3-.1-.6.1-.8l-.6.2.3-.3c-.3-.3-1.2-.7-.7-1.5-1.2-.2-2.3-1.6-3.1-2.6-.4.1-.7-.1-.9-.3l.2-.6c-.3-.1-1.1.2-1-.3l.1-.1c-.3-.1-.3-.6-.9-.4-.2-.3-.2-.7.2-1-.7.6-.4-.6-.4-.6,0,0-2.7-3.5-6.2-6.9S6.54-.08,3.24.12c-.4.2-.9.1-1.2.6-.3-.1.1-.8-.2-.5.1.5-.9.7-1.1,1.4l-.3-.1c-.3.2.5,0,0,.4l.7-.5c.1.2,0,.4-.1.7.4-.1,1.3-.8,1.3-.1l-.1-.1c.3.3-.2.5-.3.7l-.1-.1-.1.5c0-.4-.7-.2-.6-.1.2.5.1-.2.4-.1.2.1-.2.4-.4.6l.3.3c-.3.3-.2-.2-.3.2l.6.1c-.7.8.7,0,.2.9-.4-.1-.2.3-.5.4l.6.6c0,.2-.4.1-.3.1-.1.3.4,0,.4.1-.1.2.5.5,0,.9.1.7.8-.4.9.2-.2.3-.4-.2-.5.2l.5.3c-.2.1-.5.4-.6.2.7,1.5-.3,3.5,1.1,4.2-.2.5-.3.1-.7.2,1.2.3.3,1.7.9,2.3l.3-.3c0,1.7,1.5,2.2,2.1,3.6l.1-.3c.4-.1.6.1.9.1-.1.2-.7.5-.3.6,0-.2,0-.4.2-.5.1,1.6,2,3.1,3,4.8,2,1.6,3.5,4.2,5.5,5.8-.3-.3.5-.8.6-.5-.6,1.7,1.2.8,1,2.2,1.4.7,1.4,2.6,3.2,2.7l-.3.3c0,.3.3.1.5.2l-.1.1c.2.5,1,.6,1.1,1l.4-.4c.2.2-.2.4.3.4l-.2.2.6-.1c-.7.6.6.7.4,1.1.4.2,1.2.4,1.5.9-.3.4.3.9.4,1.4.7.6,1.8,1.4,2.5,2.3l.4-.4.2.2c-.1.1-.1.2-.2.2-.3.6.6.3.5.8.3-.5-.1-.2-.2-.3,0-.4.6-.6.6-.2l-.1.1.4-.1c-.3.4-.3.7-.6,1,.8.6,1.8.5,2.4,1.4-.4.3.6.4-.2.9.7.2.4-.6,1.1-.9.1.1.4.1.2.3-.2.1-.3.5-.4.5l.3.2c0,.1-.2.1-.2.1,1,.2.7,1.5,1.6,1.6.3-.2-.1-.3.1-.5,1,.1.1.9.9,1l-.4.2c.4-.1.7-.3.7.2-.3.4-.5.1-.8.1.2.2.7.6.9.1.3.1.1.5.1.7.1-.1,0-.5.3-.5.1.5.6,1,.9,1.3-.1.1-.2.3-.3.3.3-.5-.5.3,0,.6Z"/>
        <g>
          <path class="cls-2" d="m15.94,78.12c0,.1.1.1.2.2-.1-.1-.1-.2-.2-.2Z"/>
          <path class="cls-2" d="m11.44,81.72h0c-.1,0-.2.1-.3.2l.3-.2Z"/>
          <path class="cls-2" d="m30.14,66.72v-.2q-.1.1,0,.2Z"/>
          <path class="cls-2" d="m5.64,80.32l.4.1c-.2-.1-.3-.1-.4-.1Z"/>
          <path class="cls-2" d="m5.14,84.82v-.2c-.1,0-.1.1,0,.2Z"/>
          <path class="cls-2" d="m91.54,5.32c.1-.1.1-.4,0-.7v.7Z"/>
          <path class="cls-2" d="m52.94,46.02l.1.1-.1-.1Z"/>
          <path class="cls-2" d="m89.64,3.02h.1q-.1-.1-.1,0Z"/>
          <path class="cls-2" d="m7.14,77.42c-.1-.4.4-.3.2-.6-.1.3-.5.3-.2.6Z"/>
          <path class="cls-2" d="m89.64,3.02h-.2c.1,0,.1.1.1.1q0-.1.1-.1Z"/>
          <path class="cls-2" d="m67.94,32.12c0,.1-.1.2-.1.2.1,0,.1-.1.1-.2Z"/>
          <path class="cls-2" d="m29.44,67.22h-.1s.1.1.1,0Z"/>
          <path class="cls-2" d="m28.44,55.92c.1,0,.1-.3,0-.6-.1.1-.1.3,0,.6Z"/>
          <path class="cls-1" d="m40.54,38.72c-1,1.2-1.9,3.1-3.1,4.1.3.7-.1,1.1-.3,1.5l-.7-.6-.1.5c-.3-.1.1-.3-.4-.4l.3.5c-.3-.2-.3,2.4-.3,1.5l-.6-.6c-.3.2.1,1-.4,1.1-.2-.1-.8.4-1,.2-1.3.3.2,1.1-.9,1.6v-.2c0,.3-.2.5-.1.6.8.6-.2-.5.4-.3.5.6,0,.6.4,1-.4,0-.2.4-.3.6-.6-.1-.7.5-1.4.3,0,.3.4,1,.2,1.3-.6-.2-.4-.5-.8-.4l.3.4c-.3.2-.3,0-.5-.1-.3.2.2.6-.3.7l-.1-.5c-.1.3-.2.4-.6.7-.2-.2,0-.3.1-.3-.6-.3-.1.5-.2.5.2.1.4,0,.7.4-.2.1.1.8-.4.5l-.1-.5c-.1.6.2.6-.3.8,0,0-.1-.1-.2-.2.2.6-.5.6-.9.9v-.2c0,.2.2.6.1.7.4,0,.4.1.8.4-.8-.3.2,1-.5,1.1-.2-.2-.3-.5,0-.4-.4-.7-.8-1.2-.8-1.7,0,.3-.1.6-.3.3l.5.6c-.1.1-.2.2-.3.2.3.4.7.3.7.8-.1.4-.7-.4-.5-.1-.1.6.4.7-.1.9v-.2c-.4,0-.5.7-1.2.1-.1-.2-.3-.4-.1-.4l.1.1c-.2-.7-.1.3-.6-.3.3.3-.1.6-.3.7l.4.3c.6,1.6-.7-.8-1.1-.1-.1.6.2,0,.3.4-.3.2-.7-.1-.8.4-.2-.1-.6-.1-1.1-.5,0,.4-.8.4-.5.9.7,0-.1-.8.8-.6l.3.5c-.3.2-.4.8-.8.8.1,0,.2.1.3.2-.2.5.1,1.1-.4,1.3-.4-.3-.1-.5,0-.7-.5-.1-.3.2-.8.5-.3-.3.3-.2,0-.6l-.3.5-.1-.1c.5.6-.4.3-.4.7-.6.6.1,1.4.2,2.2-.2-.1-.4-.2-.5-.3.4.1.2-.1.1-.3-.1.3-1-.1-1.1-.4-.2.5.4.2.4.5l-.5.4c.3.2.5.1.5.6-.1.3-.3.3-.5.5-.1-.2-.5-.3-.3-.5-.2,0-.4.2-.2.5.5,0-.2.7.4.9h-.5c.1-.1-.1-.2,0-.3-.5-.3-.1.3-.2.5-.2,0-.5.2-.6.1,0,.2-.3.3-.5.1,0,.2.3.3.4.5l-.5.4c-.3-.2-1-.8-1-1,.1.4.6.8.4,1-.3-.6-.7,0-1-.8-.5-.2-.9.2-1,.6.2.5.4,0,.8.3-.5.8.5,1.8-.1,2.1h.2c-.1.5-.1.4.1.9-.4-.5-1.6-.9-1.9-.3.2.3.7.2,1,.6l-.2.4c-.1,0-.1-.1-.1-.2-.1.4-1.1-.1-.7.5l-1-.4.4.2c.2.3-.1.6,0,.8-.1.6-.4.5-.9.4.2.1.8.4.6.7-.7-.7-.8.3-1.2-.1-.1.1-.5.1-.2.4l-.5-.5c.6.7.2,1,.1,1.4-.8-.9-.2.4-1.2-.3.5.6-.3.7.2,1.3-.2.2-.7-.3-1-.5l.1.3c-.4-.2-.8.2-1.3.3l.3.8-.3-.2c.1.2,0,.4.3.5l-.2.1c.6.6,0,.3,0,.8-.1,0-.3-.2-.3-.3-.1.1-.4-.2-.6-.4.2.1.6,1.5,1.2,1.4.3.2.2.6,0,.6l-.6-.4.4.7c-.1.3-.5,0-.7.1.1-.2-.7-1.3-1-.9.1-.3,0-.7,0-.9-.1.1-.2.1-.3-.3-.2.5.2.4,0,.8-.5-.5-.7-.5-1.1-.4l.5.1c0,.1.1.1.1.2.1,0,.2,0,.4.2-.1.1.2.9-.1.7,1,.4,0,1.1.7,1.3.1.2-.1.4-.3.2-.1-.6-.7-.3-1-.7,0,.2.6.1.6.4-.1.2-.5,0-.8,0v-.2h-.4c.2.3.6.2.5.5-.2,0-.3.3-.4.1-.2-.4-.7-.8-.6-1-.1.2-.6.7.1,1l-.2.2c.3.1,1,.1.7.5l-.1-.1.1.6-.4-.1c.1.1.2.3.1.4-.2-.1-.3-.1-.5-.3-.3.3,0,.5.1.7-.1.2-.3.2-.5-.2-.3.2-.6.6-1,.5-.1.5.2,0,.3.5-1.1-.6-1.3.7-1.6,1.2.8.6,0,.2.5.9-.1-.3-1-.1-.8-.7l-.2.3c-.6-.2.1-.7-.7-1-.3.3.3,1.3-.2,1.3-.4-.6-.1.4-.6-.2-.1-.2,0-.3.1-.4h-.2c-.8.5.4.8.5,1.4-.3.4-.7-.1-1-.3-.2,0-.3.2-.2.5-.1-.5.7-.1,1,.3-.7-.4-.6.5-.5.8,1.1.1.4-.3,1.6-.2-.1-.2-.6-.7-.1-.8.1.4.3.3.4.3-.4-.2.1-.3.1-.5.3.2.5.9.9.7l-.6-.7c.2,0,.5.6.5.1.2.5.6.5.4,1,1,.2.3-1,.4-1.5,0,.1.1.2.1.2-.1-.2,0-.4.1-.5.4-.1.2.5.4.6l.3-.2h.1c0-.2,0-.3.2-.2.1.3.3.6.4.8l-.1-.8c.2.3.7.1.6.5l.4-.6.5.4c0-.2,0-.3-.3-.2.3-.1,0-1.6.8-.6,0-.8.3-.8.6-1.5.1.8,1,.1.8.7.4,0,0-.6.1-.9.4,0,.8.6.7.9v-.4l.1.1-.1-.5c.5,0,.5.4.8.3l-.4-.5.4.1c-.2-.1-.2-.3-.1-.5l.1.1.1-.3c.1.4.3-.1.5.3.2-.1.2-.2.4-.5l-.3-.2c.1-.6.4.4.8.1l-.3-.3c1,.1.4-1.1,1.1-1-.1.3.3.6.2.5.2-.4.7-.8.6-1.5.6.4.8.5,1.3.4.2-.2.2-.3,0-.7.4,0,.5-.7.9-.4-.2-.3.2-.1.1-.5l.2.1-.3-.3c1.1.3.2-1,1.2-.8v.2-.3c.2.1.2.3.4.5l.8-.7-.4-.1c.1-.2-.1-.6.3-.6.2.8.3-.2.7.1v.3q.2-.2-.2-.6c.2-.4.8.4.7-.2l-.2.2c-.2-.1-.4-.5-.2-.7.1,0,.3.1.3.2.1-.3.6-.5.6-.7.2,0,.4.3.4.4.2-.8.3-.2.5-.9l.2.2-.1-.4.6.2-.3-.2c.1-.2.1-.4.4-.5l.2.3c.3-.6,1-.1,1-.9.1,0,.1.2.1.3,0-.8.8.2.6-.7.1.1.2.2.3.3v-.4l.4.4-.4-.7.5.3-.1-.2c.9.5.6-.3,1.4,0l-.5-.4c-.3-1.6,2-1,2.4-2.2l.4.4-.1-.8c.5.1.2.4.5.6.1-.6-.4-.7-.1-1.2.5,0,.2.3.2.6.2-.6.6-1.3,1-1.4,0-.1-.1-.1-.1-.1.1-.4.6-.6.8-.9.2.2.1.3.1.4.1-.1.4-.1.3-.4l.2.4c.3-.2.4-.9.8-.5-.2-.1-.4-.4-.2-.6.7.5.3-.7.9-.7.1.2-.1.4,0,.4.3,0,.2-.4.1-.7l.2.3.4-1c.7.5.6-.7.9-.3.3-.2-.5,0-.2-.4.3.2.2-.4.5,0v.1l.2-.2.2.5c.1-.3-.1-.8-.4-1.1.4,0,.5-.4.9-.1v.2c.4-.6,1.8.2,1.6-.8.1,0,.2.1.1.2l.3-.3.2.3.1-.9.2.2c.4-.3.8-.9,1.2-1.4v.2c.2-.8.6-.3.8-.8v.1l.3-.3.1.2c-.2-.6,1.2-.1.7-.3,0-.3,0-.7-.2-1,.3-.4.3.2.7.1.3-.2,0-.6.5-.8l.2.2c.1-.2.1-.4.3-.7v.2c0-.7,1,.1.5-1,.3,0,.5-.4.8,0,.2-.7.4-1.1.7-1.7.7.5.1-.1.7,0l-.3-.3c.6-.7,2.1-.6,2.7-1.4l.3.3-.2-.5c.9-.6,2-1.4,2.6-2,0-.4-.1-1.1.4-1.2v.1c.3-.7.8-1.4,1.5-1.8.1.2.3.2.3.4-.2-.5.3-.4.5-.5l-.4-.1c-.1-.5.4-.4.7-.3l-.1-.6q.1,0,.2.1l-.1-.2.6.3c0-.2.2-.6-.1-1.1.2.1.5,0,.4.3l1.1-.8h-.3c-.3-.3-.3-.8,0-.8.1.5.4.5.8.6,0-.3-.4-.2-.5-.4-.1-.4.2-.8.4-.8v.2c.1-.3.8.1,1-.1-.1-.5.3-.4-.3-.9.2-.4.5.3.6.2-.1-.4.4-.6.8-.4-.7-1,1.1-.5.4-1.2l.6.2c-.2-.2-.5-.7-.4-.9.4,0,.7.4.9.5l-.6-.8c1.8-.3,2.6-2.1,4.4-2.6.4-.6.7-1.6,1.4-2.1v.2l.8-.4-.7.1c0-.2,0-.4.1-.6.9-.3,2.1-.8,2.6-2-.3-1.3,1,.4,1-.7,0,.1.1.2.2.4.3-.8.4-1.2.5-2.2.7.9.3-.4.7.1l-.3-.4c.3.1.7-.1.8.1l-.2-.6.3.3c.3-.3.7-1.2,1.6-.7.3-1.3,1.6-2.3,2.7-3.1-.1-.4.1-.7.3-.9l.6.2c.1-.3-.1-1.1.3-1l.1.1c.1-.3.6-.3.4-.9.3-.2.7-.3,1,.2-.6-.7.6-.4.6-.4,0,0,14.4-11,14-17.6-.2-.4-.1-.9-.6-1.2.1-.3.8.1.5-.2-.5.1-.7-.9-1.4-1l.1-.3c-.2-.3,0,.5-.4.1l.5.7c-.2.1-.5,0-.7-.1.1.4.8,1.3.1,1.3l.1-.1c-.3.3-.6-.2-.7-.3l.1-.1-.5-.1c.4,0,.2-.8.1-.6-.5.2.2.1,0,.4-.1.2-.4-.2-.6-.4l-.3.3c-.3-.3.2-.2-.2-.3l-.1.6c-.8-.6-.1.7-.9.2.1-.4-.3-.2-.4-.5l-.6.7c-.2,0,0-.4-.1-.3-.3-.1,0,.4-.1.4-.2-.1-.5.5-.9,0-.7.1.4.8-.3.9-.3-.2.2-.4-.2-.5l-.3.5c-.1-.2-.4-.5-.2-.6-1.5.7-3.6-.2-4.2,1.2-.5-.2-.1-.3-.2-.7-.3,1.2-1.8.3-2.4.9l.3.3c-1.7,0-2.3,1.5-3.6,2.1l.3.1c.1.4-.1.6-.1.9-.2-.1-.5-.7-.6-.3.2,0,.4,0,.5.2-1.6.1-3.2,2-4.9,3.1-1.7,2.1-4.3,3.5-6,5.5.3-.3.8.5.5.6-1.7-.6-.8,1.2-2.2,1-.7,1.4-2.7,1.4-2.8,3.3l-.3-.3c-.3,0-.1.3-.2.5l-.1-.1c-.5.2-.6,1-1,1.1l.4.4c-.2.2-.4-.2-.4.3l-.2-.2.1.6c-.6-.7-.7.6-1.1.4-.2.4-.4,1.2-1,1.5-.4-.3-.9.3-1.4.4-.6.7-1.4,1.8-2.4,2.5l.4.4-.2.2c-.1-.1-.2-.1-.2-.2-.6-.3-.4.6-.8.5.5.3.2-.1.3-.2.4,0,.6.6.2.6l-.1-.1.1.4c-.3-.3-.6-.3-1-.6-.6.8-.6,1.8-1.5,2.4-.3-.4-.4.6-.9-.2-.2.7.6.4.8,1.1-.1.1-.1.4-.3.2-.1-.2-.5-.3-.4-.4l-.2.3c-.1,0-.1-.2-.1-.3-.2,1-1.5.6-1.7,1.6.2.3.3-.1.5.1-.1,1-.9.1-1.1.9l-.2-.4c.1.4.3.7-.3.7-.4-.3-.1-.5-.1-.8-.2.2-.6.7-.1.9-.1.3-.5.1-.7.1.1.1.5,0,.5.3-.5.1-1,.6-1.4.9-.1-.1-.3-.2-.3-.3-.1.3-.9-.5-1.2,0Z"/>
          <path class="cls-2" d="m22.74,60.32l.2-.1c-.1-.1-.2-.2-.2-.3v.4Z"/>
          <path class="cls-2" d="m30.04,53.52v-.2q-.1.1,0,.2Z"/>
          <path class="cls-2" d="m31.04,51.12c0,.2.2.2.3.2,0-.1-.1-.2-.3-.2Z"/>
          <path class="cls-2" d="m19.64,65.32q0-.1-.1-.2c0,.1.1.2.1.2Z"/>
          <path class="cls-2" d="m9.54,76.22s.1-.1.1-.2c-.1,0-.1.1-.1.2Z"/>
          <path class="cls-2" d="m22.24,62.52v-.2c-.1,0,0,.1,0,.2Z"/>
          <path class="cls-2" d="m9.64,75.82l.2-.1-.1-.1-.1.2Z"/>
          <path class="cls-2" d="m8.14,76.42c.1,0,.2-.1.2-.2-.1,0-.2,0-.2.2Z"/>
          <path class="cls-2" d="m16.14,69.92h0c-.1-.3-.1-.2,0,0Z"/>
          <path class="cls-2" d="m7.34,76.92v-.1h-.1s0,.1.1.1Z"/>
          <path class="cls-2" d="m13.24,71.62c.1.2.2.3.2.4.1-.1,0-.1-.2-.4Z"/>
        </g>
        <g>
          <path class="cls-5" d="m41.14,20.42c-.1.1-.1.3-.1.3l.1-.3Z"/>
          <path class="cls-5" d="m43.14,18.82l-.1.1q.1,0,.1-.1Z"/>
          <path class="cls-5" d="m43.04,19.02h0c.1-.1,0-.1,0,0Z"/>
          <path class="cls-5" d="m39.44,20.82c-.3.2-.2-.2-.3.1,0-.1,0,.2.3-.1Z"/>
          <path class="cls-5" d="m36.54,8.42c.1,0-.1-.2-.3-.4.1.1.1.2.3.4Z"/>
          <polygon class="cls-5" points="37.14 5.62 37.24 5.72 37.24 5.72 37.14 5.62"/>
          <path class="cls-5" d="m55.24,13.22h0l.1-.3h.2c.1,0,.1-.1.2-.1.1-.1.2-.1.2-.2.1-.1,0-.2-.1-.3-.1-.2-.3-.4.2-.7-.3-.4-.1-.8-.1-1.3,0-.4,0-.8-.7-1.1l.4-.1c.1-.2-.1-.1-.2-.2h.1c.1-.3-.5-.5-.4-.8l-.5.2c-.1-.1.3-.2,0-.3l.2-.1h-.5c.8-.3-.1-.5.1-.8-.3-.1-.8-.3-.8-.7.3-.3.1-.7.1-1-.4-.4-1-.9-1.5-1.5l-.4.4-.2-.1c.1-.1.1-.2.2-.2.3-.6-.4-.1-.3-.5-.2.4,0,.1.1.2-.1.3-.5.6-.5.3l.1-.1-.3.1c.3-.3.3-.6.5-.9-.6-.3-1.3.1-1.8-.5.3-.4-.5-.1,0-.8-.5.1-.3.6-.7,1.1-.1-.1-.3.1-.2-.2.1-.2.2-.5.3-.5l-.3-.1c0-.1.1-.1.2-.2-.7.2-.7-.9-1.3-.6-.1.3.2.1,0,.4-.6.4-.2-.6-.8-.4l.2-.4c-.2.2-.4.6-.5.2.1-.5.3-.3.5-.5h-.4c-.2.1-.3.2-.2.4-.3.1-.3-.3-.4-.5,0,.1.2.4,0,.6-.2-.2-.4-.3-.6-.3-.1,0-.2-.1-.3-.1h-.1v-.4c-.2.6-.1-.5-.3-.3h-.5c-.1,0-.3.1-.4.1-.3.1-.6.2-.9.3-.6.2-1.1.4-1.6.5,0,.7-.3.8-.5,1l-.3-.8-.1.4c-.2-.2.1-.2-.2-.5l.1.5c-.1-.3-.7.1-.5-.7,0,0-.2.1-.5.2-.2.1-.5.2-.5.2-.2.1.2.7-.1.6-.2-.2,0-.2-.2-.5-1-.1.1,1.9-.6,1.9v-.1c.1.2-.1.4-.1.4.6.6-.2-.4.3-.2.4.6.1.5.4.9-.3-.1-.1.2-.1.4-.4-.2-.4.2-.9-.1.1.2.5.8.4,1-.5-.3-.4-.4-.7-.4l.3.3c-.2.1-.2,0-.4-.2-.1.1.3.5,0,.5l-.2-.4c0,.2-.1.2-.3.4-.2-.2-.1-.2,0-.2-.6-.3.1.3,0,.3.2.1.3,0,.6.3-.1,0,.3.5-.1.3l-.3-.3c.1.4.4.4.1.5,0,0-.1-.1-.2-.1.4.4-.2.3-.3.5l-.1-.1c.1.2.4.4.3.4.3,0,.4.1.7.3-.7-.2.6.6.1.6-.2-.1-.4-.3-.2-.3-.6-.4-1.1-.7-1.3-1.1.1.2.1.3-.1.2l.6.4c0,.1-.1.1-.1.1.4.2.7.2.8.5.1.2-.6-.2-.4-.1.1.3.6.4.3.5l-.1-.1c-.3,0,0,.4-.8.1-.2-.1-.4-.2-.3-.2l.1.1c-.5-.4.1.2-.6-.1.4.2.2.3.1.4l.5.2c1.2.8-.9-.4-.8,0,.2.3.2,0,.4.2-.1.1-.6,0-.4.3-.2,0-.5,0-1-.1.2.2-.4.4.1.6.5-.1-.5-.4.3-.5l.5.2c-.1.2.1.5-.1.5.1,0,.2,0,.4.1.1.3.6.5.4.7-.5-.1-.4-.2-.4-.3-.4.1-.1.1-.3.4-.4-.1.1-.2-.4-.3l.1.4h-.1c.7.1-.1.2.1.5-.1.5.9.5,1.5.7h-.6c.3,0,.1,0-.1-.1.1.1-.7.1-1,.1.2.1.4,0,.6.1l-.1.2c.4,0,.5-.1.7,0v.1h0v.1h0v.2c-.2,0-.6.1-.5-.1-.1.1-.1.2.2.2.3-.2.3.3.9.1l-.3.2s-.2,0-.2-.1c-.6.1.2.1.2.2-.1.1-.1.2-.3.3.2,0,.1.2-.2.2.1.1.4,0,.5,0v.3c-.3.1-1.1.2-1.3.2.3.1.9-.1.9,0-.6,0-.4.3-1.1.3-.4.2-.3.5-.1.6.5,0,.2-.2.7-.3.3.4,1.6,0,1.4.4l.1-.1c.3.1.2.1.7,0-.6.1-1.5.7-1.3.9.3-.1.5-.4,1-.5l.1.1s-.1,0-.2.1c.3.1-.6.6.1.4l-.7.5.3-.2c.3-.1.4,0,.6,0,.4,0,.2.2-.1.5.2-.1.7-.5.8-.4-.9.5-.2.4-.6.7,0,0-.2.3.2.1l-.5.3c.7-.4.8-.2,1-.2-1,.6.2.1-.6.8.6-.4.4.1,1-.3.1.1-.5.5-.6.7l.3-.1c-.2.3-.1.5-.2.8l.6-.4-.2.3c.1-.1.3-.1.4-.3v.1c.5-.5.2-.1.5-.2-.1.1-.2.2-.3.3,0,.1-.2.3-.4.5.1-.2,1.1-.8,1.2-1.2.2-.2.4-.3.4-.2l-.4.5.5-.5c.1,0-.1.3-.1.5-.1,0-1,.9-.8,1-.2,0-.4.2-.6.3q0,.1-.2.3c.3,0,.3-.3.5-.2-.4.5-.5.7-.4,1l.2-.4.1-.1c0-.1,0-.2.2-.4,0,0,.6-.5.4-.1.4-.9.7-.4.9-.9.1-.1.2-.1.1.2-.4.3-.3.6-.5,1,.1-.1.1-.4.3-.6.1,0,0,.4-.1.6l-.1.1v.3c.2-.2.1-.5.3-.6,0,.1.2.1,0,.3-.3.3-.5.8-.7.9.1,0,.5.1.6-.4l.1.1c0-.3.1-.8.3-.7l-.1.1.3-.3-.1.3c.1-.1.1-.3.2-.2-.1.2,0,.3-.2.5.2,0,.3-.2.4-.4.1,0,.1.1-.1.4.1.1.3.1.3.5.3-.2,0-.1.2-.5-.2,1.1.5.6.8.5.1-.9.1-.1.3-.9-.1.3.2.8-.2,1l.2-.1c.1.5-.4.3-.3,1,.3,0,.5-1,.7-.6-.1.6.2-.2.1.5,0,.2-.1.2-.2.2v.1c.1.1.2,0,.2,0v-.3c0-.3,0-.6.1-.8.2-.1.1.5.1.8,0,.1.1,0,.1-.1-.1.4-.1-.4-.1-.8,0,.8.2.1.3-.2-.2-.8-.1,0-.3-.9,0,.2-.1.9-.2.6.1-.3,0-.4,0-.5,0,.4-.1.1-.2.3,0-.3.2-.9,0-1.1l-.1.9c-.1-.1.1-.7-.1-.5.1-.5.1-.7.3-.9-.1-.8-.3.4-.6.7,0-.1.1-.2.1-.2q-.1.2-.2.2c0-.2.2-.4.2-.6h-.2v-.1c-.1.1-.1.2-.1,0,0-.1.1-.2.1-.3.4.1.8.2,1.3.2.3,0,.7,0,1-.1,0,.1.1.2.1.5l.3-.1c.1.1,0,.3,0,.2.1.2,0-.2.1-.2.1.2.2-.1.4.5.3.3-.2-.8.1-.5.2.3-.1.1.1.5l.1-.2c.1.2.2.6.1.5.3.1.8.6,1.3.9.4.3.9.5,1,.1.3.3.1.3.2.6.1-.8,1.2.4,1.5,0l-.2-.3c1.3.5,1.4-.6,2.2-.9l-.3-.1c-.2-.3-.1-.5-.2-.6.2.1.6.5.6.3-.1,0-.3,0-.4-.2,1.1.1,1.7-1.3,2.5-2.1.1-.7.5-1.4.7-2.2.1-.5.3-.9.3-1.4,0-.2.1-.4,0-.6.7-.3-.2-.4,0-.5Zm-12.3,5.5v-.2h0v.2Z"/>
          <path class="cls-5" d="m34.64,11.42l.1-.1c-.1,0-.2,0-.3-.1l.2.2Z"/>
          <path class="cls-5" d="m37.14,5.62c-.1-.1-.2-.1-.3-.2.1.2.2.2.3.2Z"/>
          <path class="cls-5" d="m35.74,12.42s-.1,0-.2-.1c0,.1.1.1.2.1Z"/>
          <path class="cls-5" d="m38.84,20.42l-.1-.1q0,.1.1.1Z"/>
          <path class="cls-5" d="m39.04,20.82h0l-.1.1c.1,0,.1-.1.1-.1Z"/>
          <path class="cls-5" d="m37.04,17.82c.2-.1.3-.1.4-.2-.1,0-.2,0-.4.2Z"/>
        </g>
      </g>
      <g>
        <path class="cls-4" d="m146.14,32.62l-.1,2.3s-3.6-.5-5.4-.5c-5.5,0-7.1,2.4-7.1,9,0,7.2,1.1,9.8,7.1,9.8,1.7,0,5.4-.4,5.4-.4l.1,2.3s-4.1.5-6,.5c-7.4,0-9.4-3.3-9.4-12.3,0-8.4,2.7-11.5,9.5-11.5,1.9.3,5.9.8,5.9.8Z"/>
        <path class="cls-4" d="m172.74,22.42h2.7v33h-2.7V22.42Z"/>
        <path class="cls-4" d="m260.04,35.32s-4.9-.7-7.9-.7c-2.8,0-5.4.8-5.4,3.9,0,2.4,1.1,3.1,6.1,3.9,5.9,1,8,2,8,6.4,0,5.4-3.3,7.1-8.8,7.1-2.8,0-7.8-.8-7.8-.8l.2-2.4s5.1.8,7.5.8c3.9,0,6.2-.9,6.2-4.5,0-2.7-1.4-3.3-6.5-4.1-5.3-.8-7.7-1.8-7.7-6.2,0-5,4.1-6.5,8.1-6.5,3.4,0,8.1.8,8.1.8l-.1,2.3Z"/>
        <path class="cls-4" d="m299.34,35.32s-4.9-.7-7.9-.7c-2.8,0-5.4.8-5.4,3.9,0,2.4,1.1,3.1,6.1,3.9,5.9,1,8,2,8,6.4,0,5.4-3.3,7.1-8.8,7.1-2.8,0-7.8-.8-7.8-.8l.2-2.4s5.1.8,7.5.8c3.9,0,6.2-.9,6.2-4.5,0-2.7-1.4-3.3-6.5-4.1-5.3-.8-7.7-1.8-7.7-6.2,0-5,4.1-6.5,8.1-6.5,3.4,0,8.1.8,8.1.8l-.1,2.3Z"/>
        <path class="cls-4" d="m323.84,32.52h2.7v3.3s4-2.9,8.6-3.7v2.7c-4.4.9-8.6,3.4-8.6,3.4v17.2h-2.7v-22.9Z"/>
        <path class="cls-4" d="m375.04,43.62c0,8.6-1.9,12.2-9.6,12.2s-9.6-3.6-9.6-12.2c0-8.1,2.5-11.6,9.6-11.6,7.1.1,9.6,3.5,9.6,11.6Zm-2.8,0c0-6.9-1.6-9.1-6.8-9.1s-6.8,2.3-6.8,9.1.8,9.8,6.8,9.8,6.8-2.8,6.8-9.8Z"/>
        <path class="cls-4" d="m417.24,43.62c0,8.6-1.9,12.2-9.6,12.2s-9.6-3.6-9.6-12.2c0-8.1,2.5-11.6,9.6-11.6,7.1.1,9.6,3.5,9.6,11.6Zm-2.8,0c0-6.9-1.6-9.1-6.8-9.1s-6.8,2.3-6.8,9.1.8,9.8,6.8,9.8,6.8-2.8,6.8-9.8Z"/>
        <path class="cls-4" d="m441.24,55.42v-22.9h2.7v1.7s3.5-2.1,7-2.1c3.2,0,4.8.7,6,2.4,0,0,4-2.4,8.2-2.4,6.2,0,7.6,2.8,7.6,11.3v12h-2.7v-11.9c0-6.7-.7-9-5.3-9-3.7,0-7,1.9-7,1.9.5,1.3.7,4,.7,7v12h-2.7v-11.8c0-6.9-.7-9.1-5.2-9.1-3.6,0-6.7,1.9-6.7,1.9v19h-2.6Z"/>
        <path class="cls-4" d="m217.14,35.52v15.9c.1,1.4,1.5,1.9,3.1,2.1l-.1,2.3c-2.3,0-4.1-.5-5.4-1.9,0,0-4.5,2-9,2-4.2,0-7.8-3.9-7.8-10,0-8.7,3.9-14,9.3-14h7c.8.1,2.9.9,2.9,3.6Zm-4.1-.9h-5.4c-4.4,0-6.8,4.3-6.8,11.1,0,5.8,2.5,7.8,5.2,7.8,3.9,0,8.2-1.7,8.2-1.7v-15.3c.1-1.1-.2-1.9-1.2-1.9Z"/>
      </g>
    </g>
  </g>
</svg>