<?xml version="1.0" encoding="UTF-8"?>
<svg id="Capa_2" data-name="Capa 2" xmlns="http://www.w3.org/2000/svg" xmlns:xlink="http://www.w3.org/1999/xlink" viewBox="0 0 1150 58.1">
  <defs>
    <style>
      .cls-1 {
        fill: #b0117d;
      }

      .cls-1, .cls-2, .cls-3, .cls-4, .cls-5, .cls-6 {
        isolation: isolate;
      }

      .cls-1, .cls-3, .cls-7, .cls-4, .cls-5, .cls-6 {
        stroke-width: 0px;
      }

      .cls-1, .cls-3, .cls-4, .cls-5, .cls-6 {
        fill-rule: evenodd;
        mix-blend-mode: color-dodge;
        opacity: .8;
      }

      .cls-3 {
        fill: #e30613;
      }

      .cls-7 {
        fill: none;
      }

      .cls-8 {
        clip-path: url(#clippath-1);
      }

      .cls-4 {
        fill: #009fe3;
      }

      .cls-9 {
        clip-path: url(#clippath);
      }

      .cls-5 {
        fill: #a2c617;
      }

      .cls-6 {
        fill: #fdc300;
      }
    </style>
    <clipPath id="clippath">
      <rect class="cls-7" width="1150" height="58.1"/>
    </clipPath>
    <clipPath id="clippath-1">
      <rect class="cls-7" x="-19.77" y="-332.13" width="1180.36" height="703.69"/>
    </clipPath>
  </defs>
  <g id="Capa_1-2" data-name="Capa 1">
    <g class="cls-9">
      <g class="cls-2">
        <g id="Capa_2-2" data-name="Capa 2">
          <g id="Capa_1-2" data-name="Capa 1-2">
            <g class="cls-8">
              <g>
                <path class="cls-1" d="M902.98-2953.73C-302.66-1871.34-873.22-211.59-348.41,1432.18c55.4-17.66,583.57-169.82,511.11-769.54C13.04-329.23,332.49-1246.05,927.65-2002.32c64.11-81.5,125.69-214.58,128.27-365.66,1.34-81.57-32.11-206.66-32.11-206.66l-120.82-379.09h0Z"/>
                <path class="cls-3" d="M2391.23-1166.93C1368.4-899.85,539.2-82.78,348.49,1073.9c37.35,7,388.7,83.83,527.06-300.22,211.69-644.7,672.17-1094.67,1243.91-1360.15,61.54-28.58,137.25-89.04,184.09-179.19,25.37-48.64,43.58-134.59,43.58-134.59l44.1-266.69h0Z"/>
                <path class="cls-6" d="M191.87,1263.59C-177.4,54.02,226.8-1297.14,1278.2-2240.93c30.49,33.31,327.87,339.3,25.71,728.72C783.81-879.3,520.58-139.93,609.4,611.48c9.58,80.94-4.33,196.9-66.22,302.9-33.39,57.19-109.01,131.45-109.01,131.45l-242.29,217.76h0Z"/>
                <path class="cls-5" d="M554.59,2028.84C1571.5,877.25,1835.12-665.95,1197.72-1985.67c-49.65,25.28-524.87,252.53-402.51,755.67,229.93,826.82,130.51,1684.53-351.09,2444.16-51.9,81.82-96.65,207.67-85.07,338.23,6.24,70.45,48.72,172.1,48.72,172.1l146.82,304.35h0Z"/>
                <path class="cls-4" d="M924.41-2355.08c28.71-162.29,178.67-271.73,337.67-243.61,159,28.12,267.98,183.57,239.27,345.87,0,0-367.5,2086.28-536.12,3039.63-25.44,143.83-103.16,282.78-250.72,377.62-142.53,91.55-262.1,100.3-425.41,71.42,0-4.32,635.31-3590.93,635.31-3590.93h0Z"/>
              </g>
            </g>
          </g>
        </g>
      </g>
    </g>
  </g>
</svg>