<?xml version="1.0" encoding="UTF-8"?>
<svg width="50px" height="50px" viewBox="0 0 50 50" version="1.1" xmlns="http://www.w3.org/2000/svg" xmlns:xlink="http://www.w3.org/1999/xlink">
    <title>Icona telegram</title>
    <defs>
        <linearGradient x1="14.645%" y1="14.645%" x2="85.355%" y2="85.355%" id="linearGradient-1">
            <stop stop-color="#33BEF0" offset="0%"></stop>
            <stop stop-color="#0A85D9" offset="100%"></stop>
        </linearGradient>
    </defs>
    <g id="Grafica-02" stroke="none" stroke-width="1" fill="none" fill-rule="evenodd">
        <g id="EM/Inicial-02" transform="translate(-1180.000000, -565.000000)" fill-rule="nonzero">
            <g id="Columna-dreta" transform="translate(1160.000000, 200.000000)">
                <g id="Banner-03" transform="translate(0.000000, 340.000000)">
                    <g id="Icona-telegram" transform="translate(20.000000, 25.000000)">
                        <path d="M50,25 C50,38.80625 38.80625,50 25,50 C11.19375,50 0,38.80625 0,25 C0,11.19375 11.19375,0 25,0 C38.80625,0 50,11.19375 50,25 Z" id="Path" fill="url(#linearGradient-1)"></path>
                        <path d="M7.64875,24.3325 C17.8425,19.71375 29.815,14.7025 31.65875,13.9775 C35.72375,12.37875 37.49625,14.0125 37.21875,16.61875 C36.8775,19.8125 35.26,29.10625 34.265,35.765 C33.6825,39.66125 31.5725,40.855 29.19125,39.34375 C27.385,38.1975 21.175,34.13125 19.54125,32.74125 C18.4275,31.79375 17.65125,30.73125 18.44125,29.64875 C18.6725,29.3325 19.26375,28.695 19.5925,28.3775 C21.24125,26.78 21.01875,26.43625 19.025,27.8625 C18.7875,28.0325 17.41,29.03125 16.84375,29.40875 C15.45625,30.33375 14.18,30.38375 12.01625,29.64875 C10.24625,29.0475 8.54625,28.58375 7.47375,28.12 C5.9925,27.47875 5.425,25.34 7.64875,24.3325 Z" id="Path" fill="#000000" opacity="0.05"></path>
                        <path d="M8.545,24.48875 C18.01,20.2575 29.65,15.40875 31.3525,14.7225 C35.4325,13.075 36.93375,14.0525 36.495,17.23625 C36.0875,20.18375 34.64125,29.30375 33.6275,35.4175 C33.03,39.01625 31.285,39.80875 29.0125,38.33875 C27.58875,37.42125 21.85875,33.64625 20.46875,32.5475 C19.39375,31.69875 18.28,30.71875 19.58125,29.3 C20.01625,28.82625 22.41875,26.5075 24.215,24.7825 C25.25625,23.78125 24.885,23.2875 23.62875,24.1475 C21.325,25.72625 17.55625,28.225 16.88375,28.67875 C15.6025,29.54125 14.39875,29.74875 12.30375,29.09 C10.6525,28.57 9.0575,28.06625 8.22625,27.7425 C6.36875,27.0225 6.34375,25.4725 8.545,24.48875 Z" id="Path" fill="#000000" opacity="0.07"></path>
                        <path d="M9.44125,24.64625 C18.17875,20.8025 29.485,16.11625 31.04625,15.4675 C35.14,13.77 36.39625,14.095 35.77,17.855 C35.32,20.5575 34.0225,29.50375 32.9875,35.0725 C32.37375,38.375 30.99625,38.76625 28.83125,37.3375 C27.79,36.65 22.53375,33.17375 21.3925,32.3575 C20.35125,31.61375 18.915,30.71875 20.71625,28.95625 C21.3575,28.32875 25.55875,24.31625 28.8325,21.19375 C29.26125,20.78375 28.7225,20.11 28.2275,20.43875 C23.815,23.365 17.6975,27.42625 16.91875,27.955 C15.7425,28.75375 14.6125,29.12 12.585,28.5375 C11.0525,28.0975 9.55625,27.5725 8.97375,27.3725 C6.73,26.6025 7.2625,25.605 9.44125,24.64625 Z" id="Path" fill="#FFFFFF"></path>
                    </g>
                </g>
            </g>
        </g>
    </g>
</svg>