<?xml version="1.0" encoding="utf-8"?>
<!-- Generator: Adobe Illustrator 19.0.0, SVG Export Plug-In . SVG Version: 6.00 Build 0)  -->
<svg version="1.1" id="Layer_1" xmlns="http://www.w3.org/2000/svg" xmlns:xlink="http://www.w3.org/1999/xlink" x="0px" y="0px"
	 viewBox="0 0 120 78" style="enable-background:new 0 0 120 78;" xml:space="preserve">
<style type="text/css">
	.st0{fill:#FADD54;}
	.st1{fill:#F7D93E;}
	.st2{fill:#FFFFFF;}
	.st3{fill:#81B160;}
	.st4{fill:#73A950;}
	.st5{fill:#4296B4;}
	.st6{fill:#58A0BB;}
	.st7{fill:#346094;}
</style>
<g id="XMLID_3916_">
	<g id="XMLID_9801_">
		<g id="XMLID_9819_">
			<g id="XMLID_10962_">
				<g id="XMLID_10963_">
					<g id="XMLID_10964_">
						<path id="XMLID_10965_" class="st0" d="M-833.8-613.4c0-0.1,0-0.6,0.1-0.8L-833.8-613.4"/>
					</g>
				</g>
			</g>
			<g id="XMLID_10947_">
				<g id="XMLID_10948_">
					<g id="XMLID_10949_">
						<path id="XMLID_10950_" class="st1" d="M-839.2-575.8C-839.1-575.9-839.6-576.2-839.2-575.8 M-793-581.5c0,0.1,0,0.1,0,0.2
							C-793-581.4-793-581.4-793-581.5z M-858.8-597.4c0.1-0.1,0-0.2-0.1-0.3C-858.9-597.5-858.9-597.5-858.8-597.4 M-836.4-614.1
							C-836.5-614.1-836.5-614-836.4-614.1 M-849-605.5C-849-605.5-849-605.5-849-605.5 M-793.6-583.6c0.2-0.2-2.4,1.9-2.7,1.8
							c-0.1-0.4-0.2-0.7-0.3-1.1c0.5,1.4-0.6,0.9-0.8,1c-0.7-0.2,0.3,0.5-0.1,0.7c-0.4-0.4-0.7-0.9-0.9-1.4c-1.4,0.6-2.6,0.6-3.6,2
							c-0.4,0.1-0.8-1.6-0.8-1.7c0,0.7-1-0.1-0.4,1c-0.8-0.1-1.6-0.1-2.3,0.2c0.2-0.4,0.2-0.7,0-1.1c-0.3,0.7-0.8,1.1-1.5,1
							c0,0.1,0.6,2-0.1,1.8c-0.1-0.3-1-2.3-0.5-2.4c0.3-0.1,1.2-2.3,1.8-1c0.4-1-0.4-0.1-0.4-1c-0.5,0.1-1.8,2.1-1.8,2.1
							c-0.7-0.5-0.3-0.9-0.2-1.3c-0.4,0-0.7,0.1-1,0.3c-0.1-0.5,0.4-1.2,0.4-1.9c-0.7-0.1-0.1,1.1-0.8,0.8c0-0.2,0-0.3,0.1-0.5
							c0,0.1-0.1,2.1-0.1,2.1c-0.2-0.1-0.5-0.2-0.7-0.2c-0.1,0.5,0.8,1-0.3,1.5c-0.5,0-0.3-2.7,0-3.1c-0.6-0.5-0.7,2.2-0.9,2.3
							c-0.4,0.2-0.3-2-1-1.7c0.1,0.4-0.6,3.9-1,3.5c0.4-1.6-0.3-2.6-0.9-4.1c-0.1,0.4-0.2,0.7-0.3,1c0.1-0.4,0-0.7-0.3-0.8
							c0.3,0.5,0.2,1-0.3,1.4c-1.2,0-0.4-1.4-0.3-1.7c-0.3,0.7-0.1-0.3-0.4-0.1c-0.1,0.6-0.3,1.2-0.4,1.8c-0.6,0.5-0.1-2.2-0.8-1.8
							c-0.1,0.2-0.1,0.4-0.2,0.7c0-0.2,0-0.4,0-0.7c-0.1,0.3-0.3,0.5-0.6,0.5c0-0.1,0-0.3,0-0.4c-0.2,0.2-0.6,1.3-0.8,0.4
							c0.2,0.9,1.1,0.2,0.2,1.3c0-0.9-0.8,0.3-1.3-1c0,0.2-0.1,0.5-0.1,0.7c-0.1-1.7-0.5,0.4-0.9-0.1c0.2-0.4,0.2-0.8,0-1.2
							c0.3,1.1-0.6,1.3-0.5,2.1c-0.6-0.4,0.2-1.6,0.1-2.1c-0.2,0.5-0.8,0.5-1.1,1.7c-0.2-0.3-0.3-0.5-0.2-0.9c0,0-0.7,2.6-1.3,1.4
							c-0.1-0.6,0.7-0.3,0.5-0.8c-0.9-0.1-1.2,3.4-1.6,3.8c-0.9-0.4,0.8-3.1,0.5-4c-0.1,0.1-0.2,0.3-0.4,0.4
							c0.1-0.4,0.2-0.8,0.1-1.3c-0.1,0.9-0.8,0.1-0.9,0.3c0-0.1-0.1,2-0.9,1.2c0.1-0.4,0.2-0.9,0.1-1.3c-0.2-0.2-0.2,0.8-0.5,0.4
							c-0.5-1.4-3.6-0.2-4.5,0.9c-0.2-0.6-0.6-1.1-1.2-1.4c0.2,0.3,0.1,0.6-0.3,0.8c-0.3-1.2-0.8-1.1-1.7-0.2c0,0,0-1-0.3-0.7
							c-0.1,0.2-0.2,0.5-0.3,0.7c-0.1-0.2-0.1-0.4-0.2-0.6c-0.2,0.1-1.2,1.6-0.8-0.3c-0.9,0.9-0.5-0.4-2.1,0.1
							c0.2,0.2,0.1,1.6,0,1.5c0-0.2-0.1-0.2-0.3-0.1c0.5-3.2-3.3-1-4.3-2.8c-0.1,0.8-1.3,1-1.4,1.1c0.3-0.5,0.5-1,0.6-1.5
							c-1,0.7-2.4-1.8-2.6-1.2c-0.2,0.2-0.3,0.3-0.5,0.4c-0.2-0.5-0.1-0.7,0.6-0.9c0-0.4-1.4,0.6-1.2,0.2c0.6-1.2,0.2-0.2,0.4-0.2
							c0.2-0.1,0.3-0.3,0.3-0.5c0.1,0.2-1.8,0.1-0.6-0.7c-1.2,0.3-0.2,0-1.1,0.8c-0.6-0.2-0.3-0.3-0.1-0.4c-0.2-0.3-0.5-0.2-0.7,0.1
							c0.2-0.3,0.3-0.5,0.5-0.8c-0.4,0.1-0.7,0.1-0.9-0.3c0.6-0.2,1-0.6,1.3-1.1c-0.3,0-0.5,0-0.8,0c0.4,0.4-1.3-1.7-1.5-1.1
							c0.5,0,0.9-0.2,1-0.7c-0.6,0.2-0.1,0.5-0.9,0.2c1.4-1.1-0.2-1.7,0.5-2.8c-1,0.3-0.5-1.1-0.3-1.2c-0.6,0.1-1.5,0.2-1.8-0.7
							c-0.2-0.7,1.7,0.2,1.6-0.4c-0.1-0.4-0.9-0.8,0-1c-0.5,0-1-0.1-1.4-0.4c0.4-0.3,0.8-0.5,1.3-0.7c-0.3-0.4-0.3-0.8,0.3-0.3
							c0.1-0.5,0-0.8-0.4-1.2c2.6-0.1,0-3,0-3c0.8,0.3,1.4,0,1.7,0.1c-0.3-0.1-0.8-1.2-0.7-1.6c0.2-0.5,0.9,1.1,1.1,0.2
							c0.1-0.3,0-0.5-0.2-0.5c0.2,0.1,0.5-0.5,0.2,0.1c0.6-0.1,0.3-0.3,1,0.1c0-0.4-0.1-0.8-0.4-1.1c0.9-0.2,1.2-1.4,1.4-2.1
							c-0.2,0.3,0.7,0,1.1-0.2c-0.4-0.4,1.2-2.4,1.6-1c0.4-0.6,0.7-1.3,0.8-2c0,1,0.3,1,0.8-0.1c0.3-0.6-0.3-1.2,0.9-1.6
							c-0.1-0.1,1.9,2.5,1.3,0.3c0.2,0.1,0.4,0.2,0.5,0.5c0.1-0.3,0.5-2.5,0.3-2.5c-0.3-0.1-0.6,0.8-1,0.7c-0.3,0,0.7-1.6-0.3-0.7
							c0.2-0.3,0.3-0.6,0.3-0.9c-0.1-0.2-0.8,0.8-0.9,0.9c-0.2,0.1,0.3-1.3-1.2,0.1c0.5-0.7-0.3-0.7-0.7-0.3c0.1-0.2,0.1-0.5,0-0.7
							c-0.6,0.4-0.9,0.9-1.1,1.5c0-0.2,0.2-1.4-0.4-0.8c0.4-0.5,0.4-1.2,0.8-1.8c-0.9,0.3-2.7,1.7-3.2,2.3c0.4-0.9-2.6,0.2-2.7,2.3
							c-0.2,0-1.6,0.4-2.4,0.8c1,0.9-1.5,3.7-1.7,3.7c-0.1,1.6-1.1,1.6-2.4,2.4c-0.7,1.3-0.8,2.7-1.4,4c0.3-0.2,0.5-0.1,0.6,0.1
							c-1,0,0.2,2.1-0.8,0.8c-1.7,2.9-0.3,8.2,0.3,10.3c1.3,3.9,5.9,11.2,9.9,11.4c0.1,0.3,0,0.5-0.2,0.7c1.4-0.2,2.2,2.1,3.4,1.4
							c0.2-0.1,3.7,0.6,4.3,1.2c-0.1-1.3,1.8-1.1,1.3-0.2c0.5,0,3.3-0.1,3.5,0c0.4,1.9,2.4-0.8,2.8-0.4c-0.1,0.4-0.2,0.8-0.3,1.1
							c2.1-0.7,4.2,0.9,6.2-0.3c0,0.2,0.1,0.5,0.1,0.7c2-0.6,4.2,0.2,6.1-0.9c1.3,1,2.6,0.7,3.4-0.8c0.6-0.1,1.9,2.5,3,0.8
							c0,0.2,0,0.4,0,0.6c0.6-0.4,4-0.7,3.2-2.1c0.3-0.1,0.2,1,0.5,0.3c-0.1,0.3-0.2,0.6-0.3,0.8c1.8,0.2,4.3-0.5,5.8-0.6
							c1-0.1,3.7-0.2,3.9-1.6c1.2,1.4,2.9,0.1,3.9-1c-0.1,0,4-0.3,3.1-1.7c0.2,0.2,0.4,0.4,0.5,0.6
							C-792.6-580.9-793.3-583.2-793.6-583.6 M-844.3-609.8C-844.3-609.8-844.3-609.7-844.3-609.8
							C-844.2-609.6-844.2-609.6-844.3-609.8z M-792.8-583.4c0-0.1,0-0.1-0.1-0.3C-792.9-583.6-792.9-583.5-792.8-583.4z
							 M-811.6-583.4c0.1,0,0.1,0,0.2-0.1C-811.4-583.5-811.5-583.5-811.6-583.4z M-802.7-583.5"/>
					</g>
				</g>
			</g>
			<g id="XMLID_10139_">
				<g id="XMLID_10140_">
					<path id="XMLID_10946_" class="st2" d="M-825.6-604.6c-0.2,0.4,0.1,1.5-0.1,0.7C-825.8-604.6-825.7-605.2-825.6-604.6z"/>
				</g>
			</g>
			<g id="XMLID_10087_">
				<g id="XMLID_10088_">
					<g id="XMLID_10089_">
						<path id="XMLID_10090_" class="st3" d="M-831.9-639C-832.1-638.8-832.1-638.8-831.9-639"/>
					</g>
				</g>
			</g>
			<g id="XMLID_9825_">
				<g id="XMLID_9826_">
					<g id="XMLID_9827_">
						<path id="XMLID_9828_" class="st4" d="M-800.6-642.8c0.2,0,0.4,0,0.7,0.1C-800.2-643.1-801.2-642.9-800.6-642.8 M-824-644.4
							C-823.9-644.4-823.9-644.4-824-644.4 M-797.5-589.7c-0.3,0-1-0.7-2.1-0.4c-0.4,0.9-1.3,1.5-0.8-0.4c-0.1,0.1-0.2,0.2-0.4,0.2
							c0.2-0.3,0.3-0.7,0.5-1c-0.6,1.4-1.1,0.3-1.3,0.2c-0.4-0.7-0.2,0.6-0.5,0.5c0-0.6,0.1-1.2,0.3-1.7c-1.4-0.6-2.6-1.3-4.1-0.9
							c-0.4-0.2,0.5-1.8,0.5-1.8c-0.5,0.5-0.7-0.8-1,0.5c-0.5-0.7-1.1-1.1-1.9-1.4c0.4-0.1,0.7-0.4,0.8-0.9
							c-0.7,0.4-1.3,0.3-1.9-0.2c-0.1,0.1-0.9,1.9-1.3,1.3c0.5-0.9,0.5-2.5,1.5-1.9c-0.1-0.1,2.2-1.4,1.9,0.2c1-0.5-0.2-0.4,0.4-1.1
							c-0.5-0.2-2.8,0.3-2.8,0.4c-0.2-0.9,0.4-0.9,0.7-1.2c-0.3-0.3-0.6-0.4-1-0.4c0.7-1,1.1,0.4,1.7-1.2c-0.4-0.5-0.8,0.8-1.2,0.1
							c0.1-0.1,0.3-0.2,0.4-0.3c-0.5,0.2-1.2,1.6-1.5,1.5c-0.1-0.2-0.2-0.5-0.5-0.6c-0.5,0.3-0.1,1.3-1.3,0.9
							c-0.1-0.5,0.1-0.9,0.5-1.3c0.3,0,0.4,0.2,0.2,0.4c0.5-0.1,1.6-1.8,1.3-1.8c-1,0.1-1.1,1.4-2.1,1.4c-0.4,0,1-1.8,0.4-2
							c-0.2,0.4-3.1,2.6-3.3,2c1.4-1,1.6-2.1,2.2-3.7c-0.3,0.2-0.6,0.4-1,0.6c0.4-0.2,0.5-0.5,0.3-0.9c-0.2,0.6-0.6,0.9-1.2,0.9
							c-0.9-0.8,0.6-1.3,1-1.5c-0.7,0.3,0.1-0.3-0.3-0.4c-0.5,0.4-1.1,0.7-1.6,1.1c-0.2-0.2-0.2-0.4-0.2-0.6c0,0,1.7-1.1,0.9-1.3
							c-0.2,0.1-0.4,0.3-0.6,0.4c0.1-0.2,0.3-0.4,0.4-0.5c-0.3,0.1-0.5,0.2-0.8,0c0.1-0.1,0.2-0.2,0.3-0.4c-0.3,0-1.3,0.6-0.9-0.3
							c-0.5,0.8,0.7,0.9-0.8,1.1c0.7-0.7-0.8-0.3-0.3-1.7c-0.2,0.2-0.4,0.3-0.6,0.5c1.1-1.3-0.7,0-0.6-0.7c0.5-0.2,0.7-0.5,0.8-1
							c-0.6,1-1.4,0.6-1.8,1.2c-0.2-0.7,1.2-1.1,1.5-1.6c-0.5,0.2-1-0.1-2,0.5c0-0.3,0.2-0.6,0.4-0.8c0,0-2.3,1.4-1.9,0.2
							c0.3-0.5,0.7,0.2,0.9-0.2c-0.6-0.8-3.3,1.7-3.9,1.8c-0.4-0.9,2.8-1.8,3.2-2.7c-0.2,0-0.4,0-0.5,0c0.4-0.2,0.7-0.5,1-0.9
							c-0.7,0.6-0.6-0.5-0.9-0.3c0.1-0.1-1.5,1.4-1.5,0.3c0.4-0.2,0.7-0.6,1-0.9c0-0.3-0.7,0.4-0.7,0c0.6-1.4-2.6-2.6-4-2.4
							c0.3-0.6,0.3-1.3,0.1-1.9c-0.1,0.4-0.4,0.5-0.7,0.4c0.7-1.1,0.2-1.3-1-1.3c0.4-0.2,0.5-0.4,0.3-0.8c-0.3,0.1-0.5,0.2-0.8,0.3
							c0.1-0.2,0.2-0.4,0.3-0.6c-0.2,0-2,0.4-0.4-0.8c-1.3,0-0.1-0.6-1.6-1.4c-0.2,0.5-0.6,0.9-1.1,1.1c0.1-0.2,0.1-0.3-0.2-0.3
							c1.2-0.9,0.9-3.4-0.8-3.2c0.7-1-0.8-1-0.4-1.9c-0.6,0.5-1.7-0.2-1.8-0.2c0.6-0.2,1.1-0.4,1.6-0.7c-1.7-0.3-0.2-1.5-0.4-2
							c-0.3,0-1.4-0.5-0.7-0.7c-0.2,0-0.4,0-0.7,0c0.2-0.5,0.5-0.6,1.1-0.2c0.3-0.3-1.5-0.5-1.1-0.7c1.2-0.5,0.2,0,0.5,0.2
							c0.2,0,0.4,0,0.6-0.2c-0.1,0.2-1.5-1.2,0.1-0.9c-1.1-0.6-0.2-0.1-1.4-0.1c-0.2-0.6,0-0.4,0.3-0.4c0-0.4-0.2-0.5-0.6-0.4
							c0.3-0.1,0.6-0.1,1-0.2c-0.4-0.2-0.5-0.5-0.5-0.8c0.6,0.3,1.2,0.3,1.7,0.1c-0.2-0.2-0.4-0.4-0.6-0.6c0,0.5,0.4-2.2-0.3-1.9
							c0.4,0.4,0.8,0.5,1.2,0.2c-1.4-0.7,0.4,0.1-0.5,0.1c-0.3-0.1-0.4-0.3-0.4-0.6c1.7,0.2,1.2-1.4,2.4-1.7
							c-1.1-0.6,0.1-0.3-0.3-0.9c0.9,0.7,0.1-0.5,0.8-0.3c-0.6-0.3-1.3-0.9-0.9-1.8c0.4-0.7,1.2,1.4,1.6,0.8
							c0.2-0.3-0.2-1.3,0.7-0.8c-0.4-0.3-0.7-0.8-0.8-1.3c1,0.3,1.9-0.2,1.9,0.4c0.4-0.2,0.6-0.6,0.5-1.2c2.1,1.7,2.1-2.1,2.2-2.2
							c0.3,0.9,1,0.9,1.2,1.2c-0.2-0.3,0.2-1.5,0.6-1.7c0.5-0.2-0.1,1.4,0.7,1c0.3-0.1,0.4-0.3,0.2-0.6c0.1,0.3,0.8-0.1,0.1,0.2
							c0.5,0.4,0.4-0.1,0.7,0.8c0.3-0.3,0.4-0.7,0.5-1.2c0.9,0.3,1.7,0.2,2.4-0.4c0.2-0.3,0.5,0.3,1.1,0.5c0-0.2,0.1-0.4,0-0.5
							c0.6,1,2.8-0.9,1.9,0.8c0.7-0.1,1.4-0.4,2-0.9c-0.7,1.3,0.4,0.8,0.9,0.3c-0.2-0.4-0.2,0.3-0.3,0.2c-0.2-1.7,3.8,0.6,4.6,0.1
							c-0.1,0.1-0.7-0.2-1-0.2c1,0-0.7-0.2,1.2-0.2c0,0-0.1-0.1-0.7-0.1c1.7-0.1-0.7-0.2-0.8-0.2c0.6-0.1,0.6-0.3,1.3-0.4
							c-0.5,0.2-0.8,0.1-1-0.2c0.3,0,1.6,0,0.4-0.1c0.7-0.1,1.3-0.2,1.9-0.4c-1.4-0.1-0.3-0.3,0-0.5c0.1,0-1.9-0.5-1.9-0.8
							c0.2-0.3,0.5-0.4,0.8-0.4c-0.3,0-1.6,0.3-0.7,0.2c-0.2,0-0.6,0.1-0.8,0.2c0.4-0.1,0.5-0.2,1.8-0.5c1-0.4-2.8,0.6-2.2,0.3
							c0.7-0.2,0.9-0.3,0.8-0.3c-0.4,0.1-0.8,0.2-1.2,0.3c0.5-0.4,0.2-0.9,0.9-1.1c-0.1,0-0.7-0.7-0.3-0.6c-0.9-0.2-4.1-0.8-3-2.1
							c-0.5-0.1-1.7,0.5-1.8,0c0.4-0.3,0.2-0.3-0.1,0c0.7-0.5-3.2,1-3.6,1.4c-3.5-2.1-9.3,1-13.5,2.8c0.3,0.1,0.4,0.2,0.4,0.6
							c-0.7-0.7-1.4,1.6-1.2,0.1c-2.8,0.7-5.9,5.2-6.9,7.2c-1.7,3.6-3.9,12.7-0.9,16c-0.1,0.3-0.3,0.4-0.6,0.4
							c0.5,0.4,0.8,4.4,2,3.4c-0.4,1.8,1.8,2.4,1.8,4c0.8-1.1,2.1,0.4,1.1,0.9c0.7,0.5,1.1,1.2,1.3,2c0.5,0,0.9,0.1,1.3,0.5
							c-1,1.7,2.4,1.1,2.4,1.7c-0.3,0.2-0.7,0.4-1,0.7c2,1,2.5,3.6,5,4.1c-0.1,0.2-0.3,0.4-0.4,0.6c1.6,0.7,2.5,2.3,4,3.1
							c1.7,0.9,2.1,3,4.4,2.2c0.5,0.3-0.3,3.2,1.8,2.7c-0.1,0.2-0.2,0.3-0.4,0.5c0.9,0,3.6,2.1,3.9,0.6c0.3,0.1-0.5,0.9,0.2,0.6
							c-0.3,0.2-0.5,0.3-0.8,0.5c1.3,1.4,3.6,2.5,4.9,3.5c0.9,0.6,2.9,2.4,4.1,1.4c0,1.9,2.2,2.1,3.7,1.9c-0.1,0.2-0.1,0.4-0.2,0.6
							c0.7-0.3,1.2-0.8,1.5-1.4c0.2,0.2,0.4,0.4,0.7,0.6c-0.6,0.3-1.2,0.8-1.6,1.3c0.4,0.4,3,0.4,3.2-0.2c0.1,0.3,0,0.6-0.1,0.8
							c1.2-0.1,1.5-0.3,0.8-0.4c0.3-0.5,0.7-0.5,1,0.1C-795.6-590.8-797.7-587.8-797.5-589.7 M-823.2-645c0,0-0.1,0.1-0.2,0.1
							C-823.3-645-823.2-645.1-823.2-645z M-797-589.3c0,0.1-0.1,0.2-0.1,0.3C-797-589.1-797-589.1-797-589.3z M-837-645.2
							c0.1-0.1,0.1-0.2,0.1-0.3C-837-645.5-837-645.4-837-645.2 M-798.6-587.7c0,0-0.1,0.1-0.1,0.1
							C-798.6-587.6-798.6-587.6-798.6-587.7z M-837.8-615.3C-837.7-615.4-837.8-615.9-837.8-615.3 M-811.3-601.9
							c0,0-0.1-0.1-0.2-0.1C-811.4-601.9-811.4-601.9-811.3-601.9z M-817.3-644.4L-817.3-644.4
							C-817.4-644.2-817.4-644.3-817.3-644.4z"/>
					</g>
				</g>
			</g>
			<g id="XMLID_9820_">
				<g id="XMLID_9821_">
					<g id="XMLID_9822_">
						<path id="XMLID_9824_" class="st5" d="M-782.7-586c0.3-1.5,3.5-6.4,4.2-6.3c-1-0.2,1.7-7.2,3-7.5c0-0.6-0.1-1.2-0.2-1.8
							c0.2,0.1,0.4,0.2,0.6,0.2c-0.2-0.4-0.4-0.9-0.4-1.4c0.4,0,0.8-0.1,1.2-0.1c-2.2-1.2,0.1-2.4-0.5-3.8c0.8,0.5,0.5-1.7,0.7-2.3
							c0.7-2,0.7-3.3,2.3-3.6c-1.9-0.7,0.1-3.6-0.9-4.2c0.2-0.1,0.5-0.1,0.7-0.2c-0.6-0.2,1.3-3.1,0.1-3.3c0.8-0.1,0.3,0.8,1.3,0.6
							c-0.2-1.6-0.1-3.3,0.2-4.9c0.2-1.4,1.4-3.5,1.3-4.3c-0.2-1.2-0.3-1.7,0.6-1.7c-0.8-0.7-0.9-1.5-0.1-1.4
							c-0.7-0.7,0.3-1-0.1-1.6c0.2,0.1,0.3,0.2,0.5,0.3c0.5-0.5-1.6-1.3,0-0.8c-1.1-1-0.5-2.5-0.4-3.6c-0.5-0.8-0.4-1.3,0.3-1.3
							c0.4,0.1,0.7-0.1,0.7-0.5c-1,0-0.4-1.3-1.6-0.9c0.3-0.7,0.3-1.3,0-2c0.4,0.2,2.2-0.1,2.4-0.1c-0.5-2-2.1-1.2-2.8-2.6
							c0.5-0.1,0.9-0.2,1.3-0.3c-0.7,0-1.5-0.4-2.2-0.4c0.2-0.1,0.4-0.3,0.4-0.6c-2,1,0.1-1.6,0-1.5c-0.3-0.5-1.3-1.7-1.8-0.8
							c0.1,0.2,0.5-0.4,0.4,0c-0.8,0.1-1.9-0.3-0.6-0.8c-0.8,0-1.6-0.2-2.3-0.6c-0.1,0.1,0.7-0.2,0.7-0.2c0-1.2-1.9-0.5-1.7-1.7
							c-0.1,0.2-0.2,0.3-0.3,0.5c-0.3-0.3-0.8-1.3-0.5-1.1c-0.6,0-1.2-0.1-1.8-0.4c-1.8-0.9-0.4,0.2-1.8-0.1
							c0.1,0.2-0.1-1.5-0.2-1.2c-0.6,0.5,1.5,0,1,0.3c0-0.1-1.7,0.3-1.9-0.3c0.3-0.2,0.4-0.5,0.3-0.8c-0.5-0.1-1.5,0.7-1.5,1
							c0-0.3-0.6-0.7-0.4-1.6c-1.2,0.1-0.3,1.4-1.4,1.2c-0.5-0.1-2.7,0.3-3,0.2c0.3-0.4-0.7-0.7-1.5-1.3c-0.2,0.5-0.2,1,0,1.5
							c-0.5-0.8-0.7,0.2-1.1,0.3c-0.8,0.3-0.1-1.9-0.9-1.5c-0.9,0.4-0.5,1.4-0.2,1.9c-0.2-0.1-1.6-0.1-1.1,0.8
							c-1.3-0.4-1.6,1.5-3.1,0.5c-0.2,0.2-0.2,0.4,0,0.6c0.8,0.4-0.4-1,0.5,0.2c-0.5,0.1-0.8-0.2-1-0.7c0.5,0-0.9,2.3-0.7,1.9
							c0.1,0.3,0.2,0.5,0.3,0.8c-0.6,0-1.1-0.3-1.5-0.8c-0.2,0.3-0.2,0.6,0,1c-0.3-0.1-0.6-0.1-0.9-0.2c0.4,0.1,0.5,0.3,0.3,0.7
							c-0.2-0.1-0.4-0.4-0.4,0.3c1.1,0.5,0.5-0.4,1.2,0.7c-1.2-0.9-0.6,1.1-0.5,0.9c-0.2,0.1-0.4,0.1-0.6-0.1
							c-0.1-0.2,1-0.3-0.3-0.3c-0.5,0,1,0.9,0.5,1.1c-0.4-0.6-0.6-0.6-1-0.2c0.2,0.1,0.4,0.2,0.6,0.3c0.6,0-1.2,2.4-0.2,3.1
							c-0.5,0.1-1.1,0.1-1.7,0c0.1,0,0.7,1.1,1.5,0.9c-1.4,1.7,2.2,5.5-1.2,5.8c0.2,0.1,0.2,0.2,0,0.4c0,0.2,1.3-0.1,1.4-0.4
							c0.4,0.7,0.5,1.5,0,2.2c0.2-0.2,0.4-0.2,0.6,0c-2,0.1-0.1,0.9-0.1,0.9c-0.2,0.1-0.4,0.2-0.5,0.3c0.3,0.1,0.5,0.1,0.8,0.2
							c0.3,0.2-0.6,0.5-0.6,0.5c1,0.7,1.3,1.2,0.2,1.8c0.3,0.3,0.5,0.3,0.8,0.1c-0.1,0.7-0.5,1.3-1,1.7c1.3,0.7,3.2,3.6,2,4.5
							c-0.3,0.4,0.7,0.2,0.5,0.4c-0.4,0.2-0.9,0.3-1.3,0.2c-0.5,1.1,1.5,0.7,1.4,0.7c0.3,0.1-0.3,0.9,0.6,0.8
							c-0.4,0.2-0.8,0.2-1.3,0.2c0.2,0.1,0.3,0.2,0.5,0.3c-0.7,0.5-3.9-0.4-4,0.5c0.6,0.3,4-0.3,4.1,0.8c-0.4,0.3-0.3-0.6-0.9-0.3
							c-1,0.9,1.7,1,1.7,1c-0.3,0.1-0.6,0.2-0.8,0.5c1.2,0,1.3,0.6,1.9,0.7c-0.5,0.2-1.9-0.2-2.1,0.5c0.7-0.3,1.1,0.6,2.1,0
							c-0.3,0.3-0.7,0.5-1.2,0.4c-0.5,0.6,1.7,0.5,0.1,1c0.3,0,0.5,0,0.8,0c-1,0.8,0.2,1.5-0.6,1.6c1.4,0.8,0.4-0.1,1.3-0.5
							c-0.8,0.5,0.3,0.6,0.6,0.8c-0.1,0-0.3,0.1-0.4,0.1c1,0.5,0.3,0.2,0.1,0.7c0.2,0,0.5,0,0.7,0c0.6,0.7-1.4,0.6-1.4,0.6
							c-0.1,0.2-0.2,0.4-0.2,0.7c0.6,0,1.2,0,1.9,0c0.4,0.3-0.7,0.3,0.1,0.5c-0.4-0.1-1.9-0.5-1.6,0.7c0.5,0.4,1,0.3,1.5-0.1
							c0,0.4-0.3,0.6-0.7,0.6c0.4,0.1,0.7,0.1,1.1,0.1c-1.3,1-2.1,1.9-3.7,1.9c-0.2,0.7,3.3,0.5,3.7,0.3c0.5,0.6-1.7,1-1.4,1.4
							c0.3,0.5,1.9,0,1.5-0.3c0,0.6,1.3,0,1,0.7c-0.7-0.3-1.1,0.8-2,0.4c0.3-0.2,0.3-0.3,0.1-0.5c-0.5,0.1-0.9,0.4-1.1,0.8
							c0.8,1.1,1,0,1.5,0c1,1.3,0.5,0,2.1,0.4c-0.2,0-0.3,0-0.5,0.1c-0.1,0.8,0.9,0,1,0.7c-1.4,1.1-0.9-0.5-2,0
							c0.3,0.3,0.5,0.6,0.6,1c-0.4,0-0.9-0.3-1.2,0.5c0.3-0.6,4,2.5,1.6,2.1c1.2-1.1-1.5-1.4-1.4-1.3c-0.6-1.1-1.3,0.2-2.3,0.7
							c0,0.8,1.6-0.2,1.8-0.3c0.2,0.8,0.6,1.3,1.4,1.4c-0.3,0.4-0.7,0.4-1.1,0.3c0.8,1.2,0.7,1.8,1.3,2.2c1.2,0.8,0.7-0.8,2-0.8
							c0-0.1-1.4,1.2-0.3,1.1c-0.6-0.6-2.8,0.8-2.6,1.3c1.5,0.7,1.1,1.1,1.7,2.2c0.4,0.5,0.7,0.9,1.2,1.3c-0.4,0.4-0.8,0.8-1.2,1.2
							c0.2,0.4,0.8-0.8,0.7,0c0.1,0.2-0.1,1.5,1.2,0.8c-0.3,0.2-0.7,0.3-1,0.5c0,0.8-0.4,0.5,0.6,1.6c0.1-0.2,0.2-0.4,0.3-0.6
							c1.1,0.5,1.2,1,1,1.7c0.2,0,0.4,0,0.5,0c-0.5,0.5-0.4,0.8,0.1,0.7c-0.6,0.3-1.2,0.4-1.9,0.5c0.3-0.4,0.6-0.7,1-1
							c0.4-1-2.3,1.3-1.4,0.5c-0.4-0.2-0.8-0.3-1.2-0.5c0.3-0.1,0.5-0.3,0.6-0.6c-0.5,0.4-2.6-1.3-2.7-1.9c0.7-0.1,1.4-0.1,2.1,0
							c-0.1-0.3-0.2-0.6-0.2-0.9c-0.7,0.3-1.3,0.3-2,0.1c0.2-0.1,0.3-0.2,0.5-0.3c-1.4-0.9-3-2.3-1.9-3.9c-1.5,0-2.2-2.8-2.5-3.8
							c-0.6-1.7-1.7-4-2.2-6c0.3,0,0.6,0.1,0.9,0.1c-0.7-0.2,0.4-0.4,0.2-0.7c-1,1.1-2.2-2.4-2.9-2.9c0.2-0.1,0.4-0.1,0.6-0.2
							c-2-0.8,0.3-2.7,0-3.4c-1.8-0.5-4.6-8.9-3.6-9.9c-1.8-1.8-0.8-4.4-2-6.5c0.4,0,0.8,0,1.2,0c0.3-0.8-1.5-1-1.5-2.3
							c-0.1-1.3-0.2-2.9-0.7-4.5c1.1,0,0.6-1.4-0.4-1c0.7-1.4-0.9-2.9,0.2-4.3c-1.4,0.4,0-3.4-0.3-4c0.3,0.1,0.5,0.1,0.7-0.1
							c-1.2-3.8,3.6-10.7,6.9-13.4c1-0.9,2.7-1.1,3.7-2.2c1-1.1,3.5-0.6,4.6-2.1c-0.5,0,2.9-0.4,3.4-0.2c-1,1.2,0.8-0.4,1.1,0.6
							c0.2-0.2,0.2-0.4,0-0.6c2.4,0.2,4.8,0,7.2,0.3c1.8,0.2,2.5,2.2,2.4,2.2c0,0,0.8,0.1,0.9-0.2c0.6,0,0.3,1.7,0.9,1.4
							c0.2-0.3,0.4-0.6,0.7-0.7c0.6,0.7,1.4,2,1.5,2.2c6.8-0.8,10.4,10.2,11,15.3c0.5,4.3-0.4,8.9-1.1,13.2c-0.3,2.2-1.6,9-3.1,9.5
							c1.6,0.4-0.2,6-0.5,7.1c-0.2-0.4-0.4-0.5-0.8-0.3c0.5,0.4,0.2,0.4,0.2,0.5c0.5,2,1.4-2.1,0.6,2.1c-0.4,2.1-1.1,4.1-2,6.1
							c-1.6,3.8-3.5,7.5-4.6,11.4c-2.2,1.8-2.8,4.7-4.7,6.7C-779.7-583.4-786.5-582.1-782.7-586"/>
						<path id="XMLID_9823_" class="st6" d="M-790.3-654.1C-790.6-654-790.6-654-790.3-654.1"/>
					</g>
				</g>
			</g>
		</g>
		<path id="XMLID_9816_" class="st7" d="M-1134.1-577.5h-7.3l-7-25.5h-36.9l-6.9,25.5h-7.5l19.2-71c2.2-8.5,6.8-12.7,13.6-12.7
			c6.8,0,11.4,4.2,13.6,12.7L-1134.1-577.5z M-1150.3-610.2l-9.7-36.4c-1.3-5-3.6-7.5-6.9-7.5c-3.1,0-5.4,2.5-6.8,7.5l-9.8,36.4
			H-1150.3z"/>
		<path id="XMLID_9813_" class="st7" d="M-1048.5-581.3c-8.1,3.7-15,5.1-20.7,5.1c-20.6,0-25.6-15.3-25.2-30.1
			c0.6-22.4,9.8-30.5,24-30.5c13.8,0,22.7,6.7,22.7,23.1c0,10.1-6.9,10.1-9.7,10.1c-7.2,0-29.9,0-29.9,0c0,10.3,3.7,20.9,17.9,21.2
			c4.8,0.1,10.9-1,18.8-3.7L-1048.5-581.3z M-1054-614.6c0-11.5-6.6-16.2-16.4-16.2c-10.6,0-16.9,5.4-16.9,20.9c0,0,25.6,0,29.1,0
			C-1055.7-609.9-1054-610.7-1054-614.6z"/>
		<path id="XMLID_9811_" class="st7" d="M-1028.1-635.6l15.3,22.5l15.4-22.5h7.8l-19,27.5l20.3,30.6h-7.7l-16.8-25.3l-16.8,25.3
			h-7.8l20.2-30.5l-18.7-27.6H-1028.1z"/>
		<path id="XMLID_9808_" class="st7" d="M-972.9-658.9h6.9v8.7h-6.9V-658.9z M-972.9-635.6h6.9v58.1h-6.9V-635.6z"/>
		<path id="XMLID_9805_" class="st7" d="M-904.8-625.8c0,9.7,0,38.6,0,38.6c0.3,3.5,3.7,4.7,7.6,5.1l-0.4,5.6
			c-5.7,0-10-1.2-13.1-4.7c0,0-10.9,4.8-21.9,4.8c-10.2,0-18.8-9.4-18.8-24.2c0-21.1,9.6-33.9,22.6-33.9c4.9,0,8.2,0,15.4,0
			C-909.4-634.4-904.8-632.5-904.8-625.8z M-915.7-628.1c-4.5,0-8.6,0-12.1,0c-10.6,0-16.5,10.4-16.5,26.8c0,14.2,6.2,19,12.6,19
			c9.4,0,20-4.1,20-4.1s0-28.8,0-37.9C-911.7-626.7-913.1-628.1-915.7-628.1z"/>
		<g id="XMLID_9802_">
			<path id="XMLID_9803_" class="st7" d="M-1112.2-588.7l0-72.9h-7.3v75.1c0,0,0.3,0,0,0c0,6.9,4.1,9.8,13.2,9.8l0.3-5.6
				C-1109.7-582.7-1112.2-583.5-1112.2-588.7z"/>
		</g>
	</g>
	<g id="XMLID_4317_">
		<rect id="XMLID_204_" x="-1201.9" y="-533.6" style="fill:none;" width="439.8" height="58.5"/>
		<text id="XMLID_203_" transform="matrix(1 0 0 1 -1201.8684 -506.9167)"><tspan x="0" y="0" class="st7" style="font-family:'Titillium-Light'; font-size:37.0034px; letter-spacing:13;">suite</tspan><tspan x="145.6" y="0" class="st7" style="font-family:'Titillium-Light'; font-size:37.0034px; letter-spacing:25;"> </tspan><tspan x="179.6" y="0" class="st7" style="font-family:'Titillium-Light'; font-size:37.0034px; letter-spacing:13;">educativa</tspan></text>
	</g>
</g>
<g id="XMLID_1_">
	<g id="XMLID_8_">
		<g id="XMLID_30_">
			<g id="XMLID_73_">
				<g id="XMLID_74_">
					<g id="XMLID_75_">
						<path id="XMLID_76_" class="st0" d="M-833.8-8.5c0-0.1,0-0.6,0.1-0.8L-833.8-8.5"/>
					</g>
				</g>
			</g>
			<g id="XMLID_58_">
				<g id="XMLID_59_">
					<g id="XMLID_60_">
						<path id="XMLID_61_" class="st1" d="M-839.2,29.2C-839.1,29.1-839.6,28.8-839.2,29.2 M-793,23.4c0,0.1,0,0.1,0,0.2
							C-793,23.6-793,23.5-793,23.4z M-858.8,7.6c0.1-0.1,0-0.2-0.1-0.3C-858.9,7.4-858.9,7.5-858.8,7.6 M-836.4-9.1
							C-836.5-9.1-836.5-9-836.4-9.1 M-849-0.5C-849-0.6-849-0.5-849-0.5 M-793.6,21.3c0.2-0.2-2.4,1.9-2.7,1.8
							c-0.1-0.4-0.2-0.7-0.3-1.1c0.5,1.4-0.6,0.9-0.8,1c-0.7-0.2,0.3,0.5-0.1,0.7c-0.4-0.4-0.7-0.9-0.9-1.4c-1.4,0.6-2.6,0.6-3.6,2
							c-0.4,0.1-0.8-1.6-0.8-1.7c0,0.7-1-0.1-0.4,1c-0.8-0.1-1.6-0.1-2.3,0.2c0.2-0.4,0.2-0.7,0-1.1c-0.3,0.7-0.8,1.1-1.5,1
							c0,0.1,0.6,2-0.1,1.8c-0.1-0.3-1-2.3-0.5-2.4c0.3-0.1,1.2-2.3,1.8-1c0.4-1-0.4-0.1-0.4-1c-0.5,0.1-1.8,2.1-1.8,2.1
							c-0.7-0.5-0.3-0.9-0.2-1.3c-0.4,0-0.7,0.1-1,0.3c-0.1-0.5,0.4-1.2,0.4-1.9c-0.7-0.1-0.1,1.1-0.8,0.8c0-0.2,0-0.3,0.1-0.5
							c0,0.1-0.1,2.1-0.1,2.1c-0.2-0.1-0.5-0.2-0.7-0.2c-0.1,0.5,0.8,1-0.3,1.5c-0.5,0-0.3-2.7,0-3.1c-0.6-0.5-0.7,2.2-0.9,2.3
							c-0.4,0.2-0.3-2-1-1.7c0.1,0.4-0.6,3.9-1,3.5c0.4-1.6-0.3-2.6-0.9-4.1c-0.1,0.4-0.2,0.7-0.3,1c0.1-0.4,0-0.7-0.3-0.8
							c0.3,0.5,0.2,1-0.3,1.4c-1.2,0-0.4-1.4-0.3-1.7c-0.3,0.7-0.1-0.3-0.4-0.1c-0.1,0.6-0.3,1.2-0.4,1.8c-0.6,0.5-0.1-2.2-0.8-1.8
							c-0.1,0.2-0.1,0.4-0.2,0.7c0-0.2,0-0.4,0-0.7c-0.1,0.3-0.3,0.5-0.6,0.5c0-0.1,0-0.3,0-0.4c-0.2,0.2-0.6,1.3-0.8,0.4
							c0.2,0.9,1.1,0.2,0.2,1.3c0-0.9-0.8,0.3-1.3-1c0,0.2-0.1,0.5-0.1,0.7c-0.1-1.7-0.5,0.4-0.9-0.1c0.2-0.4,0.2-0.8,0-1.2
							c0.3,1.1-0.6,1.3-0.5,2.1c-0.6-0.4,0.2-1.6,0.1-2.1c-0.2,0.5-0.8,0.5-1.1,1.7c-0.2-0.3-0.3-0.5-0.2-0.9c0,0-0.7,2.6-1.3,1.4
							c-0.1-0.6,0.7-0.3,0.5-0.8c-0.9-0.1-1.2,3.4-1.6,3.8c-0.9-0.4,0.8-3.1,0.5-4c-0.1,0.1-0.2,0.3-0.4,0.4
							c0.1-0.4,0.2-0.8,0.1-1.3c-0.1,0.9-0.8,0.1-0.9,0.3c0-0.1-0.1,2-0.9,1.2c0.1-0.4,0.2-0.9,0.1-1.3c-0.2-0.2-0.2,0.8-0.5,0.4
							c-0.5-1.4-3.6-0.2-4.5,0.9c-0.2-0.6-0.6-1.1-1.2-1.4c0.2,0.3,0.1,0.6-0.3,0.8c-0.3-1.2-0.8-1.1-1.7-0.2c0,0,0-1-0.3-0.7
							c-0.1,0.2-0.2,0.5-0.3,0.7c-0.1-0.2-0.1-0.4-0.2-0.6c-0.2,0.1-1.2,1.6-0.8-0.3c-0.9,0.9-0.5-0.4-2.1,0.1
							c0.2,0.2,0.1,1.6,0,1.5c0-0.2-0.1-0.2-0.3-0.1c0.5-3.2-3.3-1-4.3-2.8c-0.1,0.8-1.3,1-1.4,1.1c0.3-0.5,0.5-1,0.6-1.5
							c-1,0.7-2.4-1.8-2.6-1.2c-0.2,0.2-0.3,0.3-0.5,0.4c-0.2-0.5-0.1-0.7,0.6-0.9c0-0.4-1.4,0.6-1.2,0.2c0.6-1.2,0.2-0.2,0.4-0.2
							c0.2-0.1,0.3-0.3,0.3-0.5c0.1,0.2-1.8,0.1-0.6-0.7c-1.2,0.3-0.2,0-1.1,0.8c-0.6-0.2-0.3-0.3-0.1-0.4c-0.2-0.3-0.5-0.2-0.7,0.1
							c0.2-0.3,0.3-0.5,0.5-0.8c-0.4,0.1-0.7,0.1-0.9-0.3c0.6-0.2,1-0.6,1.3-1.1c-0.3,0-0.5,0-0.8,0c0.4,0.4-1.3-1.7-1.5-1.1
							c0.5,0,0.9-0.2,1-0.7c-0.6,0.2-0.1,0.5-0.9,0.2c1.4-1.1-0.2-1.7,0.5-2.8c-1,0.3-0.5-1.1-0.3-1.2c-0.6,0.1-1.5,0.2-1.8-0.7
							c-0.2-0.7,1.7,0.2,1.6-0.4c-0.1-0.4-0.9-0.8,0-1c-0.5,0-1-0.1-1.4-0.4c0.4-0.3,0.8-0.5,1.3-0.7c-0.3-0.4-0.3-0.8,0.3-0.3
							c0.1-0.5,0-0.8-0.4-1.2c2.6-0.1,0-3,0-3c0.8,0.3,1.4,0,1.7,0.1c-0.3-0.1-0.8-1.2-0.7-1.6c0.2-0.5,0.9,1.1,1.1,0.2
							c0.1-0.3,0-0.5-0.2-0.5c0.2,0.1,0.5-0.5,0.2,0.1c0.6-0.1,0.3-0.3,1,0.1c0-0.4-0.1-0.8-0.4-1.1c0.9-0.2,1.2-1.4,1.4-2.1
							c-0.2,0.3,0.7,0,1.1-0.2c-0.4-0.4,1.2-2.4,1.6-1c0.4-0.6,0.7-1.3,0.8-2c0,1,0.3,1,0.8-0.1c0.3-0.6-0.3-1.2,0.9-1.6
							c-0.1-0.1,1.9,2.5,1.3,0.3c0.2,0.1,0.4,0.2,0.5,0.5c0.1-0.3,0.5-2.5,0.3-2.5c-0.3-0.1-0.6,0.8-1,0.7c-0.3,0,0.7-1.6-0.3-0.7
							c0.2-0.3,0.3-0.6,0.3-0.9c-0.1-0.2-0.8,0.8-0.9,0.9c-0.2,0.1,0.3-1.3-1.2,0.1c0.5-0.7-0.3-0.7-0.7-0.3c0.1-0.2,0.1-0.5,0-0.7
							c-0.6,0.4-0.9,0.9-1.1,1.5c0-0.2,0.2-1.4-0.4-0.8c0.4-0.5,0.4-1.2,0.8-1.8c-0.9,0.3-2.7,1.7-3.2,2.3c0.4-0.9-2.6,0.2-2.7,2.3
							c-0.2,0-1.6,0.4-2.4,0.8c1,0.9-1.5,3.7-1.7,3.7c-0.1,1.6-1.1,1.6-2.4,2.4c-0.7,1.3-0.8,2.7-1.4,4c0.3-0.2,0.5-0.1,0.6,0.1
							c-1,0,0.2,2.1-0.8,0.8c-1.7,2.9-0.3,8.2,0.3,10.3c1.3,3.9,5.9,11.2,9.9,11.4c0.1,0.3,0,0.5-0.2,0.7c1.4-0.2,2.2,2.1,3.4,1.4
							c0.2-0.1,3.7,0.6,4.3,1.2c-0.1-1.3,1.8-1.1,1.3-0.2c0.5,0,3.3-0.1,3.5,0c0.4,1.9,2.4-0.8,2.8-0.4c-0.1,0.4-0.2,0.8-0.3,1.1
							c2.1-0.7,4.2,0.9,6.2-0.3c0,0.2,0.1,0.5,0.1,0.7c2-0.6,4.2,0.2,6.1-0.9c1.3,1,2.6,0.7,3.4-0.8c0.6-0.1,1.9,2.5,3,0.8
							c0,0.2,0,0.4,0,0.6c0.6-0.4,4-0.7,3.2-2.1c0.3-0.1,0.2,1,0.5,0.3c-0.1,0.3-0.2,0.6-0.3,0.8c1.8,0.2,4.3-0.5,5.8-0.6
							c1-0.1,3.7-0.2,3.9-1.6c1.2,1.4,2.9,0.1,3.9-1c-0.1,0,4-0.3,3.1-1.7c0.2,0.2,0.4,0.4,0.5,0.6
							C-792.6,24.1-793.3,21.7-793.6,21.3 M-844.3-4.8C-844.3-4.8-844.3-4.8-844.3-4.8C-844.2-4.6-844.2-4.7-844.3-4.8z
							 M-792.8,21.5c0-0.1,0-0.1-0.1-0.3C-792.9,21.4-792.9,21.4-792.8,21.5z M-811.6,21.6c0.1,0,0.1,0,0.2-0.1
							C-811.4,21.5-811.5,21.5-811.6,21.6z M-802.7,21.4"/>
					</g>
				</g>
			</g>
			<g id="XMLID_55_">
				<g id="XMLID_56_">
					<path id="XMLID_57_" class="st2" d="M-825.6,0.4c-0.2,0.4,0.1,1.5-0.1,0.7C-825.8,0.3-825.7-0.2-825.6,0.4z"/>
				</g>
			</g>
			<g id="XMLID_51_">
				<g id="XMLID_52_">
					<g id="XMLID_53_">
						<path id="XMLID_54_" class="st3" d="M-831.9-34.1C-832.1-33.8-832.1-33.9-831.9-34.1"/>
					</g>
				</g>
			</g>
			<g id="XMLID_36_">
				<g id="XMLID_37_">
					<g id="XMLID_38_">
						<path id="XMLID_39_" class="st4" d="M-800.6-37.9c0.2,0,0.4,0,0.7,0.1C-800.2-38.1-801.2-38-800.6-37.9 M-824-39.5
							C-823.9-39.5-823.9-39.5-824-39.5 M-797.5,15.3c-0.3,0-1-0.7-2.1-0.4c-0.4,0.9-1.3,1.5-0.8-0.4c-0.1,0.1-0.2,0.2-0.4,0.2
							c0.2-0.3,0.3-0.7,0.5-1c-0.6,1.4-1.1,0.3-1.3,0.2c-0.4-0.7-0.2,0.6-0.5,0.5c0-0.6,0.1-1.2,0.3-1.7c-1.4-0.6-2.6-1.3-4.1-0.9
							c-0.4-0.2,0.5-1.8,0.5-1.8c-0.5,0.5-0.7-0.8-1,0.5c-0.5-0.7-1.1-1.1-1.9-1.4c0.4-0.1,0.7-0.4,0.8-0.9
							c-0.7,0.4-1.3,0.3-1.9-0.2c-0.1,0.1-0.9,1.9-1.3,1.3c0.5-0.9,0.5-2.5,1.5-1.9c-0.1-0.1,2.2-1.4,1.9,0.2c1-0.5-0.2-0.4,0.4-1.1
							c-0.5-0.2-2.8,0.3-2.8,0.4c-0.2-0.9,0.4-0.9,0.7-1.2c-0.3-0.3-0.6-0.4-1-0.4c0.7-1,1.1,0.4,1.7-1.2c-0.4-0.5-0.8,0.8-1.2,0.1
							c0.1-0.1,0.3-0.2,0.4-0.3c-0.5,0.2-1.2,1.6-1.5,1.5c-0.1-0.2-0.2-0.5-0.5-0.6c-0.5,0.3-0.1,1.3-1.3,0.9
							c-0.1-0.5,0.1-0.9,0.5-1.3c0.3,0,0.4,0.2,0.2,0.4c0.5-0.1,1.6-1.8,1.3-1.8c-1,0.1-1.1,1.4-2.1,1.4c-0.4,0,1-1.8,0.4-2
							c-0.2,0.4-3.1,2.6-3.3,2c1.4-1,1.6-2.1,2.2-3.7c-0.3,0.2-0.6,0.4-1,0.6c0.4-0.2,0.5-0.5,0.3-0.9c-0.2,0.6-0.6,0.9-1.2,0.9
							c-0.9-0.8,0.6-1.3,1-1.5c-0.7,0.3,0.1-0.3-0.3-0.4c-0.5,0.4-1.1,0.7-1.6,1.1c-0.2-0.2-0.2-0.4-0.2-0.6c0,0,1.7-1.1,0.9-1.3
							c-0.2,0.1-0.4,0.3-0.6,0.4c0.1-0.2,0.3-0.4,0.4-0.5c-0.3,0.1-0.5,0.2-0.8,0c0.1-0.1,0.2-0.2,0.3-0.4c-0.3,0-1.3,0.6-0.9-0.3
							c-0.5,0.8,0.7,0.9-0.8,1.1c0.7-0.7-0.8-0.3-0.3-1.7c-0.2,0.2-0.4,0.3-0.6,0.5c1.1-1.3-0.7,0-0.6-0.7c0.5-0.2,0.7-0.5,0.8-1
							c-0.6,1-1.4,0.6-1.8,1.2c-0.2-0.7,1.2-1.1,1.5-1.6c-0.5,0.2-1-0.1-2,0.5c0-0.3,0.2-0.6,0.4-0.8c0,0-2.3,1.4-1.9,0.2
							c0.3-0.5,0.7,0.2,0.9-0.2c-0.6-0.8-3.3,1.7-3.9,1.8c-0.4-0.9,2.8-1.8,3.2-2.7c-0.2,0-0.4,0-0.5,0c0.4-0.2,0.7-0.5,1-0.9
							c-0.7,0.6-0.6-0.5-0.9-0.3c0.1-0.1-1.5,1.4-1.5,0.3c0.4-0.2,0.7-0.6,1-0.9c0-0.3-0.7,0.4-0.7,0c0.6-1.4-2.6-2.6-4-2.4
							c0.3-0.6,0.3-1.3,0.1-1.9c-0.1,0.4-0.4,0.5-0.7,0.4c0.7-1.1,0.2-1.3-1-1.3c0.4-0.2,0.5-0.4,0.3-0.8c-0.3,0.1-0.5,0.2-0.8,0.3
							c0.1-0.2,0.2-0.4,0.3-0.6c-0.2,0-2,0.4-0.4-0.8c-1.3,0-0.1-0.6-1.6-1.4c-0.2,0.5-0.6,0.9-1.1,1.1c0.1-0.2,0.1-0.3-0.2-0.3
							c1.2-0.9,0.9-3.4-0.8-3.2c0.7-1-0.8-1-0.4-1.9c-0.6,0.5-1.7-0.2-1.8-0.2c0.6-0.2,1.1-0.4,1.6-0.7c-1.7-0.3-0.2-1.5-0.4-2
							c-0.3,0-1.4-0.5-0.7-0.7c-0.2,0-0.4,0-0.7,0c0.2-0.5,0.5-0.6,1.1-0.2c0.3-0.3-1.5-0.5-1.1-0.7c1.2-0.5,0.2,0,0.5,0.2
							c0.2,0,0.4,0,0.6-0.2c-0.1,0.2-1.5-1.2,0.1-0.9c-1.1-0.6-0.2-0.1-1.4-0.1c-0.2-0.6,0-0.4,0.3-0.4c0-0.4-0.2-0.5-0.6-0.4
							c0.3-0.1,0.6-0.1,1-0.2c-0.4-0.2-0.5-0.5-0.5-0.8c0.6,0.3,1.2,0.3,1.7,0.1c-0.2-0.2-0.4-0.4-0.6-0.6c0,0.5,0.4-2.2-0.3-1.9
							c0.4,0.4,0.8,0.5,1.2,0.2c-1.4-0.7,0.4,0.1-0.5,0.1c-0.3-0.1-0.4-0.3-0.4-0.6c1.7,0.2,1.2-1.4,2.4-1.7
							c-1.1-0.6,0.1-0.3-0.3-0.9c0.9,0.7,0.1-0.5,0.8-0.3c-0.6-0.3-1.3-0.9-0.9-1.8c0.4-0.7,1.2,1.4,1.6,0.8
							c0.2-0.3-0.2-1.3,0.7-0.8c-0.4-0.3-0.7-0.8-0.8-1.3c1,0.3,1.9-0.2,1.9,0.4c0.4-0.2,0.6-0.6,0.5-1.2c2.1,1.7,2.1-2.1,2.2-2.2
							c0.3,0.9,1,0.9,1.2,1.2c-0.2-0.3,0.2-1.5,0.6-1.7c0.5-0.2-0.1,1.4,0.7,1c0.3-0.1,0.4-0.3,0.2-0.6c0.1,0.3,0.8-0.1,0.1,0.2
							c0.5,0.4,0.4-0.1,0.7,0.8c0.3-0.3,0.4-0.7,0.5-1.2c0.9,0.3,1.7,0.2,2.4-0.4c0.2-0.3,0.5,0.3,1.1,0.5c0-0.2,0.1-0.4,0-0.5
							c0.6,1,2.8-0.9,1.9,0.8c0.7-0.1,1.4-0.4,2-0.9c-0.7,1.3,0.4,0.8,0.9,0.3c-0.2-0.4-0.2,0.3-0.3,0.2c-0.2-1.7,3.8,0.6,4.6,0.1
							c-0.1,0.1-0.7-0.2-1-0.2c1,0-0.7-0.2,1.2-0.2c0,0-0.1-0.1-0.7-0.1c1.7-0.1-0.7-0.2-0.8-0.2c0.6-0.1,0.6-0.3,1.3-0.4
							c-0.5,0.2-0.8,0.1-1-0.2c0.3,0,1.6,0,0.4-0.1c0.7-0.1,1.3-0.2,1.9-0.4c-1.4-0.1-0.3-0.3,0-0.5c0.1,0-1.9-0.5-1.9-0.8
							c0.2-0.3,0.5-0.4,0.8-0.4c-0.3,0-1.6,0.3-0.7,0.2c-0.2,0-0.6,0.1-0.8,0.2c0.4-0.1,0.5-0.2,1.8-0.5c1-0.4-2.8,0.6-2.2,0.3
							c0.7-0.2,0.9-0.3,0.8-0.3c-0.4,0.1-0.8,0.2-1.2,0.3c0.5-0.4,0.2-0.9,0.9-1.1c-0.1,0-0.7-0.7-0.3-0.6c-0.9-0.2-4.1-0.8-3-2.1
							c-0.5-0.1-1.7,0.5-1.8,0c0.4-0.3,0.2-0.3-0.1,0c0.7-0.5-3.2,1-3.6,1.4c-3.5-2.1-9.3,1-13.5,2.8c0.3,0.1,0.4,0.2,0.4,0.6
							c-0.7-0.7-1.4,1.6-1.2,0.1c-2.8,0.7-5.9,5.2-6.9,7.2c-1.7,3.6-3.9,12.7-0.9,16c-0.1,0.3-0.3,0.4-0.6,0.4
							c0.5,0.4,0.8,4.4,2,3.4c-0.4,1.8,1.8,2.4,1.8,4c0.8-1.1,2.1,0.4,1.1,0.9c0.7,0.5,1.1,1.2,1.3,2c0.5,0,0.9,0.1,1.3,0.5
							c-1,1.7,2.4,1.1,2.4,1.7c-0.3,0.2-0.7,0.4-1,0.7c2,1,2.5,3.6,5,4.1c-0.1,0.2-0.3,0.4-0.4,0.6c1.6,0.7,2.5,2.3,4,3.1
							c1.7,0.9,2.1,3,4.4,2.2c0.5,0.3-0.3,3.2,1.8,2.7c-0.1,0.2-0.2,0.3-0.4,0.5c0.9,0,3.6,2.1,3.9,0.6c0.3,0.1-0.5,0.9,0.2,0.6
							c-0.3,0.2-0.5,0.3-0.8,0.5c1.3,1.4,3.6,2.5,4.9,3.5c0.9,0.6,2.9,2.4,4.1,1.4c0,1.9,2.2,2.1,3.7,1.9c-0.1,0.2-0.1,0.4-0.2,0.6
							c0.7-0.3,1.2-0.8,1.5-1.4c0.2,0.2,0.4,0.4,0.7,0.6c-0.6,0.3-1.2,0.8-1.6,1.3c0.4,0.4,3,0.4,3.2-0.2c0.1,0.3,0,0.6-0.1,0.8
							c1.2-0.1,1.5-0.3,0.8-0.4c0.3-0.5,0.7-0.5,1,0.1C-795.6,14.1-797.7,17.1-797.5,15.3 M-823.2-40.1c0,0-0.1,0.1-0.2,0.1
							C-823.3-40-823.2-40.1-823.2-40.1z M-797,15.7c0,0.1-0.1,0.2-0.1,0.3C-797,15.9-797,15.8-797,15.7z M-837-40.3
							c0.1-0.1,0.1-0.2,0.1-0.3C-837-40.5-837-40.5-837-40.3 M-798.6,17.3c0,0-0.1,0.1-0.1,0.1C-798.6,17.4-798.6,17.4-798.6,17.3z
							 M-837.8-10.4C-837.7-10.4-837.8-11-837.8-10.4 M-811.3,3.1c0,0-0.1-0.1-0.2-0.1C-811.4,3.1-811.4,3.1-811.3,3.1z
							 M-817.3-39.5L-817.3-39.5C-817.4-39.3-817.4-39.3-817.3-39.5z"/>
					</g>
				</g>
			</g>
			<g id="XMLID_31_">
				<g id="XMLID_32_">
					<g id="XMLID_33_">
						<path id="XMLID_35_" class="st5" d="M-782.7,18.9c0.3-1.5,3.5-6.4,4.2-6.3c-1-0.2,1.7-7.2,3-7.5c0-0.6-0.1-1.2-0.2-1.8
							c0.2,0.1,0.4,0.2,0.6,0.2c-0.2-0.4-0.4-0.9-0.4-1.4c0.4,0,0.8-0.1,1.2-0.1c-2.2-1.2,0.1-2.4-0.5-3.8c0.8,0.5,0.5-1.7,0.7-2.3
							c0.7-2,0.7-3.3,2.3-3.6c-1.9-0.7,0.1-3.6-0.9-4.2c0.2-0.1,0.5-0.1,0.7-0.2c-0.6-0.2,1.3-3.1,0.1-3.3c0.8-0.1,0.3,0.8,1.3,0.6
							c-0.2-1.6-0.1-3.3,0.2-4.9c0.2-1.4,1.4-3.5,1.3-4.3c-0.2-1.2-0.3-1.7,0.6-1.7c-0.8-0.7-0.9-1.5-0.1-1.4
							c-0.7-0.7,0.3-1-0.1-1.6c0.2,0.1,0.3,0.2,0.5,0.3c0.5-0.5-1.6-1.3,0-0.8c-1.1-1-0.5-2.5-0.4-3.6c-0.5-0.8-0.4-1.3,0.3-1.3
							c0.4,0.1,0.7-0.1,0.7-0.5c-1,0-0.4-1.3-1.6-0.9c0.3-0.7,0.3-1.3,0-2c0.4,0.2,2.2-0.1,2.4-0.1c-0.5-2-2.1-1.2-2.8-2.6
							c0.5-0.1,0.9-0.2,1.3-0.3c-0.7,0-1.5-0.4-2.2-0.4c0.2-0.1,0.4-0.3,0.4-0.6c-2,1,0.1-1.6,0-1.5c-0.3-0.5-1.3-1.7-1.8-0.8
							c0.1,0.2,0.5-0.4,0.4,0c-0.8,0.1-1.9-0.3-0.6-0.8c-0.8,0-1.6-0.2-2.3-0.6c-0.1,0.1,0.7-0.2,0.7-0.2c0-1.2-1.9-0.5-1.7-1.7
							c-0.1,0.2-0.2,0.3-0.3,0.5c-0.3-0.3-0.8-1.3-0.5-1.1c-0.6,0-1.2-0.1-1.8-0.4c-1.8-0.9-0.4,0.2-1.8-0.1
							c0.1,0.2-0.1-1.5-0.2-1.2c-0.6,0.5,1.5,0,1,0.3c0-0.1-1.7,0.3-1.9-0.3c0.3-0.2,0.4-0.5,0.3-0.8c-0.5-0.1-1.5,0.7-1.5,1
							c0-0.3-0.6-0.7-0.4-1.6c-1.2,0.1-0.3,1.4-1.4,1.2c-0.5-0.1-2.7,0.3-3,0.2c0.3-0.4-0.7-0.7-1.5-1.3c-0.2,0.5-0.2,1,0,1.5
							c-0.5-0.8-0.7,0.2-1.1,0.3c-0.8,0.3-0.1-1.9-0.9-1.5c-0.9,0.4-0.5,1.4-0.2,1.9c-0.2-0.1-1.6-0.1-1.1,0.8
							c-1.3-0.4-1.6,1.5-3.1,0.5c-0.2,0.2-0.2,0.4,0,0.6c0.8,0.4-0.4-1,0.5,0.2c-0.5,0.1-0.8-0.2-1-0.7c0.5,0-0.9,2.3-0.7,1.9
							c0.1,0.3,0.2,0.5,0.3,0.8c-0.6,0-1.1-0.3-1.5-0.8c-0.2,0.3-0.2,0.6,0,1c-0.3-0.1-0.6-0.1-0.9-0.2c0.4,0.1,0.5,0.3,0.3,0.7
							c-0.2-0.1-0.4-0.4-0.4,0.3c1.1,0.5,0.5-0.4,1.2,0.7c-1.2-0.9-0.6,1.1-0.5,0.9c-0.2,0.1-0.4,0.1-0.6-0.1
							c-0.1-0.2,1-0.3-0.3-0.3c-0.5,0,1,0.9,0.5,1.1c-0.4-0.6-0.6-0.6-1-0.2c0.2,0.1,0.4,0.2,0.6,0.3c0.6,0-1.2,2.4-0.2,3.1
							c-0.5,0.1-1.1,0.1-1.7,0c0.1,0,0.7,1.1,1.5,0.9c-1.4,1.7,2.2,5.5-1.2,5.8c0.2,0.1,0.2,0.2,0,0.4c0,0.2,1.3-0.1,1.4-0.4
							c0.4,0.7,0.5,1.5,0,2.2c0.2-0.2,0.4-0.2,0.6,0c-2,0.1-0.1,0.9-0.1,0.9c-0.2,0.1-0.4,0.2-0.5,0.3c0.3,0.1,0.5,0.1,0.8,0.2
							c0.3,0.2-0.6,0.5-0.6,0.5c1,0.7,1.3,1.2,0.2,1.8c0.3,0.3,0.5,0.3,0.8,0.1c-0.1,0.7-0.5,1.3-1,1.7c1.3,0.7,3.2,3.6,2,4.5
							c-0.3,0.4,0.7,0.2,0.5,0.4c-0.4,0.2-0.9,0.3-1.3,0.2c-0.5,1.1,1.5,0.7,1.4,0.7c0.3,0.1-0.3,0.9,0.6,0.8
							c-0.4,0.2-0.8,0.2-1.3,0.2c0.2,0.1,0.3,0.2,0.5,0.3c-0.7,0.5-3.9-0.4-4,0.5c0.6,0.3,4-0.3,4.1,0.8c-0.4,0.3-0.3-0.6-0.9-0.3
							c-1,0.9,1.7,1,1.7,1c-0.3,0.1-0.6,0.2-0.8,0.5c1.2,0,1.3,0.6,1.9,0.7c-0.5,0.2-1.9-0.2-2.1,0.5c0.7-0.3,1.1,0.6,2.1,0
							c-0.3,0.3-0.7,0.5-1.2,0.4c-0.5,0.6,1.7,0.5,0.1,1c0.3,0,0.5,0,0.8,0c-1,0.8,0.2,1.5-0.6,1.6c1.4,0.8,0.4-0.1,1.3-0.5
							c-0.8,0.5,0.3,0.6,0.6,0.8c-0.1,0-0.3,0.1-0.4,0.1c1,0.5,0.3,0.2,0.1,0.7c0.2,0,0.5,0,0.7,0c0.6,0.7-1.4,0.6-1.4,0.6
							C-794-8-794-7.8-794-7.5c0.6,0,1.2,0,1.9,0c0.4,0.3-0.7,0.3,0.1,0.5c-0.4-0.1-1.9-0.5-1.6,0.7c0.5,0.4,1,0.3,1.5-0.1
							c0,0.4-0.3,0.6-0.7,0.6c0.4,0.1,0.7,0.1,1.1,0.1c-1.3,1-2.1,1.9-3.7,1.9c-0.2,0.7,3.3,0.5,3.7,0.3c0.5,0.6-1.7,1-1.4,1.4
							c0.3,0.5,1.9,0,1.5-0.3c0,0.6,1.3,0,1,0.7c-0.7-0.3-1.1,0.8-2,0.4c0.3-0.2,0.3-0.3,0.1-0.5c-0.5,0.1-0.9,0.4-1.1,0.8
							c0.8,1.1,1,0,1.5,0c1,1.3,0.5,0,2.1,0.4c-0.2,0-0.3,0-0.5,0.1c-0.1,0.8,0.9,0,1,0.7c-1.4,1.1-0.9-0.5-2,0
							c0.3,0.3,0.5,0.6,0.6,1c-0.4,0-0.9-0.3-1.2,0.5c0.3-0.6,4,2.5,1.6,2.1c1.2-1.1-1.5-1.4-1.4-1.3c-0.6-1.1-1.3,0.2-2.3,0.7
							c0,0.8,1.6-0.2,1.8-0.3c0.2,0.8,0.6,1.3,1.4,1.4c-0.3,0.4-0.7,0.4-1.1,0.3c0.8,1.2,0.7,1.8,1.3,2.2c1.2,0.8,0.7-0.8,2-0.8
							c0-0.1-1.4,1.2-0.3,1.1c-0.6-0.6-2.8,0.8-2.6,1.3c1.5,0.7,1.1,1.1,1.7,2.2c0.4,0.5,0.7,0.9,1.2,1.3c-0.4,0.4-0.8,0.8-1.2,1.2
							c0.2,0.4,0.8-0.8,0.7,0c0.1,0.2-0.1,1.5,1.2,0.8c-0.3,0.2-0.7,0.3-1,0.5c0,0.8-0.4,0.5,0.6,1.6c0.1-0.2,0.2-0.4,0.3-0.6
							c1.1,0.5,1.2,1,1,1.7c0.2,0,0.4,0,0.5,0c-0.5,0.5-0.4,0.8,0.1,0.7c-0.6,0.3-1.2,0.4-1.9,0.5c0.3-0.4,0.6-0.7,1-1
							c0.4-1-2.3,1.3-1.4,0.5c-0.4-0.2-0.8-0.3-1.2-0.5c0.3-0.1,0.5-0.3,0.6-0.6c-0.5,0.4-2.6-1.3-2.7-1.9c0.7-0.1,1.4-0.1,2.1,0
							c-0.1-0.3-0.2-0.6-0.2-0.9c-0.7,0.3-1.3,0.3-2,0.1c0.2-0.1,0.3-0.2,0.5-0.3c-1.4-0.9-3-2.3-1.9-3.9c-1.5,0-2.2-2.8-2.5-3.8
							c-0.6-1.7-1.7-4-2.2-6c0.3,0,0.6,0.1,0.9,0.1c-0.7-0.2,0.4-0.4,0.2-0.7c-1,1.1-2.2-2.4-2.9-2.9c0.2-0.1,0.4-0.1,0.6-0.2
							c-2-0.8,0.3-2.7,0-3.4c-1.8-0.5-4.6-8.9-3.6-9.9c-1.8-1.8-0.8-4.4-2-6.5c0.4,0,0.8,0,1.2,0c0.3-0.8-1.5-1-1.5-2.3
							c-0.1-1.3-0.2-2.9-0.7-4.5c1.1,0,0.6-1.4-0.4-1c0.7-1.4-0.9-2.9,0.2-4.3c-1.4,0.4,0-3.4-0.3-4c0.3,0.1,0.5,0.1,0.7-0.1
							c-1.2-3.8,3.6-10.7,6.9-13.4c1-0.9,2.7-1.1,3.7-2.2c1-1.1,3.5-0.6,4.6-2.1c-0.5,0,2.9-0.4,3.4-0.2c-1,1.2,0.8-0.4,1.1,0.6
							c0.2-0.2,0.2-0.4,0-0.6c2.4,0.2,4.8,0,7.2,0.3c1.8,0.2,2.5,2.2,2.4,2.2c0,0,0.8,0.1,0.9-0.2c0.6,0,0.3,1.7,0.9,1.4
							c0.2-0.3,0.4-0.6,0.7-0.7c0.6,0.7,1.4,2,1.5,2.2c6.8-0.8,10.4,10.2,11,15.3c0.5,4.3-0.4,8.9-1.1,13.2c-0.3,2.2-1.6,9-3.1,9.5
							c1.6,0.4-0.2,6-0.5,7.1c-0.2-0.4-0.4-0.5-0.8-0.3c0.5,0.4,0.2,0.4,0.2,0.5c0.5,2,1.4-2.1,0.6,2.1c-0.4,2.1-1.1,4.1-2,6.1
							c-1.6,3.8-3.5,7.5-4.6,11.4c-2.2,1.8-2.8,4.7-4.7,6.7C-779.7,21.6-786.5,22.8-782.7,18.9"/>
						<path id="XMLID_34_" class="st6" d="M-790.3-49.2C-790.6-49-790.6-49.1-790.3-49.2"/>
					</g>
				</g>
			</g>
		</g>
		<path id="XMLID_27_" class="st7" d="M-1134.1,27.4h-7.3l-7-25.5h-36.9l-6.9,25.5h-7.5l19.2-71c2.2-8.5,6.8-12.7,13.6-12.7
			c6.8,0,11.4,4.2,13.6,12.7L-1134.1,27.4z M-1150.3-5.2l-9.7-36.4c-1.3-5-3.6-7.5-6.9-7.5c-3.1,0-5.4,2.5-6.8,7.5l-9.8,36.4
			H-1150.3z"/>
		<path id="XMLID_22_" class="st7" d="M-1048.5,23.6c-8.1,3.7-15,5.1-20.7,5.1c-20.6,0-25.6-15.3-25.2-30.1
			c0.6-22.4,9.8-30.5,24-30.5c13.8,0,22.7,6.7,22.7,23.1c0,10.1-6.9,10.1-9.7,10.1c-7.2,0-29.9,0-29.9,0c0,10.3,3.7,20.9,17.9,21.2
			c4.8,0.1,10.9-1,18.8-3.7L-1048.5,23.6z M-1054-9.6c0-11.5-6.6-16.2-16.4-16.2c-10.6,0-16.9,5.4-16.9,20.9c0,0,25.6,0,29.1,0
			C-1055.7-4.9-1054-5.7-1054-9.6z"/>
		<path id="XMLID_18_" class="st7" d="M-1028.1-30.7l15.3,22.5l15.4-22.5h7.8l-19,27.5l20.3,30.6h-7.7l-16.8-25.3l-16.8,25.3h-7.8
			l20.2-30.5l-18.7-27.6H-1028.1z"/>
		<path id="XMLID_15_" class="st7" d="M-972.9-53.9h6.9v8.7h-6.9V-53.9z M-972.9-30.7h6.9v58.1h-6.9V-30.7z"/>
		<path id="XMLID_12_" class="st7" d="M-904.8-20.8c0,9.7,0,38.6,0,38.6c0.3,3.5,3.7,4.7,7.6,5.1l-0.4,5.6c-5.7,0-10-1.2-13.1-4.7
			c0,0-10.9,4.8-21.9,4.8c-10.2,0-18.8-9.4-18.8-24.2c0-21.1,9.6-33.9,22.6-33.9c4.9,0,8.2,0,15.4,0
			C-909.4-29.5-904.8-27.6-904.8-20.8z M-915.7-23.1c-4.5,0-8.6,0-12.1,0c-10.6,0-16.5,10.4-16.5,26.8c0,14.2,6.2,19,12.6,19
			c9.4,0,20-4.1,20-4.1s0-28.8,0-37.9C-911.7-21.8-913.1-23.1-915.7-23.1z"/>
		<g id="XMLID_9_">
			<path id="XMLID_10_" class="st7" d="M-1112.2,16.3l0-72.9h-7.3v75.1c0,0,0.3,0,0,0c0,6.9,4.1,9.8,13.2,9.8l0.3-5.6
				C-1109.7,22.2-1112.2,21.4-1112.2,16.3z"/>
		</g>
	</g>
	<g id="XMLID_6_">
		<g id="XMLID_397_">
			<path id="XMLID_425_" class="st7" d="M-1187.1,81.8c0,0-4-0.6-6.4-0.6c-2.3,0-4.4,0.6-4.4,3.1c0,1.9,0.9,2.5,5,3.1
				c4.7,0.8,6.5,1.6,6.5,5.2c0,4.3-2.7,5.7-7.1,5.7c-2.3,0-6.3-0.7-6.3-0.7l0.1-2c0,0,4.1,0.6,6,0.6c3.2,0,5-0.7,5-3.6
				c0-2.2-1.1-2.7-5.3-3.3c-4.3-0.7-6.2-1.4-6.2-5c0-4,3.3-5.2,6.5-5.2c2.8,0,6.5,0.6,6.5,0.6L-1187.1,81.8z"/>
			<path id="XMLID_423_" class="st7" d="M-1154.1,79.5V98h-2.2v-1.4c0,0-2.8,1.7-5.7,1.7c-5.1,0-6.2-2.3-6.2-9.2v-9.7h2.2v9.6
				c0,5.5,0.6,7.3,4.3,7.3c2.9,0,5.4-1.6,5.4-1.6V79.5H-1154.1z"/>
			<path id="XMLID_420_" class="st7" d="M-1134.6,72.1h2.2v2.8h-2.2V72.1z M-1134.6,79.5h2.2V98h-2.2V79.5z"/>
			<path id="XMLID_418_" class="st7" d="M-1109.7,81.5v9.1c0,4.6,0.3,5.8,3,5.8c1,0,3.4-0.3,3.4-0.3l0.1,1.9c0,0-2.4,0.4-3.7,0.4
				c-3.7,0-5-1.4-5-6.7V81.5h-2.7v-2h2.7v-5.8h2.2v5.8h6.2v2H-1109.7z"/>
			<path id="XMLID_415_" class="st7" d="M-1072.8,96.1l0.1,1.8c0,0-4.2,0.5-7.1,0.5c-5.5,0-7.2-3.4-7.2-9.5c0-7.1,3.1-9.7,7.6-9.7
				c4.8,0,7.3,2.6,7.3,8.8l-0.1,1.8h-12.6c0,4.4,1.3,6.7,5.1,6.7C-1076.8,96.4-1072.8,96.1-1072.8,96.1z M-1074.2,87.9
				c0-5-1.6-6.8-5.1-6.8c-3.4,0-5.4,1.9-5.4,6.8H-1074.2z"/>
			<path id="XMLID_412_" class="st7" d="M-1005.8,96.1l0.1,1.8c0,0-4.2,0.5-7.1,0.5c-5.5,0-7.2-3.4-7.2-9.5c0-7.1,3.1-9.7,7.6-9.7
				c4.8,0,7.3,2.6,7.3,8.8l-0.1,1.8h-12.6c0,4.4,1.3,6.7,5.1,6.7C-1009.9,96.4-1005.8,96.1-1005.8,96.1z M-1007.3,87.9
				c0-5-1.6-6.8-5.1-6.8c-3.4,0-5.4,1.9-5.4,6.8H-1007.3z"/>
			<path id="XMLID_409_" class="st7" d="M-972.7,98h-2.2v-1.4c0,0-2.9,1.7-5.9,1.7c-3.1,0-6.5-1-6.5-9.4c0-6.5,2-9.8,7.8-9.8
				c1.6,0,4,0.4,4.7,0.5v-8.3h2.2V98z M-974.9,94.8V81.6c-0.7-0.1-3.1-0.4-4.6-0.4c-4.4,0-5.6,2.8-5.6,7.9c0,6.5,2.3,7.4,4.4,7.4
				C-977.8,96.4-974.9,94.8-974.9,94.8z"/>
			<path id="XMLID_407_" class="st7" d="M-939.4,79.5V98h-2.2v-1.4c0,0-2.8,1.7-5.7,1.7c-5.1,0-6.2-2.3-6.2-9.2v-9.7h2.2v9.6
				c0,5.5,0.6,7.3,4.3,7.3c2.9,0,5.4-1.6,5.4-1.6V79.5H-939.4z"/>
			<path id="XMLID_405_" class="st7" d="M-908.2,79.6l-0.1,1.9c0,0-2.9-0.4-4.3-0.4c-4.4,0-5.7,2-5.7,7.3c0,5.8,0.9,8,5.7,8
				c1.4,0,4.4-0.3,4.4-0.3l0.1,1.9c0,0-3.3,0.4-4.9,0.4c-6,0-7.6-2.7-7.6-10c0-6.8,2.1-9.3,7.7-9.3
				C-911.4,79.2-908.2,79.6-908.2,79.6z"/>
			<path id="XMLID_403_" class="st7" d="M-854.3,81.5v9.1c0,4.6,0.3,5.8,3,5.8c1,0,3.4-0.3,3.4-0.3l0.1,1.9c0,0-2.4,0.4-3.7,0.4
				c-3.7,0-5-1.4-5-6.7V81.5h-2.7v-2h2.7v-5.8h2.2v5.8h6.2v2H-854.3z"/>
			<path id="XMLID_400_" class="st7" d="M-830.7,72.1h2.2v2.8h-2.2V72.1z M-830.7,79.5h2.2V98h-2.2V79.5z"/>
			<path id="XMLID_398_" class="st7" d="M-808.4,79.5l4.6,16.6h1.5l4.8-16.6h2.3l-5.4,18.5h-4.8l-5.4-18.5H-808.4z"/>
		</g>
	</g>
	<path id="XMLID_2_" class="st7" d="M-877,82.1c0,3.2,0,12.8,0,12.8c0.1,1.2,1.2,1.5,2.5,1.7l-0.1,1.8c-1.9,0-3.3-0.4-4.3-1.5
		c0,0-3.6,1.6-7.2,1.6c-3.4,0-6.2-3.1-6.2-8c0-7,3.2-11.2,7.5-11.2c1.6,0,2.7,0,5.1,0C-878.5,79.2-877,79.8-877,82.1z M-880.6,81.3
		c-1.5,0-2.8,0-4,0c-3.5,0-5.5,3.4-5.5,8.9c0,4.7,2,6.3,4.2,6.3c3.1,0,6.6-1.3,6.6-1.3s0-9.5,0-12.5
		C-879.2,81.7-879.7,81.3-880.6,81.3z"/>
	<path id="XMLID_77_" class="st7" d="M-765,82.1c0,3.2,0,12.8,0,12.8c0.1,1.2,1.2,1.5,2.5,1.7l-0.1,1.8c-1.9,0-3.3-0.4-4.3-1.5
		c0,0-3.6,1.6-7.2,1.6c-3.4,0-6.2-3.1-6.2-8c0-7,3.2-11.2,7.5-11.2c1.6,0,2.7,0,5.1,0C-766.5,79.2-765,79.8-765,82.1z M-768.6,81.3
		c-1.5,0-2.8,0-4,0c-3.5,0-5.5,3.4-5.5,8.9c0,4.7,2,6.3,4.2,6.3c3.1,0,6.6-1.3,6.6-1.3s0-9.5,0-12.5
		C-767.3,81.7-767.8,81.3-768.6,81.3z"/>
</g>
<g id="XMLID_225_">
	<g id="XMLID_293_">
		<g id="XMLID_311_">
			<g id="XMLID_380_">
				<g id="XMLID_381_">
					<g id="XMLID_382_">
						<path id="XMLID_383_" class="st0" d="M97.1,30.6c0,0,0-0.2,0-0.2L97.1,30.6"/>
					</g>
				</g>
			</g>
			<g id="XMLID_364_">
				<g id="XMLID_365_">
					<g id="XMLID_367_">
						<path id="XMLID_368_" class="st1" d="M95.8,39.9C95.8,39.9,95.7,39.8,95.8,39.9 M107.2,38.5C107.2,38.5,107.2,38.5,107.2,38.5
							C107.2,38.5,107.2,38.5,107.2,38.5z M90.9,34.5C90.9,34.5,90.9,34.5,90.9,34.5C90.9,34.5,90.9,34.5,90.9,34.5 M96.5,30.4
							C96.4,30.4,96.4,30.4,96.5,30.4 M93.3,32.5C93.3,32.5,93.3,32.5,93.3,32.5 M107.1,38c0.1-0.1-0.6,0.5-0.7,0.4
							c0-0.1-0.1-0.2-0.1-0.3c0.1,0.4-0.2,0.2-0.2,0.2c-0.2-0.1,0.1,0.1,0,0.2c-0.1-0.1-0.2-0.2-0.2-0.4c-0.4,0.2-0.7,0.2-0.9,0.5
							c-0.1,0-0.2-0.4-0.2-0.4c0,0.2-0.3,0-0.1,0.2c-0.2,0-0.4,0-0.6,0c0.1-0.1,0.1-0.2,0-0.3c-0.1,0.2-0.2,0.3-0.4,0.3
							c0,0,0.2,0.5,0,0.4c0-0.1-0.3-0.6-0.1-0.6c0.1,0,0.3-0.6,0.5-0.3c0.1-0.2-0.1,0-0.1-0.3c-0.1,0-0.5,0.5-0.4,0.5
							c-0.2-0.1-0.1-0.2-0.1-0.3c-0.1,0-0.2,0-0.2,0.1c0-0.1,0.1-0.3,0.1-0.5c-0.2,0,0,0.3-0.2,0.2c0,0,0-0.1,0-0.1c0,0,0,0.5,0,0.5
							c-0.1,0-0.1,0-0.2,0c0,0.1,0.2,0.2-0.1,0.4c-0.1,0-0.1-0.7,0-0.8c-0.1-0.1-0.2,0.5-0.2,0.6c-0.1,0-0.1-0.5-0.2-0.4
							c0,0.1-0.1,1-0.3,0.9c0.1-0.4-0.1-0.6-0.2-1c0,0.1,0,0.2-0.1,0.3c0-0.1,0-0.2-0.1-0.2c0.1,0.1,0,0.3-0.1,0.4
							c-0.3,0-0.1-0.3-0.1-0.4c-0.1,0.2,0-0.1-0.1,0c0,0.1-0.1,0.3-0.1,0.4c-0.2,0.1,0-0.5-0.2-0.4c0,0.1,0,0.1,0,0.2
							c0-0.1,0-0.1,0-0.2c0,0.1-0.1,0.1-0.1,0.1c0,0,0-0.1,0-0.1c0,0.1-0.1,0.3-0.2,0.1c0,0.2,0.3,0.1,0,0.3c0-0.2-0.2,0.1-0.3-0.2
							c0,0.1,0,0.1,0,0.2c0-0.4-0.1,0.1-0.2,0c0-0.1,0-0.2,0-0.3c0.1,0.3-0.1,0.3-0.1,0.5c-0.1-0.1,0-0.4,0-0.5
							c0,0.1-0.2,0.1-0.3,0.4c-0.1-0.1-0.1-0.1-0.1-0.2c0,0-0.2,0.6-0.3,0.3c0-0.1,0.2-0.1,0.1-0.2c-0.2,0-0.3,0.8-0.4,0.9
							c-0.2-0.1,0.2-0.8,0.1-1c0,0-0.1,0.1-0.1,0.1c0-0.1,0-0.2,0-0.3c0,0.2-0.2,0-0.2,0.1c0,0,0,0.5-0.2,0.3c0-0.1,0-0.2,0-0.3
							c0,0,0,0.2-0.1,0.1c-0.1-0.3-0.9,0-1.1,0.2c-0.1-0.2-0.2-0.3-0.3-0.3c0,0.1,0,0.2-0.1,0.2c-0.1-0.3-0.2-0.3-0.4-0.1
							c0,0,0-0.2-0.1-0.2c0,0.1-0.1,0.1-0.1,0.2c0,0,0-0.1,0-0.1c0,0-0.3,0.4-0.2-0.1c-0.2,0.2-0.1-0.1-0.5,0c0.1,0.1,0,0.4,0,0.4
							c0-0.1,0-0.1-0.1,0c0.1-0.8-0.8-0.2-1.1-0.7c0,0.2-0.3,0.2-0.3,0.3c0.1-0.1,0.1-0.2,0.1-0.4c-0.2,0.2-0.6-0.4-0.6-0.3
							c0,0-0.1,0.1-0.1,0.1c-0.1-0.1,0-0.2,0.1-0.2c0-0.1-0.3,0.2-0.3,0c0.1-0.3,0,0,0.1,0c0,0,0.1-0.1,0.1-0.1c0,0.1-0.4,0-0.2-0.2
							c-0.3,0.1-0.1,0-0.3,0.2c-0.1-0.1-0.1-0.1,0-0.1c-0.1-0.1-0.1-0.1-0.2,0c0-0.1,0.1-0.1,0.1-0.2c-0.1,0-0.2,0-0.2-0.1
							c0.2,0,0.3-0.1,0.3-0.3c-0.1,0-0.1,0-0.2,0c0.1,0.1-0.3-0.4-0.4-0.3c0.1,0,0.2,0,0.2-0.2c-0.2,0.1,0,0.1-0.2,0.1
							c0.4-0.3,0-0.4,0.1-0.7c-0.3,0.1-0.1-0.3-0.1-0.3c-0.2,0-0.4,0.1-0.5-0.2c-0.1-0.2,0.4,0.1,0.4-0.1c0-0.1-0.2-0.2,0-0.3
							c-0.1,0-0.3,0-0.4-0.1c0.1-0.1,0.2-0.1,0.3-0.2c-0.1-0.1-0.1-0.2,0.1-0.1c0-0.1,0-0.2-0.1-0.3c0.6,0,0-0.8,0-0.8
							c0.2,0.1,0.3,0,0.4,0c-0.1,0-0.2-0.3-0.2-0.4c0-0.1,0.2,0.3,0.3,0.1c0-0.1,0-0.1-0.1-0.1c0,0,0.1-0.1,0.1,0
							c0.2,0,0.1-0.1,0.3,0c0-0.1,0-0.2-0.1-0.3c0.2-0.1,0.3-0.3,0.4-0.5c-0.1,0.1,0.2,0,0.3-0.1c-0.1-0.1,0.3-0.6,0.4-0.3
							c0.1-0.2,0.2-0.3,0.2-0.5c0,0.3,0.1,0.3,0.2,0c0.1-0.2-0.1-0.3,0.2-0.4c0,0,0.5,0.6,0.3,0.1c0.1,0,0.1,0.1,0.1,0.1
							c0-0.1,0.1-0.6,0.1-0.6c-0.1,0-0.2,0.2-0.2,0.2c-0.1,0,0.2-0.4-0.1-0.2c0-0.1,0.1-0.1,0.1-0.2c0,0-0.2,0.2-0.2,0.2
							c0,0,0.1-0.3-0.3,0c0.1-0.2-0.1-0.2-0.2-0.1c0-0.1,0-0.1,0-0.2c-0.1,0.1-0.2,0.2-0.3,0.4c0,0,0.1-0.4-0.1-0.2
							c0.1-0.1,0.1-0.3,0.2-0.4c-0.2,0.1-0.7,0.4-0.8,0.6c0.1-0.2-0.7,0-0.7,0.6c-0.1,0-0.4,0.1-0.6,0.2c0.2,0.2-0.4,0.9-0.4,0.9
							c0,0.4-0.3,0.4-0.6,0.6c-0.2,0.3-0.2,0.7-0.4,1c0.1,0,0.1,0,0.2,0c-0.3,0,0,0.5-0.2,0.2c-0.4,0.7-0.1,2,0.1,2.6
							c0.3,1,1.5,2.8,2.5,2.8c0,0.1,0,0.1,0,0.2c0.3,0,0.6,0.5,0.8,0.4c0,0,0.9,0.2,1.1,0.3c0-0.3,0.4-0.3,0.3,0c0.1,0,0.8,0,0.9,0
							c0.1,0.5,0.6-0.2,0.7-0.1c0,0.1,0,0.2-0.1,0.3c0.5-0.2,1,0.2,1.5-0.1c0,0.1,0,0.1,0,0.2c0.5-0.2,1,0.1,1.5-0.2
							c0.3,0.2,0.6,0.2,0.8-0.2c0.1,0,0.5,0.6,0.7,0.2c0,0,0,0.1,0,0.1c0.1-0.1,1-0.2,0.8-0.5c0.1,0,0.1,0.2,0.1,0.1
							c0,0.1,0,0.1-0.1,0.2c0.4,0,1.1-0.1,1.4-0.2c0.2,0,0.9,0,1-0.4c0.3,0.3,0.7,0,1-0.3c0,0,1-0.1,0.8-0.4c0.1,0,0.1,0.1,0.1,0.2
							C107.3,38.6,107.2,38.1,107.1,38 M94.5,31.5C94.5,31.5,94.5,31.5,94.5,31.5C94.5,31.5,94.5,31.5,94.5,31.5z M107.3,38
							C107.3,38,107.3,38,107.3,38C107.3,38,107.3,38,107.3,38z M102.6,38C102.6,38,102.7,38,102.6,38C102.7,38,102.6,38,102.6,38z
							 M104.8,38"/>
					</g>
				</g>
			</g>
			<g id="XMLID_361_">
				<g id="XMLID_362_">
					<path id="XMLID_363_" class="st2" d="M99.1,32.8c-0.1,0.1,0,0.4,0,0.2C99.1,32.7,99.1,32.6,99.1,32.8z"/>
				</g>
			</g>
			<g id="XMLID_357_">
				<g id="XMLID_358_">
					<g id="XMLID_359_">
						<path id="XMLID_360_" class="st3" d="M97.6,24.2C97.5,24.3,97.5,24.3,97.6,24.2"/>
					</g>
				</g>
			</g>
			<g id="XMLID_317_">
				<g id="XMLID_343_">
					<g id="XMLID_344_">
						<path id="XMLID_345_" class="st4" d="M105.3,23.3c0.1,0,0.1,0,0.2,0C105.5,23.2,105.2,23.2,105.3,23.3 M99.6,22.9
							C99.6,22.9,99.6,22.9,99.6,22.9 M106.1,36.5c-0.1,0-0.2-0.2-0.5-0.1c-0.1,0.2-0.3,0.4-0.2-0.1c0,0-0.1,0.1-0.1,0
							c0-0.1,0.1-0.2,0.1-0.3c-0.2,0.3-0.3,0.1-0.3,0c-0.1-0.2,0,0.2-0.1,0.1c0-0.1,0-0.3,0.1-0.4c-0.3-0.1-0.6-0.3-1-0.2
							c-0.1-0.1,0.1-0.4,0.1-0.5c-0.1,0.1-0.2-0.2-0.2,0.1c-0.1-0.2-0.3-0.3-0.5-0.4c0.1,0,0.2-0.1,0.2-0.2
							c-0.2,0.1-0.3,0.1-0.5-0.1c0,0-0.2,0.5-0.3,0.3c0.1-0.2,0.1-0.6,0.4-0.5c0,0,0.6-0.4,0.5,0c0.2-0.1-0.1-0.1,0.1-0.3
							c-0.1,0-0.7,0.1-0.7,0.1c0-0.2,0.1-0.2,0.2-0.3c-0.1-0.1-0.2-0.1-0.2-0.1c0.2-0.2,0.3,0.1,0.4-0.3c-0.1-0.1-0.2,0.2-0.3,0
							c0,0,0.1-0.1,0.1-0.1c-0.1,0.1-0.3,0.4-0.4,0.4c0-0.1-0.1-0.1-0.1-0.2c-0.1,0.1,0,0.3-0.3,0.2c0-0.1,0-0.2,0.1-0.3
							c0.1,0,0.1,0,0.1,0.1c0.1,0,0.4-0.4,0.3-0.4c-0.2,0-0.3,0.3-0.5,0.3c-0.1,0,0.2-0.4,0.1-0.5c-0.1,0.1-0.8,0.6-0.8,0.5
							c0.3-0.2,0.4-0.5,0.5-0.9c-0.1,0.1-0.2,0.1-0.2,0.1c0.1-0.1,0.1-0.1,0.1-0.2c0,0.1-0.1,0.2-0.3,0.2c-0.2-0.2,0.2-0.3,0.2-0.4
							c-0.2,0.1,0-0.1-0.1-0.1c-0.1,0.1-0.3,0.2-0.4,0.3c0,0-0.1-0.1-0.1-0.2c0,0,0.4-0.3,0.2-0.3c0,0-0.1,0.1-0.1,0.1
							c0,0,0.1-0.1,0.1-0.1c-0.1,0-0.1,0-0.2,0c0,0,0-0.1,0.1-0.1c-0.1,0-0.3,0.1-0.2-0.1c-0.1,0.2,0.2,0.2-0.2,0.3
							c0.2-0.2-0.2-0.1-0.1-0.4c-0.1,0-0.1,0.1-0.2,0.1c0.3-0.3-0.2,0-0.1-0.2c0.1,0,0.2-0.1,0.2-0.2c-0.1,0.3-0.3,0.2-0.5,0.3
							c0-0.2,0.3-0.3,0.4-0.4c-0.1,0.1-0.2,0-0.5,0.1c0-0.1,0-0.2,0.1-0.2c0,0-0.6,0.4-0.5,0c0.1-0.1,0.2,0.1,0.2-0.1
							c-0.2-0.2-0.8,0.4-1,0.4c-0.1-0.2,0.7-0.4,0.8-0.7c0,0-0.1,0-0.1,0c0.1-0.1,0.2-0.1,0.2-0.2c-0.2,0.1-0.2-0.1-0.2-0.1
							c0,0-0.4,0.3-0.4,0.1c0.1-0.1,0.2-0.1,0.3-0.2c0-0.1-0.2,0.1-0.2,0c0.2-0.4-0.6-0.6-1-0.6c0.1-0.2,0.1-0.3,0-0.5
							c0,0.1-0.1,0.1-0.2,0.1c0.2-0.3,0-0.3-0.3-0.3c0.1,0,0.1-0.1,0.1-0.2c-0.1,0-0.1,0-0.2,0.1c0,0,0-0.1,0.1-0.1
							c-0.1,0-0.5,0.1-0.1-0.2c-0.3,0,0-0.2-0.4-0.3c-0.1,0.1-0.2,0.2-0.3,0.3c0,0,0-0.1,0-0.1c0.3-0.2,0.2-0.9-0.2-0.8
							c0.2-0.2-0.2-0.3-0.1-0.5c-0.2,0.1-0.4,0-0.4,0c0.1,0,0.3-0.1,0.4-0.2c-0.4-0.1,0-0.4-0.1-0.5c-0.1,0-0.3-0.1-0.2-0.2
							c-0.1,0-0.1,0-0.2,0c0.1-0.1,0.1-0.1,0.3-0.1c0.1-0.1-0.4-0.1-0.3-0.2c0.3-0.1,0.1,0,0.1,0c0.1,0,0.1,0,0.1,0
							c0,0.1-0.4-0.3,0-0.2c-0.3-0.1-0.1,0-0.3,0c-0.1-0.1,0-0.1,0.1-0.1c0-0.1,0-0.1-0.1-0.1c0.1,0,0.2,0,0.2-0.1
							c-0.1,0-0.1-0.1-0.1-0.2c0.1,0.1,0.3,0.1,0.4,0c0,0-0.1-0.1-0.1-0.1c0,0.1,0.1-0.5-0.1-0.5c0.1,0.1,0.2,0.1,0.3,0
							c-0.4-0.2,0.1,0-0.1,0c-0.1,0-0.1-0.1-0.1-0.1c0.4,0,0.3-0.3,0.6-0.4c-0.3-0.2,0-0.1-0.1-0.2c0.2,0.2,0-0.1,0.2-0.1
							c-0.1-0.1-0.3-0.2-0.2-0.4c0.1-0.2,0.3,0.4,0.4,0.2c0.1-0.1,0-0.3,0.2-0.2c-0.1-0.1-0.2-0.2-0.2-0.3c0.2,0.1,0.5,0,0.5,0.1
							c0.1-0.1,0.2-0.2,0.1-0.3c0.5,0.4,0.5-0.5,0.5-0.6c0.1,0.2,0.3,0.2,0.3,0.3c0-0.1,0.1-0.4,0.2-0.4c0.1-0.1,0,0.4,0.2,0.2
							c0.1,0,0.1-0.1,0.1-0.1c0,0.1,0.2,0,0,0.1c0.1,0.1,0.1,0,0.2,0.2c0.1-0.1,0.1-0.2,0.1-0.3c0.2,0.1,0.4,0,0.6-0.1
							c0.1-0.1,0.1,0.1,0.3,0.1c0,0,0-0.1,0-0.1c0.1,0.2,0.7-0.2,0.5,0.2c0.2,0,0.3-0.1,0.5-0.2c-0.2,0.3,0.1,0.2,0.2,0.1
							c0-0.1,0,0.1-0.1,0.1c-0.1-0.4,0.9,0.1,1.1,0c0,0-0.2-0.1-0.2-0.1c0.2,0-0.2,0,0.3,0c0,0,0,0-0.2,0c0.4,0-0.2,0-0.2-0.1
							c0.1,0,0.1-0.1,0.3-0.1c-0.1,0-0.2,0-0.2-0.1c0.1,0,0.4,0,0.1,0c0.2,0,0.3-0.1,0.5-0.1c-0.3,0-0.1-0.1,0-0.1
							c0,0-0.5-0.1-0.5-0.2c0-0.1,0.1-0.1,0.2-0.1c-0.1,0-0.4,0.1-0.2,0c-0.1,0-0.1,0-0.2,0c0.1,0,0.1-0.1,0.5-0.1
							c0.2-0.1-0.7,0.1-0.6,0.1c0.2,0,0.2-0.1,0.2-0.1c-0.1,0-0.2,0-0.3,0.1c0.1-0.1,0-0.2,0.2-0.3c0,0-0.2-0.2-0.1-0.1
							c-0.2-0.1-1-0.2-0.7-0.5c-0.1,0-0.4,0.1-0.4,0c0.1-0.1,0.1-0.1,0,0c0.2-0.1-0.8,0.3-0.9,0.3c-0.9-0.5-2.3,0.2-3.4,0.7
							c0.1,0,0.1,0.1,0.1,0.1c-0.2-0.2-0.3,0.4-0.3,0c-0.7,0.2-1.5,1.3-1.7,1.8c-0.4,0.9-1,3.2-0.2,4c0,0.1-0.1,0.1-0.2,0.1
							c0.1,0.1,0.2,1.1,0.5,0.8c-0.1,0.4,0.4,0.6,0.5,1c0.2-0.3,0.5,0.1,0.3,0.2c0.2,0.1,0.3,0.3,0.3,0.5c0.1,0,0.2,0,0.3,0.1
							c-0.3,0.4,0.6,0.3,0.6,0.4c-0.1,0.1-0.2,0.1-0.3,0.2c0.5,0.2,0.6,0.9,1.2,1c0,0-0.1,0.1-0.1,0.1c0.4,0.2,0.6,0.6,1,0.8
							c0.4,0.2,0.5,0.7,1.1,0.5c0.1,0.1-0.1,0.8,0.4,0.7c0,0-0.1,0.1-0.1,0.1c0.2,0,0.9,0.5,1,0.1c0.1,0-0.1,0.2,0,0.2
							c-0.1,0-0.1,0.1-0.2,0.1c0.3,0.3,0.9,0.6,1.2,0.9c0.2,0.2,0.7,0.6,1,0.4c0,0.5,0.5,0.5,0.9,0.5c0,0,0,0.1-0.1,0.1
							c0.2-0.1,0.3-0.2,0.4-0.3c0,0.1,0.1,0.1,0.2,0.2c-0.2,0.1-0.3,0.2-0.4,0.3c0.1,0.1,0.7,0.1,0.8-0.1c0,0.1,0,0.1,0,0.2
							c0.3,0,0.4-0.1,0.2-0.1c0.1-0.1,0.2-0.1,0.2,0C106.6,36.2,106.1,36.9,106.1,36.5 M99.7,22.7C99.7,22.7,99.7,22.7,99.7,22.7
							C99.7,22.7,99.7,22.7,99.7,22.7z M106.3,36.6C106.2,36.6,106.2,36.6,106.3,36.6C106.2,36.6,106.2,36.6,106.3,36.6z M96.3,22.7
							C96.3,22.6,96.3,22.6,96.3,22.7C96.3,22.6,96.3,22.6,96.3,22.7 M105.9,36.9C105.9,36.9,105.8,37,105.9,36.9
							C105.8,37,105.9,37,105.9,36.9z M96.1,30.1C96.1,30.1,96.1,29.9,96.1,30.1 M102.7,33.4C102.7,33.4,102.7,33.4,102.7,33.4
							C102.7,33.4,102.7,33.4,102.7,33.4z M101.2,22.9L101.2,22.9C101.2,22.9,101.2,22.9,101.2,22.9z"/>
					</g>
				</g>
			</g>
			<g id="XMLID_312_">
				<g id="XMLID_313_">
					<g id="XMLID_314_">
						<path id="XMLID_316_" class="st5" d="M109.8,37.4c0.1-0.4,0.9-1.6,1-1.6c-0.3,0,0.4-1.8,0.7-1.9c0-0.2,0-0.3,0-0.4
							c0,0,0.1,0.1,0.1,0.1c-0.1-0.1-0.1-0.2-0.1-0.3c0.1,0,0.2,0,0.3,0c-0.5-0.3,0-0.6-0.1-1c0.2,0.1,0.1-0.4,0.2-0.6
							c0.2-0.5,0.2-0.8,0.6-0.9c-0.5-0.2,0-0.9-0.2-1.1c0.1,0,0.1,0,0.2,0c-0.1-0.1,0.3-0.8,0-0.8c0.2,0,0.1,0.2,0.3,0.2
							c-0.1-0.4,0-0.8,0-1.2c0.1-0.3,0.4-0.9,0.3-1.1c0-0.3-0.1-0.4,0.2-0.4c-0.2-0.2-0.2-0.4,0-0.4c-0.2-0.2,0.1-0.3,0-0.4
							c0,0,0.1,0,0.1,0.1c0.1-0.1-0.4-0.3,0-0.2c-0.3-0.3-0.1-0.6-0.1-0.9c-0.1-0.2-0.1-0.3,0.1-0.3c0.1,0,0.2,0,0.2-0.1
							c-0.3,0-0.1-0.3-0.4-0.2c0.1-0.2,0.1-0.3,0-0.5c0.1,0.1,0.6,0,0.6,0c-0.1-0.5-0.5-0.3-0.7-0.7c0.1,0,0.2,0,0.3-0.1
							c-0.2,0-0.4-0.1-0.6-0.1c0.1,0,0.1-0.1,0.1-0.1c-0.5,0.2,0-0.4,0-0.4c-0.1-0.1-0.3-0.4-0.5-0.2c0,0.1,0.1-0.1,0.1,0
							c-0.2,0-0.5-0.1-0.1-0.2c-0.2,0-0.4-0.1-0.6-0.2c0,0,0.2,0,0.2,0c0-0.3-0.5-0.1-0.4-0.4c0,0,0,0.1-0.1,0.1
							c-0.1-0.1-0.2-0.3-0.1-0.3c-0.2,0-0.3,0-0.5-0.1c-0.4-0.2-0.1,0.1-0.4,0c0,0.1,0-0.4,0-0.3c-0.1,0.1,0.4,0,0.3,0.1
							c0,0-0.4,0.1-0.5-0.1c0.1-0.1,0.1-0.1,0.1-0.2c-0.1,0-0.4,0.2-0.4,0.2c0-0.1-0.2-0.2-0.1-0.4c-0.3,0-0.1,0.4-0.3,0.3
							c-0.1,0-0.7,0.1-0.7,0c0.1-0.1-0.2-0.2-0.4-0.3c0,0.1,0,0.3,0,0.4c-0.1-0.2-0.2,0-0.3,0.1c-0.2,0.1,0-0.5-0.2-0.4
							c-0.2,0.1-0.1,0.3,0,0.5c0,0-0.4,0-0.3,0.2c-0.3-0.1-0.4,0.4-0.8,0.1c0,0.1,0,0.1,0,0.2c0.2,0.1-0.1-0.3,0.1,0
							c-0.1,0-0.2,0-0.2-0.2c0.1,0-0.2,0.6-0.2,0.5c0,0.1,0,0.1,0.1,0.2c-0.2,0-0.3-0.1-0.4-0.2c-0.1,0.1-0.1,0.2,0,0.2
							c-0.1,0-0.2,0-0.2,0c0.1,0,0.1,0.1,0.1,0.2c-0.1,0-0.1-0.1-0.1,0.1c0.3,0.1,0.1-0.1,0.3,0.2c-0.3-0.2-0.2,0.3-0.1,0.2
							c-0.1,0-0.1,0-0.2,0c0-0.1,0.3-0.1-0.1-0.1c-0.1,0,0.2,0.2,0.1,0.3c-0.1-0.1-0.2-0.2-0.3-0.1c0,0,0.1,0,0.1,0.1
							c0.2,0-0.3,0.6,0,0.8c-0.1,0-0.3,0-0.4,0c0,0,0.2,0.3,0.4,0.2c-0.3,0.4,0.5,1.4-0.3,1.5c0.1,0,0.1,0.1,0,0.1
							c0,0.1,0.3,0,0.4-0.1c0.1,0.2,0.1,0.4,0,0.6c0.1,0,0.1,0,0.2,0c-0.5,0,0,0.2,0,0.2c0,0-0.1,0.1-0.1,0.1c0.1,0,0.1,0,0.2,0
							c0.1,0.1-0.2,0.1-0.2,0.1c0.2,0.2,0.3,0.3,0,0.5c0.1,0.1,0.1,0.1,0.2,0c0,0.2-0.1,0.3-0.3,0.4c0.3,0.2,0.8,0.9,0.5,1.1
							c-0.1,0.1,0.2,0,0.1,0.1c-0.1,0-0.2,0.1-0.3,0.1c-0.1,0.3,0.4,0.2,0.3,0.2c0.1,0-0.1,0.2,0.1,0.2c-0.1,0-0.2,0.1-0.3,0
							c0,0,0.1,0,0.1,0.1c-0.2,0.1-1-0.1-1,0.1c0.1,0.1,1-0.1,1,0.2c-0.1,0.1-0.1-0.1-0.2-0.1c-0.3,0.2,0.4,0.2,0.4,0.2
							c-0.1,0-0.1,0.1-0.2,0.1c0.3,0,0.3,0.2,0.5,0.2c-0.1,0.1-0.5-0.1-0.5,0.1c0.2-0.1,0.3,0.1,0.5,0c-0.1,0.1-0.2,0.1-0.3,0.1
							c-0.1,0.1,0.4,0.1,0,0.3c0.1,0,0.1,0,0.2,0c-0.3,0.2,0,0.4-0.2,0.4c0.3,0.2,0.1,0,0.3-0.1c-0.2,0.1,0.1,0.2,0.1,0.2
							c0,0-0.1,0-0.1,0c0.2,0.1,0.1,0.1,0,0.2c0.1,0,0.1,0,0.2,0c0.2,0.2-0.3,0.2-0.3,0.2c0,0,0,0.1,0,0.2c0.2,0,0.3,0,0.5,0
							c0.1,0.1-0.2,0.1,0,0.1c-0.1,0-0.5-0.1-0.4,0.2c0.1,0.1,0.2,0.1,0.4,0c0,0.1-0.1,0.1-0.2,0.1c0.1,0,0.2,0,0.3,0
							c-0.3,0.3-0.5,0.5-0.9,0.5c0,0.2,0.8,0.1,0.9,0.1c0.1,0.2-0.4,0.3-0.3,0.4c0.1,0.1,0.5,0,0.4-0.1c0,0.1,0.3,0,0.2,0.2
							c-0.2-0.1-0.3,0.2-0.5,0.1c0.1,0,0.1-0.1,0-0.1c-0.1,0-0.2,0.1-0.3,0.2c0.2,0.3,0.2,0,0.4,0c0.3,0.3,0.1,0,0.5,0.1
							c0,0-0.1,0-0.1,0c0,0.2,0.2,0,0.2,0.2c-0.3,0.3-0.2-0.1-0.5,0c0.1,0.1,0.1,0.1,0.1,0.2c-0.1,0-0.2-0.1-0.3,0.1
							c0.1-0.2,1,0.6,0.4,0.5c0.3-0.3-0.4-0.3-0.4-0.3c-0.1-0.3-0.3,0.1-0.6,0.2c0,0.2,0.4-0.1,0.4-0.1c0,0.2,0.2,0.3,0.4,0.3
							c-0.1,0.1-0.2,0.1-0.3,0.1c0.2,0.3,0.2,0.4,0.3,0.5c0.3,0.2,0.2-0.2,0.5-0.2c0,0-0.4,0.3-0.1,0.3c-0.2-0.1-0.7,0.2-0.6,0.3
							c0.4,0.2,0.3,0.3,0.4,0.5c0.1,0.1,0.2,0.2,0.3,0.3c-0.1,0.1-0.2,0.2-0.3,0.3c0.1,0.1,0.2-0.2,0.2,0c0,0.1,0,0.4,0.3,0.2
							c-0.1,0-0.2,0.1-0.3,0.1c0,0.2-0.1,0.1,0.1,0.4c0-0.1,0.1-0.1,0.1-0.2c0.3,0.1,0.3,0.2,0.2,0.4c0,0,0.1,0,0.1,0
							c-0.1,0.1-0.1,0.2,0,0.2c-0.1,0.1-0.3,0.1-0.5,0.1c0.1-0.1,0.2-0.2,0.2-0.2c0.1-0.3-0.6,0.3-0.3,0.1c-0.1,0-0.2-0.1-0.3-0.1
							c0.1,0,0.1-0.1,0.1-0.1c-0.1,0.1-0.6-0.3-0.7-0.5c0.2,0,0.3,0,0.5,0c0-0.1,0-0.2,0-0.2c-0.2,0.1-0.3,0.1-0.5,0
							c0,0,0.1-0.1,0.1-0.1c-0.3-0.2-0.7-0.6-0.5-1c-0.4,0-0.5-0.7-0.6-0.9c-0.1-0.4-0.4-1-0.5-1.5c0.1,0,0.1,0,0.2,0
							c-0.2,0,0.1-0.1,0-0.2c-0.3,0.3-0.6-0.6-0.7-0.7c0,0,0.1,0,0.1,0c-0.5-0.2,0.1-0.7,0-0.8c-0.5-0.1-1.1-2.2-0.9-2.5
							c-0.4-0.5-0.2-1.1-0.5-1.6c0.1,0,0.2,0,0.3,0c0.1-0.2-0.4-0.3-0.4-0.6c0-0.3,0-0.7-0.2-1.1c0.3,0,0.1-0.3-0.1-0.2
							c0.2-0.4-0.2-0.7,0-1.1c-0.3,0.1,0-0.8-0.1-1c0.1,0,0.1,0,0.2,0c-0.3-1,0.9-2.7,1.7-3.3c0.3-0.2,0.7-0.3,0.9-0.5
							c0.2-0.3,0.9-0.1,1.2-0.5c-0.1,0,0.7-0.1,0.8-0.1c-0.3,0.3,0.2-0.1,0.3,0.1c0.1-0.1,0.1-0.1,0-0.2c0.6,0.1,1.2,0,1.8,0.1
							c0.4,0.1,0.6,0.6,0.6,0.6c0,0,0.2,0,0.2,0c0.2,0,0.1,0.4,0.2,0.3c0-0.1,0.1-0.1,0.2-0.2c0.1,0.2,0.3,0.5,0.4,0.6
							c1.7-0.2,2.6,2.5,2.7,3.8c0.1,1.1-0.1,2.2-0.3,3.3c-0.1,0.5-0.4,2.2-0.8,2.4c0.4,0.1,0,1.5-0.1,1.8c0-0.1-0.1-0.1-0.2-0.1
							c0.1,0.1,0.1,0.1,0.1,0.1c0.1,0.5,0.3-0.5,0.1,0.5c-0.1,0.5-0.3,1-0.5,1.5c-0.4,0.9-0.9,1.9-1.1,2.8c-0.5,0.5-0.7,1.2-1.2,1.7
							C110.5,38,108.8,38.3,109.8,37.4"/>
						<path id="XMLID_315_" class="st6" d="M107.9,20.5C107.8,20.5,107.8,20.5,107.9,20.5"/>
					</g>
				</g>
			</g>
		</g>
		<path id="XMLID_308_" class="st7" d="M22.5,39.5h-1.8L19,33.2H9.8l-1.7,6.3H6.2L11,21.8c0.6-2.1,1.7-3.1,3.4-3.1
			c1.7,0,2.8,1,3.4,3.1L22.5,39.5z M18.5,31.4l-2.4-9c-0.3-1.2-0.9-1.9-1.7-1.9c-0.8,0-1.3,0.6-1.7,1.9l-2.4,9H18.5z"/>
		<path id="XMLID_305_" class="st7" d="M43.8,38.5c-2,0.9-3.7,1.3-5.1,1.3c-5.1,0-6.3-3.8-6.3-7.5c0.1-5.6,2.4-7.6,5.9-7.6
			c3.4,0,5.6,1.7,5.6,5.7c0,2.5-1.7,2.5-2.4,2.5c-1.8,0-7.4,0-7.4,0c0,2.5,0.9,5.2,4.4,5.3c1.2,0,2.7-0.3,4.7-0.9L43.8,38.5z
			 M42.4,30.3c0-2.9-1.7-4-4.1-4c-2.6,0-4.2,1.4-4.2,5.2c0,0,6.4,0,7.2,0C42,31.4,42.4,31.2,42.4,30.3z"/>
		<path id="XMLID_303_" class="st7" d="M48.8,25l3.8,5.6l3.8-5.6h1.9l-4.7,6.8l5,7.6h-1.9l-4.2-6.3l-4.2,6.3h-1.9l5-7.6L46.9,25
			H48.8z"/>
		<path id="XMLID_300_" class="st7" d="M62.6,19.3h1.7v2.2h-1.7V19.3z M62.6,25h1.7v14.4h-1.7V25z"/>
		<path id="XMLID_297_" class="st7" d="M79.5,27.5c0,2.4,0,9.6,0,9.6c0.1,0.9,0.9,1.2,1.9,1.3l-0.1,1.4c-1.4,0-2.5-0.3-3.3-1.2
			c0,0-2.7,1.2-5.4,1.2c-2.5,0-4.7-2.3-4.7-6c0-5.2,2.4-8.4,5.6-8.4c1.2,0,2,0,3.8,0C78.3,25.3,79.5,25.8,79.5,27.5z M76.8,26.9
			c-1.1,0-2.1,0-3,0c-2.6,0-4.1,2.6-4.1,6.7c0,3.5,1.5,4.7,3.1,4.7c2.3,0,5-1,5-1s0-7.2,0-9.4C77.8,27.2,77.4,26.9,76.8,26.9z"/>
		<g id="XMLID_294_">
			<path id="XMLID_295_" class="st7" d="M28,36.7l0-18.1h-1.8v18.6c0,0,0.1,0,0,0c0,1.7,1,2.4,3.3,2.4l0.1-1.4
				C28.6,38.2,28,38,28,36.7z"/>
		</g>
	</g>
	<g id="XMLID_232_">
		<g id="XMLID_608_">
			<path id="XMLID_636_" class="st7" d="M9.4,53c0,0-1-0.1-1.6-0.1c-0.6,0-1.1,0.2-1.1,0.8c0,0.5,0.2,0.6,1.2,0.8
				c1.2,0.2,1.6,0.4,1.6,1.3c0,1.1-0.7,1.4-1.8,1.4c-0.6,0-1.6-0.2-1.6-0.2l0-0.5c0,0,1,0.2,1.5,0.2c0.8,0,1.2-0.2,1.2-0.9
				c0-0.6-0.3-0.7-1.3-0.8c-1.1-0.2-1.5-0.4-1.5-1.3c0-1,0.8-1.3,1.6-1.3c0.7,0,1.6,0.2,1.6,0.2L9.4,53z"/>
			<path id="XMLID_634_" class="st7" d="M17.6,52.4V57H17v-0.3c0,0-0.7,0.4-1.4,0.4c-1.3,0-1.5-0.6-1.5-2.3v-2.4h0.5v2.4
				c0,1.4,0.1,1.8,1.1,1.8c0.7,0,1.4-0.4,1.4-0.4v-3.8H17.6z"/>
			<path id="XMLID_631_" class="st7" d="M22.4,50.6h0.5v0.7h-0.5V50.6z M22.4,52.4h0.5V57h-0.5V52.4z"/>
			<path id="XMLID_629_" class="st7" d="M28.6,52.9v2.3c0,1.1,0.1,1.4,0.7,1.4c0.3,0,0.8-0.1,0.8-0.1l0,0.5c0,0-0.6,0.1-0.9,0.1
				c-0.9,0-1.2-0.3-1.2-1.7v-2.5h-0.7v-0.5H28V51h0.6v1.4h1.5v0.5H28.6z"/>
			<path id="XMLID_626_" class="st7" d="M37.8,56.5l0,0.5c0,0-1,0.1-1.8,0.1c-1.4,0-1.8-0.8-1.8-2.4c0-1.8,0.8-2.4,1.9-2.4
				c1.2,0,1.8,0.6,1.8,2.2l0,0.4h-3.1c0,1.1,0.3,1.7,1.3,1.7C36.7,56.6,37.8,56.5,37.8,56.5z M37.4,54.5c0-1.2-0.4-1.7-1.3-1.7
				c-0.8,0-1.3,0.5-1.3,1.7H37.4z"/>
			<path id="XMLID_623_" class="st7" d="M54.4,56.5l0,0.5c0,0-1,0.1-1.8,0.1c-1.4,0-1.8-0.8-1.8-2.4c0-1.8,0.8-2.4,1.9-2.4
				c1.2,0,1.8,0.6,1.8,2.2l0,0.4h-3.1c0,1.1,0.3,1.7,1.3,1.7C53.4,56.6,54.4,56.5,54.4,56.5z M54,54.5c0-1.2-0.4-1.7-1.3-1.7
				c-0.8,0-1.3,0.5-1.3,1.7H54z"/>
			<path id="XMLID_620_" class="st7" d="M62.6,57h-0.6v-0.3c0,0-0.7,0.4-1.5,0.4c-0.8,0-1.6-0.3-1.6-2.3c0-1.6,0.5-2.4,1.9-2.4
				c0.4,0,1,0.1,1.2,0.1v-2.1h0.6V57z M62.1,56.2v-3.3c-0.2,0-0.8-0.1-1.1-0.1c-1.1,0-1.4,0.7-1.4,2c0,1.6,0.6,1.8,1.1,1.8
				C61.3,56.6,62.1,56.2,62.1,56.2z"/>
			<path id="XMLID_618_" class="st7" d="M70.9,52.4V57h-0.5v-0.3c0,0-0.7,0.4-1.4,0.4c-1.3,0-1.5-0.6-1.5-2.3v-2.4h0.5v2.4
				c0,1.4,0.1,1.8,1.1,1.8c0.7,0,1.4-0.4,1.4-0.4v-3.8H70.9z"/>
			<path id="XMLID_616_" class="st7" d="M78.6,52.4l0,0.5c0,0-0.7-0.1-1.1-0.1c-1.1,0-1.4,0.5-1.4,1.8c0,1.4,0.2,2,1.4,2
				c0.3,0,1.1-0.1,1.1-0.1l0,0.5c0,0-0.8,0.1-1.2,0.1c-1.5,0-1.9-0.7-1.9-2.5c0-1.7,0.5-2.3,1.9-2.3C77.8,52.3,78.6,52.4,78.6,52.4z
				"/>
			<path id="XMLID_614_" class="st7" d="M92,52.9v2.3c0,1.1,0.1,1.4,0.7,1.4c0.3,0,0.8-0.1,0.8-0.1l0,0.5c0,0-0.6,0.1-0.9,0.1
				c-0.9,0-1.2-0.3-1.2-1.7v-2.5h-0.7v-0.5h0.7V51H92v1.4h1.5v0.5H92z"/>
			<path id="XMLID_611_" class="st7" d="M97.9,50.6h0.5v0.7h-0.5V50.6z M97.9,52.4h0.5V57h-0.5V52.4z"/>
			<path id="XMLID_609_" class="st7" d="M103.4,52.4l1.1,4.1h0.4l1.2-4.1h0.6l-1.3,4.6h-1.2l-1.3-4.6H103.4z"/>
		</g>
	</g>
	<path id="XMLID_229_" class="st7" d="M86.4,53c0,0.8,0,3.2,0,3.2c0,0.3,0.3,0.4,0.6,0.4l0,0.5c-0.5,0-0.8-0.1-1.1-0.4
		c0,0-0.9,0.4-1.8,0.4c-0.8,0-1.5-0.8-1.5-2c0-1.7,0.8-2.8,1.9-2.8c0.4,0,0.7,0,1.3,0C86,52.3,86.4,52.5,86.4,53z M85.5,52.9
		c-0.4,0-0.7,0-1,0c-0.9,0-1.4,0.9-1.4,2.2c0,1.2,0.5,1.6,1,1.6c0.8,0,1.6-0.3,1.6-0.3s0-2.4,0-3.1C85.8,53,85.7,52.9,85.5,52.9z"/>
	<path id="XMLID_226_" class="st7" d="M114.2,53c0,0.8,0,3.2,0,3.2c0,0.3,0.3,0.4,0.6,0.4l0,0.5c-0.5,0-0.8-0.1-1.1-0.4
		c0,0-0.9,0.4-1.8,0.4c-0.8,0-1.5-0.8-1.5-2c0-1.7,0.8-2.8,1.9-2.8c0.4,0,0.7,0,1.3,0C113.8,52.3,114.2,52.5,114.2,53z M113.3,52.9
		c-0.4,0-0.7,0-1,0c-0.9,0-1.4,0.9-1.4,2.2c0,1.2,0.5,1.6,1,1.6c0.8,0,1.6-0.3,1.6-0.3s0-2.4,0-3.1C113.6,53,113.5,52.9,113.3,52.9z
		"/>
</g>
<g id="XMLID_21_">
	<g id="XMLID_89_">
		<g id="XMLID_113_">
			<g id="XMLID_156_">
				<g id="XMLID_157_">
					<g id="XMLID_158_">
						<path id="XMLID_159_" class="st0" d="M-833.8-825.4c0-0.1,0-0.6,0.1-0.8L-833.8-825.4"/>
					</g>
				</g>
			</g>
			<g id="XMLID_141_">
				<g id="XMLID_142_">
					<g id="XMLID_143_">
						<path id="XMLID_144_" class="st1" d="M-839.2-787.8C-839.1-787.9-839.6-788.2-839.2-787.8 M-793-793.5c0,0.1,0,0.1,0,0.2
							C-793-793.4-793-793.4-793-793.5z M-858.8-809.4c0.1-0.1,0-0.2-0.1-0.3C-858.9-809.5-858.9-809.5-858.8-809.4 M-836.4-826.1
							C-836.5-826.1-836.5-826-836.4-826.1 M-849-817.5C-849-817.5-849-817.5-849-817.5 M-793.6-795.6c0.2-0.2-2.4,1.9-2.7,1.8
							c-0.1-0.4-0.2-0.7-0.3-1.1c0.5,1.4-0.6,0.9-0.8,1c-0.7-0.2,0.3,0.5-0.1,0.7c-0.4-0.4-0.7-0.9-0.9-1.4c-1.4,0.6-2.6,0.6-3.6,2
							c-0.4,0.1-0.8-1.6-0.8-1.7c0,0.7-1-0.1-0.4,1c-0.8-0.1-1.6-0.1-2.3,0.2c0.2-0.4,0.2-0.7,0-1.1c-0.3,0.7-0.8,1.1-1.5,1
							c0,0.1,0.6,2-0.1,1.8c-0.1-0.3-1-2.3-0.5-2.4c0.3-0.1,1.2-2.3,1.8-1c0.4-1-0.4-0.1-0.4-1c-0.5,0.1-1.8,2.1-1.8,2.1
							c-0.7-0.5-0.3-0.9-0.2-1.3c-0.4,0-0.7,0.1-1,0.3c-0.1-0.5,0.4-1.2,0.4-1.9c-0.7-0.1-0.1,1.1-0.8,0.8c0-0.2,0-0.3,0.1-0.5
							c0,0.1-0.1,2.1-0.1,2.1c-0.2-0.1-0.5-0.2-0.7-0.2c-0.1,0.5,0.8,1-0.3,1.5c-0.5,0-0.3-2.7,0-3.1c-0.6-0.5-0.7,2.2-0.9,2.3
							c-0.4,0.2-0.3-2-1-1.7c0.1,0.4-0.6,3.9-1,3.5c0.4-1.6-0.3-2.6-0.9-4.1c-0.1,0.4-0.2,0.7-0.3,1c0.1-0.4,0-0.7-0.3-0.8
							c0.3,0.5,0.2,1-0.3,1.4c-1.2,0-0.4-1.4-0.3-1.7c-0.3,0.7-0.1-0.3-0.4-0.1c-0.1,0.6-0.3,1.2-0.4,1.8c-0.6,0.5-0.1-2.2-0.8-1.8
							c-0.1,0.2-0.1,0.4-0.2,0.7c0-0.2,0-0.4,0-0.7c-0.1,0.3-0.3,0.5-0.6,0.5c0-0.1,0-0.3,0-0.4c-0.2,0.2-0.6,1.3-0.8,0.4
							c0.2,0.9,1.1,0.2,0.2,1.3c0-0.9-0.8,0.3-1.3-1c0,0.2-0.1,0.5-0.1,0.7c-0.1-1.7-0.5,0.4-0.9-0.1c0.2-0.4,0.2-0.8,0-1.2
							c0.3,1.1-0.6,1.3-0.5,2.1c-0.6-0.4,0.2-1.6,0.1-2.1c-0.2,0.5-0.8,0.5-1.1,1.7c-0.2-0.3-0.3-0.5-0.2-0.9c0,0-0.7,2.6-1.3,1.4
							c-0.1-0.6,0.7-0.3,0.5-0.8c-0.9-0.1-1.2,3.4-1.6,3.8c-0.9-0.4,0.8-3.1,0.5-4c-0.1,0.1-0.2,0.3-0.4,0.4
							c0.1-0.4,0.2-0.8,0.1-1.3c-0.1,0.9-0.8,0.1-0.9,0.3c0-0.1-0.1,2-0.9,1.2c0.1-0.4,0.2-0.9,0.1-1.3c-0.2-0.2-0.2,0.8-0.5,0.4
							c-0.5-1.4-3.6-0.2-4.5,0.9c-0.2-0.6-0.6-1.1-1.2-1.4c0.2,0.3,0.1,0.6-0.3,0.8c-0.3-1.2-0.8-1.1-1.7-0.2c0,0,0-1-0.3-0.7
							c-0.1,0.2-0.2,0.5-0.3,0.7c-0.1-0.2-0.1-0.4-0.2-0.6c-0.2,0.1-1.2,1.6-0.8-0.3c-0.9,0.9-0.5-0.4-2.1,0.1
							c0.2,0.2,0.1,1.6,0,1.5c0-0.2-0.1-0.2-0.3-0.1c0.5-3.2-3.3-1-4.3-2.8c-0.1,0.8-1.3,1-1.4,1.1c0.3-0.5,0.5-1,0.6-1.5
							c-1,0.7-2.4-1.8-2.6-1.2c-0.2,0.2-0.3,0.3-0.5,0.4c-0.2-0.5-0.1-0.7,0.6-0.9c0-0.4-1.4,0.6-1.2,0.2c0.6-1.2,0.2-0.2,0.4-0.2
							c0.2-0.1,0.3-0.3,0.3-0.5c0.1,0.2-1.8,0.1-0.6-0.7c-1.2,0.3-0.2,0-1.1,0.8c-0.6-0.2-0.3-0.3-0.1-0.4c-0.2-0.3-0.5-0.2-0.7,0.1
							c0.2-0.3,0.3-0.5,0.5-0.8c-0.4,0.1-0.7,0.1-0.9-0.3c0.6-0.2,1-0.6,1.3-1.1c-0.3,0-0.5,0-0.8,0c0.4,0.4-1.3-1.7-1.5-1.1
							c0.5,0,0.9-0.2,1-0.7c-0.6,0.2-0.1,0.5-0.9,0.2c1.4-1.1-0.2-1.7,0.5-2.8c-1,0.3-0.5-1.1-0.3-1.2c-0.6,0.1-1.5,0.2-1.8-0.7
							c-0.2-0.7,1.7,0.2,1.6-0.4c-0.1-0.4-0.9-0.8,0-1c-0.5,0-1-0.1-1.4-0.4c0.4-0.3,0.8-0.5,1.3-0.7c-0.3-0.4-0.3-0.8,0.3-0.3
							c0.1-0.5,0-0.8-0.4-1.2c2.6-0.1,0-3,0-3c0.8,0.3,1.4,0,1.7,0.1c-0.3-0.1-0.8-1.2-0.7-1.6c0.2-0.5,0.9,1.1,1.1,0.2
							c0.1-0.3,0-0.5-0.2-0.5c0.2,0.1,0.5-0.5,0.2,0.1c0.6-0.1,0.3-0.3,1,0.1c0-0.4-0.1-0.8-0.4-1.1c0.9-0.2,1.2-1.4,1.4-2.1
							c-0.2,0.3,0.7,0,1.1-0.2c-0.4-0.4,1.2-2.4,1.6-1c0.4-0.6,0.7-1.3,0.8-2c0,1,0.3,1,0.8-0.1c0.3-0.6-0.3-1.2,0.9-1.6
							c-0.1-0.1,1.9,2.5,1.3,0.3c0.2,0.1,0.4,0.2,0.5,0.5c0.1-0.3,0.5-2.5,0.3-2.5c-0.3-0.1-0.6,0.8-1,0.7c-0.3,0,0.7-1.6-0.3-0.7
							c0.2-0.3,0.3-0.6,0.3-0.9c-0.1-0.2-0.8,0.8-0.9,0.9c-0.2,0.1,0.3-1.3-1.2,0.1c0.5-0.7-0.3-0.7-0.7-0.3c0.1-0.2,0.1-0.5,0-0.7
							c-0.6,0.4-0.9,0.9-1.1,1.5c0-0.2,0.2-1.4-0.4-0.8c0.4-0.5,0.4-1.2,0.8-1.8c-0.9,0.3-2.7,1.7-3.2,2.3c0.4-0.9-2.6,0.2-2.7,2.3
							c-0.2,0-1.6,0.4-2.4,0.8c1,0.9-1.5,3.7-1.7,3.7c-0.1,1.6-1.1,1.6-2.4,2.4c-0.7,1.3-0.8,2.7-1.4,4c0.3-0.2,0.5-0.1,0.6,0.1
							c-1,0,0.2,2.1-0.8,0.8c-1.7,2.9-0.3,8.2,0.3,10.3c1.3,3.9,5.9,11.2,9.9,11.4c0.1,0.3,0,0.5-0.2,0.7c1.4-0.2,2.2,2.1,3.4,1.4
							c0.2-0.1,3.7,0.6,4.3,1.2c-0.1-1.3,1.8-1.1,1.3-0.2c0.5,0,3.3-0.1,3.5,0c0.4,1.9,2.4-0.8,2.8-0.4c-0.1,0.4-0.2,0.8-0.3,1.1
							c2.1-0.7,4.2,0.9,6.2-0.3c0,0.2,0.1,0.5,0.1,0.7c2-0.6,4.2,0.2,6.1-0.9c1.3,1,2.6,0.7,3.4-0.8c0.6-0.1,1.9,2.5,3,0.8
							c0,0.2,0,0.4,0,0.6c0.6-0.4,4-0.7,3.2-2.1c0.3-0.1,0.2,1,0.5,0.3c-0.1,0.3-0.2,0.6-0.3,0.8c1.8,0.2,4.3-0.5,5.8-0.6
							c1-0.1,3.7-0.2,3.9-1.6c1.2,1.4,2.9,0.1,3.9-1c-0.1,0,4-0.3,3.1-1.7c0.2,0.2,0.4,0.4,0.5,0.6
							C-792.6-792.9-793.3-795.2-793.6-795.6 M-844.3-821.8C-844.3-821.8-844.3-821.7-844.3-821.8
							C-844.2-821.6-844.2-821.6-844.3-821.8z M-792.8-795.4c0-0.1,0-0.1-0.1-0.3C-792.9-795.6-792.9-795.5-792.8-795.4z
							 M-811.6-795.4c0.1,0,0.1,0,0.2-0.1C-811.4-795.5-811.5-795.5-811.6-795.4z M-802.7-795.5"/>
					</g>
				</g>
			</g>
			<g id="XMLID_138_">
				<g id="XMLID_139_">
					<path id="XMLID_140_" class="st2" d="M-825.6-816.6c-0.2,0.4,0.1,1.5-0.1,0.7C-825.8-816.6-825.7-817.2-825.6-816.6z"/>
				</g>
			</g>
			<g id="XMLID_134_">
				<g id="XMLID_135_">
					<g id="XMLID_136_">
						<path id="XMLID_137_" class="st3" d="M-831.9-851C-832.1-850.8-832.1-850.8-831.9-851"/>
					</g>
				</g>
			</g>
			<g id="XMLID_119_">
				<g id="XMLID_120_">
					<g id="XMLID_121_">
						<path id="XMLID_122_" class="st4" d="M-800.6-854.8c0.2,0,0.4,0,0.7,0.1C-800.2-855.1-801.2-854.9-800.6-854.8 M-824-856.4
							C-823.9-856.4-823.9-856.4-824-856.4 M-797.5-801.7c-0.3,0-1-0.7-2.1-0.4c-0.4,0.9-1.3,1.5-0.8-0.4c-0.1,0.1-0.2,0.2-0.4,0.2
							c0.2-0.3,0.3-0.7,0.5-1c-0.6,1.4-1.1,0.3-1.3,0.2c-0.4-0.7-0.2,0.6-0.5,0.5c0-0.6,0.1-1.2,0.3-1.7c-1.4-0.6-2.6-1.3-4.1-0.9
							c-0.4-0.2,0.5-1.8,0.5-1.8c-0.5,0.5-0.7-0.8-1,0.5c-0.5-0.7-1.1-1.1-1.9-1.4c0.4-0.1,0.7-0.4,0.8-0.9
							c-0.7,0.4-1.3,0.3-1.9-0.2c-0.1,0.1-0.9,1.9-1.3,1.3c0.5-0.9,0.5-2.5,1.5-1.9c-0.1-0.1,2.2-1.4,1.9,0.2c1-0.5-0.2-0.4,0.4-1.1
							c-0.5-0.2-2.8,0.3-2.8,0.4c-0.2-0.9,0.4-0.9,0.7-1.2c-0.3-0.3-0.6-0.4-1-0.4c0.7-1,1.1,0.4,1.7-1.2c-0.4-0.5-0.8,0.8-1.2,0.1
							c0.1-0.1,0.3-0.2,0.4-0.3c-0.5,0.2-1.2,1.6-1.5,1.5c-0.1-0.2-0.2-0.5-0.5-0.6c-0.5,0.3-0.1,1.3-1.3,0.9
							c-0.1-0.5,0.1-0.9,0.5-1.3c0.3,0,0.4,0.2,0.2,0.4c0.5-0.1,1.6-1.8,1.3-1.8c-1,0.1-1.1,1.4-2.1,1.4c-0.4,0,1-1.8,0.4-2
							c-0.2,0.4-3.1,2.6-3.3,2c1.4-1,1.6-2.1,2.2-3.7c-0.3,0.2-0.6,0.4-1,0.6c0.4-0.2,0.5-0.5,0.3-0.9c-0.2,0.6-0.6,0.9-1.2,0.9
							c-0.9-0.8,0.6-1.3,1-1.5c-0.7,0.3,0.1-0.3-0.3-0.4c-0.5,0.4-1.1,0.7-1.6,1.1c-0.2-0.2-0.2-0.4-0.2-0.6c0,0,1.7-1.1,0.9-1.3
							c-0.2,0.1-0.4,0.3-0.6,0.4c0.1-0.2,0.3-0.4,0.4-0.5c-0.3,0.1-0.5,0.2-0.8,0c0.1-0.1,0.2-0.2,0.3-0.4c-0.3,0-1.3,0.6-0.9-0.3
							c-0.5,0.8,0.7,0.9-0.8,1.1c0.7-0.7-0.8-0.3-0.3-1.7c-0.2,0.2-0.4,0.3-0.6,0.5c1.1-1.3-0.7,0-0.6-0.7c0.5-0.2,0.7-0.5,0.8-1
							c-0.6,1-1.4,0.6-1.8,1.2c-0.2-0.7,1.2-1.1,1.5-1.6c-0.5,0.2-1-0.1-2,0.5c0-0.3,0.2-0.6,0.4-0.8c0,0-2.3,1.4-1.9,0.2
							c0.3-0.5,0.7,0.2,0.9-0.2c-0.6-0.8-3.3,1.7-3.9,1.8c-0.4-0.9,2.8-1.8,3.2-2.7c-0.2,0-0.4,0-0.5,0c0.4-0.2,0.7-0.5,1-0.9
							c-0.7,0.6-0.6-0.5-0.9-0.3c0.1-0.1-1.5,1.4-1.5,0.3c0.4-0.2,0.7-0.6,1-0.9c0-0.3-0.7,0.4-0.7,0c0.6-1.4-2.6-2.6-4-2.4
							c0.3-0.6,0.3-1.3,0.1-1.9c-0.1,0.4-0.4,0.5-0.7,0.4c0.7-1.1,0.2-1.3-1-1.3c0.4-0.2,0.5-0.4,0.3-0.8c-0.3,0.1-0.5,0.2-0.8,0.3
							c0.1-0.2,0.2-0.4,0.3-0.6c-0.2,0-2,0.4-0.4-0.8c-1.3,0-0.1-0.6-1.6-1.4c-0.2,0.5-0.6,0.9-1.1,1.1c0.1-0.2,0.1-0.3-0.2-0.3
							c1.2-0.9,0.9-3.4-0.8-3.2c0.7-1-0.8-1-0.4-1.9c-0.6,0.5-1.7-0.2-1.8-0.2c0.6-0.2,1.1-0.4,1.6-0.7c-1.7-0.3-0.2-1.5-0.4-2
							c-0.3,0-1.4-0.5-0.7-0.7c-0.2,0-0.4,0-0.7,0c0.2-0.5,0.5-0.6,1.1-0.2c0.3-0.3-1.5-0.5-1.1-0.7c1.2-0.5,0.2,0,0.5,0.2
							c0.2,0,0.4,0,0.6-0.2c-0.1,0.2-1.5-1.2,0.1-0.9c-1.1-0.6-0.2-0.1-1.4-0.1c-0.2-0.6,0-0.4,0.3-0.4c0-0.4-0.2-0.5-0.6-0.4
							c0.3-0.1,0.6-0.1,1-0.2c-0.4-0.2-0.5-0.5-0.5-0.8c0.6,0.3,1.2,0.3,1.7,0.1c-0.2-0.2-0.4-0.4-0.6-0.6c0,0.5,0.4-2.2-0.3-1.9
							c0.4,0.4,0.8,0.5,1.2,0.2c-1.4-0.7,0.4,0.1-0.5,0.1c-0.3-0.1-0.4-0.3-0.4-0.6c1.7,0.2,1.2-1.4,2.4-1.7
							c-1.1-0.6,0.1-0.3-0.3-0.9c0.9,0.7,0.1-0.5,0.8-0.3c-0.6-0.3-1.3-0.9-0.9-1.8c0.4-0.7,1.2,1.4,1.6,0.8
							c0.2-0.3-0.2-1.3,0.7-0.8c-0.4-0.3-0.7-0.8-0.8-1.3c1,0.3,1.9-0.2,1.9,0.4c0.4-0.2,0.6-0.6,0.5-1.2c2.1,1.7,2.1-2.1,2.2-2.2
							c0.3,0.9,1,0.9,1.2,1.2c-0.2-0.3,0.2-1.5,0.6-1.7c0.5-0.2-0.1,1.4,0.7,1c0.3-0.1,0.4-0.3,0.2-0.6c0.1,0.3,0.8-0.1,0.1,0.2
							c0.5,0.4,0.4-0.1,0.7,0.8c0.3-0.3,0.4-0.7,0.5-1.2c0.9,0.3,1.7,0.2,2.4-0.4c0.2-0.3,0.5,0.3,1.1,0.5c0-0.2,0.1-0.4,0-0.5
							c0.6,1,2.8-0.9,1.9,0.8c0.7-0.1,1.4-0.4,2-0.9c-0.7,1.3,0.4,0.8,0.9,0.3c-0.2-0.4-0.2,0.3-0.3,0.2c-0.2-1.7,3.8,0.6,4.6,0.1
							c-0.1,0.1-0.7-0.2-1-0.2c1,0-0.7-0.2,1.2-0.2c0,0-0.1-0.1-0.7-0.1c1.7-0.1-0.7-0.2-0.8-0.2c0.6-0.1,0.6-0.3,1.3-0.4
							c-0.5,0.2-0.8,0.1-1-0.2c0.3,0,1.6,0,0.4-0.1c0.7-0.1,1.3-0.2,1.9-0.4c-1.4-0.1-0.3-0.3,0-0.5c0.1,0-1.9-0.5-1.9-0.8
							c0.2-0.3,0.5-0.4,0.8-0.4c-0.3,0-1.6,0.3-0.7,0.2c-0.2,0-0.6,0.1-0.8,0.2c0.4-0.1,0.5-0.2,1.8-0.5c1-0.4-2.8,0.6-2.2,0.3
							c0.7-0.2,0.9-0.3,0.8-0.3c-0.4,0.1-0.8,0.2-1.2,0.3c0.5-0.4,0.2-0.9,0.9-1.1c-0.1,0-0.7-0.7-0.3-0.6c-0.9-0.2-4.1-0.8-3-2.1
							c-0.5-0.1-1.7,0.5-1.8,0c0.4-0.3,0.2-0.3-0.1,0c0.7-0.5-3.2,1-3.6,1.4c-3.5-2.1-9.3,1-13.5,2.8c0.3,0.1,0.4,0.2,0.4,0.6
							c-0.7-0.7-1.4,1.6-1.2,0.1c-2.8,0.7-5.9,5.2-6.9,7.2c-1.7,3.6-3.9,12.7-0.9,16c-0.1,0.3-0.3,0.4-0.6,0.4
							c0.5,0.4,0.8,4.4,2,3.4c-0.4,1.8,1.8,2.4,1.8,4c0.8-1.1,2.1,0.4,1.1,0.9c0.7,0.5,1.1,1.2,1.3,2c0.5,0,0.9,0.1,1.3,0.5
							c-1,1.7,2.4,1.1,2.4,1.7c-0.3,0.2-0.7,0.4-1,0.7c2,1,2.5,3.6,5,4.1c-0.1,0.2-0.3,0.4-0.4,0.6c1.6,0.7,2.5,2.3,4,3.1
							c1.7,0.9,2.1,3,4.4,2.2c0.5,0.3-0.3,3.2,1.8,2.7c-0.1,0.2-0.2,0.3-0.4,0.5c0.9,0,3.6,2.1,3.9,0.6c0.3,0.1-0.5,0.9,0.2,0.6
							c-0.3,0.2-0.5,0.3-0.8,0.5c1.3,1.4,3.6,2.5,4.9,3.5c0.9,0.6,2.9,2.4,4.1,1.4c0,1.9,2.2,2.1,3.7,1.9c-0.1,0.2-0.1,0.4-0.2,0.6
							c0.7-0.3,1.2-0.8,1.5-1.4c0.2,0.2,0.4,0.4,0.7,0.6c-0.6,0.3-1.2,0.8-1.6,1.3c0.4,0.4,3,0.4,3.2-0.2c0.1,0.3,0,0.6-0.1,0.8
							c1.2-0.1,1.5-0.3,0.8-0.4c0.3-0.5,0.7-0.5,1,0.1C-795.6-802.8-797.7-799.9-797.5-801.7 M-823.2-857.1c0,0-0.1,0.1-0.2,0.1
							C-823.3-857-823.2-857.1-823.2-857.1z M-797-801.3c0,0.1-0.1,0.2-0.1,0.3C-797-801.1-797-801.1-797-801.3z M-837-857.2
							c0.1-0.1,0.1-0.2,0.1-0.3C-837-857.5-837-857.4-837-857.2 M-798.6-799.7c0,0-0.1,0.1-0.1,0.1
							C-798.6-799.6-798.6-799.6-798.6-799.7z M-837.8-827.4C-837.7-827.4-837.8-828-837.8-827.4 M-811.3-813.9c0,0-0.1-0.1-0.2-0.1
							C-811.4-813.9-811.4-813.9-811.3-813.9z M-817.3-856.4L-817.3-856.4C-817.4-856.2-817.4-856.3-817.3-856.4z"/>
					</g>
				</g>
			</g>
			<g id="XMLID_114_">
				<g id="XMLID_115_">
					<g id="XMLID_116_">
						<path id="XMLID_118_" class="st5" d="M-782.7-798.1c0.3-1.5,3.5-6.4,4.2-6.3c-1-0.2,1.7-7.2,3-7.5c0-0.6-0.1-1.2-0.2-1.8
							c0.2,0.1,0.4,0.2,0.6,0.2c-0.2-0.4-0.4-0.9-0.4-1.4c0.4,0,0.8-0.1,1.2-0.1c-2.2-1.2,0.1-2.4-0.5-3.8c0.8,0.5,0.5-1.7,0.7-2.3
							c0.7-2,0.7-3.3,2.3-3.6c-1.9-0.7,0.1-3.6-0.9-4.2c0.2-0.1,0.5-0.1,0.7-0.2c-0.6-0.2,1.3-3.1,0.1-3.3c0.8-0.1,0.3,0.8,1.3,0.6
							c-0.2-1.6-0.1-3.3,0.2-4.9c0.2-1.4,1.4-3.5,1.3-4.3c-0.2-1.2-0.3-1.7,0.6-1.7c-0.8-0.7-0.9-1.5-0.1-1.4
							c-0.7-0.7,0.3-1-0.1-1.6c0.2,0.1,0.3,0.2,0.5,0.3c0.5-0.5-1.6-1.3,0-0.8c-1.1-1-0.5-2.5-0.4-3.6c-0.5-0.8-0.4-1.3,0.3-1.3
							c0.4,0.1,0.7-0.1,0.7-0.5c-1,0-0.4-1.3-1.6-0.9c0.3-0.7,0.3-1.3,0-2c0.4,0.2,2.2-0.1,2.4-0.1c-0.5-2-2.1-1.2-2.8-2.6
							c0.5-0.1,0.9-0.2,1.3-0.3c-0.7,0-1.5-0.4-2.2-0.4c0.2-0.1,0.4-0.3,0.4-0.6c-2,1,0.1-1.6,0-1.5c-0.3-0.5-1.3-1.7-1.8-0.8
							c0.1,0.2,0.5-0.4,0.4,0c-0.8,0.1-1.9-0.3-0.6-0.8c-0.8,0-1.6-0.2-2.3-0.6c-0.1,0.1,0.7-0.2,0.7-0.2c0-1.2-1.9-0.5-1.7-1.7
							c-0.1,0.2-0.2,0.3-0.3,0.5c-0.3-0.3-0.8-1.3-0.5-1.1c-0.6,0-1.2-0.1-1.8-0.4c-1.8-0.9-0.4,0.2-1.8-0.1
							c0.1,0.2-0.1-1.5-0.2-1.2c-0.6,0.5,1.5,0,1,0.3c0-0.1-1.7,0.3-1.9-0.3c0.3-0.2,0.4-0.5,0.3-0.8c-0.5-0.1-1.5,0.7-1.5,1
							c0-0.3-0.6-0.7-0.4-1.6c-1.2,0.1-0.3,1.4-1.4,1.2c-0.5-0.1-2.7,0.3-3,0.2c0.3-0.4-0.7-0.7-1.5-1.3c-0.2,0.5-0.2,1,0,1.5
							c-0.5-0.8-0.7,0.2-1.1,0.3c-0.8,0.3-0.1-1.9-0.9-1.5c-0.9,0.4-0.5,1.4-0.2,1.9c-0.2-0.1-1.6-0.1-1.1,0.8
							c-1.3-0.4-1.6,1.5-3.1,0.5c-0.2,0.2-0.2,0.4,0,0.6c0.8,0.4-0.4-1,0.5,0.2c-0.5,0.1-0.8-0.2-1-0.7c0.5,0-0.9,2.3-0.7,1.9
							c0.1,0.3,0.2,0.5,0.3,0.8c-0.6,0-1.1-0.3-1.5-0.8c-0.2,0.3-0.2,0.6,0,1c-0.3-0.1-0.6-0.1-0.9-0.2c0.4,0.1,0.5,0.3,0.3,0.7
							c-0.2-0.1-0.4-0.4-0.4,0.3c1.1,0.5,0.5-0.4,1.2,0.7c-1.2-0.9-0.6,1.1-0.5,0.9c-0.2,0.1-0.4,0.1-0.6-0.1
							c-0.1-0.2,1-0.3-0.3-0.3c-0.5,0,1,0.9,0.5,1.1c-0.4-0.6-0.6-0.6-1-0.2c0.2,0.1,0.4,0.2,0.6,0.3c0.6,0-1.2,2.4-0.2,3.1
							c-0.5,0.1-1.1,0.1-1.7,0c0.1,0,0.7,1.1,1.5,0.9c-1.4,1.7,2.2,5.5-1.2,5.8c0.2,0.1,0.2,0.2,0,0.4c0,0.2,1.3-0.1,1.4-0.4
							c0.4,0.7,0.5,1.5,0,2.2c0.2-0.2,0.4-0.2,0.6,0c-2,0.1-0.1,0.9-0.1,0.9c-0.2,0.1-0.4,0.2-0.5,0.3c0.3,0.1,0.5,0.1,0.8,0.2
							c0.3,0.2-0.6,0.5-0.6,0.5c1,0.7,1.3,1.2,0.2,1.8c0.3,0.3,0.5,0.3,0.8,0.1c-0.1,0.7-0.5,1.3-1,1.7c1.3,0.7,3.2,3.6,2,4.5
							c-0.3,0.4,0.7,0.2,0.5,0.4c-0.4,0.2-0.9,0.3-1.3,0.2c-0.5,1.1,1.5,0.7,1.4,0.7c0.3,0.1-0.3,0.9,0.6,0.8
							c-0.4,0.2-0.8,0.2-1.3,0.2c0.2,0.1,0.3,0.2,0.5,0.3c-0.7,0.5-3.9-0.4-4,0.5c0.6,0.3,4-0.3,4.1,0.8c-0.4,0.3-0.3-0.6-0.9-0.3
							c-1,0.9,1.7,1,1.7,1c-0.3,0.1-0.6,0.2-0.8,0.5c1.2,0,1.3,0.6,1.9,0.7c-0.5,0.2-1.9-0.2-2.1,0.5c0.7-0.3,1.1,0.6,2.1,0
							c-0.3,0.3-0.7,0.5-1.2,0.4c-0.5,0.6,1.7,0.5,0.1,1c0.3,0,0.5,0,0.8,0c-1,0.8,0.2,1.5-0.6,1.6c1.4,0.8,0.4-0.1,1.3-0.5
							c-0.8,0.5,0.3,0.6,0.6,0.8c-0.1,0-0.3,0.1-0.4,0.1c1,0.5,0.3,0.2,0.1,0.7c0.2,0,0.5,0,0.7,0c0.6,0.7-1.4,0.6-1.4,0.6
							c-0.1,0.2-0.2,0.4-0.2,0.7c0.6,0,1.2,0,1.9,0c0.4,0.3-0.7,0.3,0.1,0.5c-0.4-0.1-1.9-0.5-1.6,0.7c0.5,0.4,1,0.3,1.5-0.1
							c0,0.4-0.3,0.6-0.7,0.6c0.4,0.1,0.7,0.1,1.1,0.1c-1.3,1-2.1,1.9-3.7,1.9c-0.2,0.7,3.3,0.5,3.7,0.3c0.5,0.6-1.7,1-1.4,1.4
							c0.3,0.5,1.9,0,1.5-0.3c0,0.6,1.3,0,1,0.7c-0.7-0.3-1.1,0.8-2,0.4c0.3-0.2,0.3-0.3,0.1-0.5c-0.5,0.1-0.9,0.4-1.1,0.8
							c0.8,1.1,1,0,1.5,0c1,1.3,0.5,0,2.1,0.4c-0.2,0-0.3,0-0.5,0.1c-0.1,0.8,0.9,0,1,0.7c-1.4,1.1-0.9-0.5-2,0
							c0.3,0.3,0.5,0.6,0.6,1c-0.4,0-0.9-0.3-1.2,0.5c0.3-0.6,4,2.5,1.6,2.1c1.2-1.1-1.5-1.4-1.4-1.3c-0.6-1.1-1.3,0.2-2.3,0.7
							c0,0.8,1.6-0.2,1.8-0.3c0.2,0.8,0.6,1.3,1.4,1.4c-0.3,0.4-0.7,0.4-1.1,0.3c0.8,1.2,0.7,1.8,1.3,2.2c1.2,0.8,0.7-0.8,2-0.8
							c0-0.1-1.4,1.2-0.3,1.1c-0.6-0.6-2.8,0.8-2.6,1.3c1.5,0.7,1.1,1.1,1.7,2.2c0.4,0.5,0.7,0.9,1.2,1.3c-0.4,0.4-0.8,0.8-1.2,1.2
							c0.2,0.4,0.8-0.8,0.7,0c0.1,0.2-0.1,1.5,1.2,0.8c-0.3,0.2-0.7,0.3-1,0.5c0,0.8-0.4,0.5,0.6,1.6c0.1-0.2,0.2-0.4,0.3-0.6
							c1.1,0.5,1.2,1,1,1.7c0.2,0,0.4,0,0.5,0c-0.5,0.5-0.4,0.8,0.1,0.7c-0.6,0.3-1.2,0.4-1.9,0.5c0.3-0.4,0.6-0.7,1-1
							c0.4-1-2.3,1.3-1.4,0.5c-0.4-0.2-0.8-0.3-1.2-0.5c0.3-0.1,0.5-0.3,0.6-0.6c-0.5,0.4-2.6-1.3-2.7-1.9c0.7-0.1,1.4-0.1,2.1,0
							c-0.1-0.3-0.2-0.6-0.2-0.9c-0.7,0.3-1.3,0.3-2,0.1c0.2-0.1,0.3-0.2,0.5-0.3c-1.4-0.9-3-2.3-1.9-3.9c-1.5,0-2.2-2.8-2.5-3.8
							c-0.6-1.8-1.7-4-2.2-6c0.3,0,0.6,0.1,0.9,0.1c-0.7-0.2,0.4-0.4,0.2-0.7c-1,1.1-2.2-2.4-2.9-2.9c0.2-0.1,0.4-0.1,0.6-0.2
							c-2-0.8,0.3-2.7,0-3.4c-1.8-0.5-4.6-8.9-3.6-9.9c-1.8-1.8-0.8-4.4-2-6.5c0.4,0,0.8,0,1.2,0c0.3-0.8-1.5-1-1.5-2.3
							c-0.1-1.3-0.2-2.9-0.7-4.5c1.1,0,0.6-1.4-0.4-1c0.7-1.4-0.9-2.9,0.2-4.3c-1.4,0.4,0-3.4-0.3-4c0.3,0.1,0.5,0.1,0.7-0.1
							c-1.2-3.8,3.6-10.7,6.9-13.4c1-0.9,2.7-1.1,3.7-2.2c1-1.1,3.5-0.6,4.6-2.1c-0.5,0,2.9-0.4,3.4-0.2c-1,1.2,0.8-0.4,1.1,0.6
							c0.2-0.2,0.2-0.4,0-0.6c2.4,0.2,4.8,0,7.2,0.3c1.8,0.2,2.5,2.2,2.4,2.2c0,0,0.8,0.1,0.9-0.2c0.6,0,0.3,1.7,0.9,1.4
							c0.2-0.3,0.4-0.6,0.7-0.7c0.6,0.7,1.4,2,1.5,2.2c6.8-0.8,10.4,10.2,11,15.3c0.5,4.3-0.4,8.9-1.1,13.2c-0.3,2.2-1.6,9-3.1,9.5
							c1.6,0.4-0.2,6-0.5,7.1c-0.2-0.4-0.4-0.5-0.8-0.3c0.5,0.4,0.2,0.4,0.2,0.5c0.5,2,1.4-2.1,0.6,2.1c-0.4,2.1-1.1,4.1-2,6.1
							c-1.6,3.8-3.5,7.5-4.6,11.4c-2.2,1.8-2.8,4.7-4.7,6.7C-779.7-795.4-786.5-794.1-782.7-798.1"/>
						<path id="XMLID_117_" class="st6" d="M-790.3-866.1C-790.6-866-790.6-866-790.3-866.1"/>
					</g>
				</g>
			</g>
		</g>
		<path id="XMLID_110_" class="st7" d="M-1134.1-789.5h-7.3l-7-25.5h-36.9l-6.9,25.5h-7.5l19.2-71c2.2-8.5,6.8-12.7,13.6-12.7
			c6.8,0,11.4,4.2,13.6,12.7L-1134.1-789.5z M-1150.3-822.2l-9.7-36.4c-1.3-5-3.6-7.5-6.9-7.5c-3.1,0-5.4,2.5-6.8,7.5l-9.8,36.4
			H-1150.3z"/>
		<path id="XMLID_107_" class="st7" d="M-1048.5-793.3c-8.1,3.7-15,5.1-20.7,5.1c-20.6,0-25.6-15.3-25.2-30.1
			c0.6-22.4,9.8-30.5,24-30.5c13.8,0,22.7,6.7,22.7,23.1c0,10.1-6.9,10.1-9.7,10.1c-7.2,0-29.9,0-29.9,0c0,10.3,3.7,20.9,17.9,21.2
			c4.8,0.1,10.9-1,18.8-3.7L-1048.5-793.3z M-1054-826.6c0-11.5-6.6-16.2-16.4-16.2c-10.6,0-16.9,5.4-16.9,20.9c0,0,25.6,0,29.1,0
			C-1055.7-821.9-1054-822.7-1054-826.6z"/>
		<path id="XMLID_105_" class="st7" d="M-1028.1-847.6l15.3,22.5l15.4-22.5h7.8l-19,27.5l20.3,30.6h-7.7l-16.8-25.3l-16.8,25.3h-7.8
			l20.2-30.5l-18.7-27.6H-1028.1z"/>
		<path id="XMLID_98_" class="st7" d="M-972.9-870.9h6.9v8.7h-6.9V-870.9z M-972.9-847.6h6.9v58.1h-6.9V-847.6z"/>
		<path id="XMLID_93_" class="st7" d="M-904.8-837.8c0,9.7,0,38.6,0,38.6c0.3,3.5,3.7,4.7,7.6,5.1l-0.4,5.6c-5.7,0-10-1.2-13.1-4.7
			c0,0-10.9,4.8-21.9,4.8c-10.2,0-18.8-9.4-18.8-24.2c0-21.1,9.6-33.9,22.6-33.9c4.9,0,8.2,0,15.4,0
			C-909.4-846.4-904.8-844.5-904.8-837.8z M-915.7-840.1c-4.5,0-8.6,0-12.1,0c-10.6,0-16.5,10.4-16.5,26.8c0,14.2,6.2,19,12.6,19
			c9.4,0,20-4.1,20-4.1s0-28.8,0-37.9C-911.7-838.8-913.1-840.1-915.7-840.1z"/>
		<g id="XMLID_90_">
			<path id="XMLID_91_" class="st7" d="M-1112.2-800.7l0-72.9h-7.3v75.1c0,0,0.3,0,0,0c0,6.9,4.1,9.8,13.2,9.8l0.3-5.6
				C-1109.7-794.7-1112.2-795.5-1112.2-800.7z"/>
		</g>
	</g>
	<g id="XMLID_84_">
		<rect id="XMLID_202_" x="-1201.9" y="-745.6" style="fill:none;" width="439.8" height="58.5"/>
		<text id="XMLID_201_" transform="matrix(1 0 0 1 -1201.8684 -718.9252)"><tspan x="0" y="0" class="st7" style="font-family:'Titillium-Light'; font-size:37.0034px; letter-spacing:13;">suite</tspan><tspan x="145.6" y="0" class="st7" style="font-family:'Titillium-Light'; font-size:37.0034px; letter-spacing:25;"> </tspan><tspan x="179.6" y="0" class="st7" style="font-family:'Titillium-Light'; font-size:37.0034px; letter-spacing:13;">educ</tspan><tspan x="308.9" y="0" class="st2" style="font-family:'Titillium-Light'; font-size:37.0034px; letter-spacing:13;">a</tspan><tspan x="341.3" y="0" class="st7" style="font-family:'Titillium-Light'; font-size:37.0034px; letter-spacing:13;">tiv</tspan><tspan x="421.4" y="0" class="st2" style="font-family:'Titillium-Light'; font-size:37.0034px; letter-spacing:13;">a</tspan></text>
	</g>
	<path id="XMLID_81_" class="st7" d="M-877-734.9c0,3.2,0,12.8,0,12.8c0.1,1.2,1.2,1.5,2.5,1.7l-0.1,1.8c-1.9,0-3.3-0.4-4.3-1.5
		c0,0-3.6,1.6-7.2,1.6c-3.4,0-6.2-3.1-6.2-8c0-7,3.2-11.2,7.5-11.2c1.6,0,2.7,0,5.1,0C-878.5-737.8-877-737.1-877-734.9z
		 M-880.6-735.7c-1.5,0-2.8,0-4,0c-3.5,0-5.5,3.4-5.5,8.9c0,4.7,2,6.3,4.2,6.3c3.1,0,6.6-1.3,6.6-1.3s0-9.5,0-12.5
		C-879.2-735.2-879.7-735.7-880.6-735.7z"/>
	<path id="XMLID_25_" class="st7" d="M-765-734.9c0,3.2,0,12.8,0,12.8c0.1,1.2,1.2,1.5,2.5,1.7l-0.1,1.8c-1.9,0-3.3-0.4-4.3-1.5
		c0,0-3.6,1.6-7.2,1.6c-3.4,0-6.2-3.1-6.2-8c0-7,3.2-11.2,7.5-11.2c1.6,0,2.7,0,5.1,0C-766.5-737.8-765-737.1-765-734.9z
		 M-768.6-735.7c-1.5,0-2.8,0-4,0c-3.5,0-5.5,3.4-5.5,8.9c0,4.7,2,6.3,4.2,6.3c3.1,0,6.6-1.3,6.6-1.3s0-9.5,0-12.5
		C-767.3-735.2-767.8-735.7-768.6-735.7z"/>
</g>
</svg>
