<?xml version="1.0" encoding="utf-8"?>
<!-- Generator: Adobe Illustrator 19.0.0, SVG Export Plug-In . SVG Version: 6.00 Build 0)  -->
<svg version="1.1" id="Layer_1" xmlns="http://www.w3.org/2000/svg" xmlns:xlink="http://www.w3.org/1999/xlink" x="0px" y="0px"
	 viewBox="0 0 202 212" style="enable-background:new 0 0 202 212;" xml:space="preserve">
<style type="text/css">
	.st0{fill:#73A950;}
	.st1{fill:#5FA3BD;}
	.st2{fill:#4296B4;}
	.st3{fill:#F7D93E;}
</style>
<g id="XMLID_541_">
	<g id="XMLID_545_">
		<g id="XMLID_372_">
			<path id="XMLID_373_" class="st0" d="M85,117.9c2.2,1.7,5.7,3.2,7.4,5.4c1.3-0.5,2,0.1,2.8,0.5l-1.1,1.3l0.9,0.1
				c-0.1,0.6-0.6-0.2-0.7,0.7l0.9-0.6c-0.4,0.5,1.1,1.6-0.7,1.6l2,2c0.4,0.5,1.2-0.8,1.4,0c-0.2,0.5,1.6-1.9,1.2-1.4
				c0.6,2.3,2,1.3,2.8,3.1l-0.3,0c0.5-0.1,1,0.4,1.1,0.2c1-1.4-0.9,0.4-0.6-0.7c1-1,1.1,0,1.8-0.9c0,0.7,0.7,0.3,1.1,0.5
				c-0.1,1.1,1,1.3,0.6,2.5c0.6-0.1,1.8-0.9,2.3-0.4c-0.4,1.2-0.8,0.7-0.6,1.5l0.7-0.5c0.3,0.5,0.1,0.6-0.2,0.9
				c0.4,0.4,1.2-0.5,1.3,0.4l-0.9,0.3c0.6,0.2,0.7,0.4,1.2,1c-0.3,0.3-0.5,0.1-0.6-0.2c-0.5,1.2,0.9,0.1,1,0.4
				c0.2-0.3-0.1-0.8,0.7-1.2c0.2,0.4,1.4-0.2,0.9,0.7l-0.9,0.3c1,0.1,1-0.5,1.5,0.4c-0.1,0-0.2,0.2-0.3,0.3c1.2-0.4,1,0.9,1.6,1.5
				l-0.3,0c0.4,0,1.1-0.4,1.2-0.2c0-0.7,0.2-0.8,0.8-1.4c-0.5,1.4,1.8-0.5,2,0.9c-0.3,0.3-0.9,0.6-0.8,0c-1.2,0.8-2.1,1.6-3,1.6
				c0.5,0,1,0.2,0.5,0.6l1-0.9c0.2,0.1,0.3,0.3,0.4,0.5c0.6-0.5,0.6-1.3,1.4-1.3c0.8,0.1-0.7,1.2-0.2,0.8c1,0.2,1.2-0.8,1.6,0.1
				c-0.1,0-0.4,0.1-0.4-0.1c0.1,0.8,1.2,0.9,0.3,2.1c-0.3,0.2-0.6,0.5-0.7,0.3l0.2-0.2c-1.3,0.4,0.6,0.2-0.5,1
				c0.6-0.6,1,0.1,1.2,0.5l0.6-0.8c2.9-1.2-1.4,1.3-0.2,1.9c1,0.1,0-0.4,0.8-0.6c0.3,0.5-0.2,1.3,0.7,1.5c-0.1,0.4-0.1,1.1-0.9,1.9
				c0.7,0,0.7,1.4,1.7,0.8c0-1.2-1.4,0.2-1.1-1.4l0.9-0.6c0.4,0.5,1.4,0.7,1.5,1.3c0.1-0.2,0.2-0.4,0.4-0.6c1,0.4,1.9-0.2,2.3,0.7
				c-0.6,0.8-0.9,0.3-1.2,0.1c-0.1,1,0.4,0.5,0.9,1.3c-0.5,0.6-0.4-0.5-1.1,0.1l0.9,0.5c0,0-0.1,0.1-0.1,0.1
				c1.1-0.9,0.5,0.6,1.2,0.8c1.1,1,2.5-0.2,3.9-0.4c-0.1,0.4-0.3,0.7-0.6,0.9c0.2-0.7-0.1-0.3-0.5-0.1c0.5,0.2-0.2,1.8-0.8,2
				c0.9,0.3,0.3-0.7,1-0.7l0.7,0.8c0.4-0.6,0.2-1,1-1c0.5,0.2,0.6,0.4,1,0.9c-0.3,0.2-0.6,0.9-0.9,0.6c0,0.4,0.3,0.8,1,0.4
				c0-0.9,1.2,0.3,1.6-0.8l0,0.9c-0.1-0.1-0.4,0.2-0.5,0c-0.6,0.9,0.6,0.2,0.9,0.2c0,0.3,0.4,0.8,0.2,1.2c0.4-0.1,0.6,0.5,0.3,0.9
				c0.4,0.1,0.5-0.5,0.8-0.7l0.7,0.8c-0.4,0.5-1.5,1.8-1.7,1.8c0.7-0.1,1.3-1.2,1.8-0.7c-1.1,0.6,0,1.2-1.4,1.9
				c-0.3,0.9,0.4,1.6,1,1.7c0.9-0.4-0.1-0.8,0.6-1.5c1.4,0.8,3.3-1,3.8,0.1l0-0.4c0.9,0.1,0.8,0.1,1.6-0.2c-1,0.7-1.6,2.9-0.6,3.5
				c0.5-0.4,0.3-1.3,1.1-1.8l0.7,0.4c0,0.1-0.2,0.2-0.4,0.2c0.8,0.2-0.1,2,1,1.2l-0.7,1.8l0.3-0.7c0.5-0.4,1.2,0.1,1.4,0
				c1,0.1,0.9,0.7,0.7,1.5c0.2-0.5,0.7-1.5,1.3-1.2c-1.3,1.4,0.5,1.4-0.2,2.2c0.2,0.2,0.1,0.9,0.7,0.4l-0.9,0.8
				c1.2-1.2,1.8-0.5,2.5-0.2c-1.7,1.5,0.7,0.4-0.5,2.1c1.2-1,1.3,0.4,2.3-0.4c0.5,0.3-0.6,1.3-0.8,1.8l0.6-0.2
				c-0.3,0.7,0.4,1.5,0.5,2.3l1.3-0.6l-0.3,0.6c0.3-0.2,0.8,0,0.9-0.6l0.2,0.3c1-1.1,0.6,0,1.5,0c-0.1,0.3-0.3,0.5-0.6,0.6
				c0.2,0.2-0.4,0.7-0.6,1.2c0.1-0.4,2.6-1.2,2.5-2.2c0.4-0.5,1-0.5,1.1-0.1l-0.8,1.1l1.2-0.8c0.5,0.2,0,0.9,0.2,1.3
				c-0.3-0.2-2.4,1.3-1.6,1.9c-0.5-0.2-1.2,0.1-1.6,0.1c0.1,0.2,0.1,0.4-0.5,0.5c0.9,0.2,0.8-0.4,1.4,0c-0.9,0.8-1,1.3-0.7,2l0.2-1
				c0.1-0.1,0.2-0.1,0.3-0.2c-0.1-0.2,0-0.4,0.3-0.8c0.1,0.1,1.7-0.5,1.3,0.2c0.7-1.9,2-0.1,2.4-1.3c0.3-0.2,0.8,0.1,0.4,0.6
				c-1.1,0.2-0.6,1.3-1.2,1.9c0.4-0.1,0.2-1,0.8-1.1c0.3,0.2,0,0.9-0.1,1.4l-0.3,0.1l0.1,0.8c0.5-0.4,0.3-1.1,0.9-1
				c-0.1,0.3,0.6,0.4,0.2,0.8c-0.8,0.4-1.4,1.3-1.8,1.2c0.3,0.2,1.4,1,1.8-0.2l0.3,0.4c0.1-0.6,0.1-1.8,1-1.3l-0.2,0.2l1.1-0.2
				l-0.2,0.6c0.2-0.2,0.5-0.4,0.6-0.2c-0.2,0.3-0.1,0.6-0.5,0.9c0.6,0.4,0.9,0,1.2-0.2c0.3,0.2,0.3,0.5-0.3,0.9
				c0.3,0.5,1.1,1,0.9,1.7c0.9,0.1,0.1-0.3,0.9-0.6c-1,2,1.2,2.2,2.2,2.9c1-1.6,0.4,0.1,1.7-1c-0.6,0.2-0.1,1.8-1.3,1.5l0.6,0.3
				c-0.4,1-1.3-0.2-1.7,1.3c0.6,0.4,2.3-0.7,2.4,0.4c-1.1,0.8,0.8,0.1-0.4,1c-0.4,0.2-0.5,0-0.8-0.1l-0.1,0.3
				c0.9,1.3,1.4-0.8,2.6-0.9c0.8,0.5-0.1,1.3-0.5,1.7c-0.1,0.3,0.4,0.5,0.8,0.4c-1,0.2-0.2-1.3,0.5-1.7c-0.7,1.4,0.9,1.1,1.5,0.8
				c0.1-2.1-0.6-0.7-0.4-2.8c-0.4,0.2-1.3,1.2-1.5,0.3c0.8-0.2,0.5-0.6,0.5-0.8c-0.4,0.7-0.6-0.1-1-0.1c0.3-0.6,1.5-1,1.2-1.7
				l-1.3,1.2c0-0.4,1-0.9,0.2-1c0.9-0.4,0.9-1.1,1.7-0.7c0.3-1.8-1.7-0.5-2.8-0.6c0.1,0,0.3-0.2,0.4-0.2c-0.4,0.2-0.7,0-0.9-0.1
				c-0.1-0.7,0.9-0.3,1.1-0.8l-0.7-0.6c0-0.1,0-0.1,0.1-0.1c-0.3,0-0.6,0-0.4-0.4c0.6-0.2,1.1-0.6,1.5-0.8l-1.5,0.3
				c0.5-0.4,0.2-1.3,0.9-1.1l-1.1-0.7l0.7-1c-0.4-0.1-0.5,0.1-0.4,0.5c-0.1-0.5-2.9,0.2-1.1-1.4c-1.4,0-1.4-0.5-2.8-1
				c1.5-0.1,0.1-1.8,1.3-1.5c-0.1-0.8-1.1,0.1-1.6-0.1c0-0.7,1-1.4,1.6-1.4l-0.8,0l0.2-0.2l-0.8,0.2c0.1-0.8,0.7-1,0.5-1.5l-0.8,0.7
				l0.2-0.7c-0.2,0.5-0.6,0.4-1,0.2l0.2-0.2l-0.5-0.2c0.8-0.1-0.2-0.5,0.5-0.9c-0.3-0.3-0.3-0.3-0.9-0.7l-0.4,0.6
				c-1.1-0.2,0.7-0.8,0.2-1.4l-0.5,0.6c0.2-1.8-1.9-0.7-1.9-2c0.5,0.2,1.1-0.6,0.9-0.4c-0.7-0.3-1.4-1.2-2.7-1
				c0.6-1.1,0.8-1.4,0.7-2.3c-0.5-0.3-0.6-0.3-1.2,0.1c-0.1-0.7-1.3-0.9-0.7-1.6c-0.6,0.4-0.3-0.4-0.9-0.2l0.2-0.3l-0.5,0.6
				c0.6-2-1.9-0.3-1.5-2.2l0.3-0.1l-0.5,0c0.2-0.3,0.5-0.4,0.8-0.7l-1.3-1.4l-0.2,0.7c-0.3-0.2-1.1,0.2-1.1-0.5
				c1.4-0.4-0.4-0.5,0.2-1.3l0.5,0c-0.5-0.3-0.5-0.3-1,0.3c-0.7-0.3,0.7-1.5-0.3-1.3l0.3,0.4c-0.2,0.5-1,0.7-1.2,0.5
				c0-0.1,0.1-0.6,0.4-0.5c-0.6-0.2-0.9-1-1.3-1c0-0.4,0.4-0.8,0.7-0.8c-1.4-0.3-0.3-0.5-1.7-0.8l0.3-0.3l-0.7,0.1l0.3-1.1l-0.3,0.6
				c-0.3-0.2-0.8-0.1-0.9-0.7l0.6-0.4c-1.1-0.5-0.1-1.7-1.6-1.8c0-0.1,0.3-0.2,0.4-0.2c-1.5,0.1,0.3-1.4-1.3-1.1
				c0.2-0.1,0.3-0.4,0.5-0.5l-0.6,0l0.7-0.7l-1.2,0.8l0.5-0.9l-0.4,0.2c0.9-1.7-0.5-1.1,0-2.6l-0.8,1c-2.9,0.7-1.8-3.6-4-4.2
				l0.7-0.7l-1.4,0.2c0.2-0.9,0.8-0.4,1-0.9c-1-0.2-1.2,0.8-2.2,0.3c0.1-0.8,0.6-0.4,1-0.5c-1-0.3-2.4-0.9-2.5-1.8
				c-0.1,0.1-0.2,0.2-0.3,0.2c-0.8-0.1-1.1-1-1.6-1.5c0.3-0.3,0.5-0.2,0.7-0.2c-0.1-0.2-0.2-0.7-0.6-0.5l0.8-0.4
				c-0.3-0.5-1.5-0.7-1-1.5c-0.2,0.3-0.7,0.8-1,0.5c0.8-1.2-1.3-0.4-1.3-1.5c0.3-0.2,0.8,0.1,0.7,0c0-0.5-0.7-0.3-1.3-0.2l0.5-0.4
				l-1.8-0.6c0.8-1.2-1.3-1-0.5-1.7c-0.4-0.5-0.1,0.8-0.8,0.4c0.3-0.6-0.7-0.3,0-0.9l0.1,0l-0.4-0.3l0.9-0.4
				c-0.5-0.2-1.4,0.3-1.9,0.8c0-0.7-0.7-0.8-0.3-1.6l0.3,0c-1.2-0.6,0.3-3.3-1.5-2.9c0-0.1,0.2-0.3,0.3-0.2l-0.5-0.6l0.6-0.4
				l-1.7-0.1l0.3-0.3c-0.5-0.7-1.6-1.5-2.5-2.1l0.3,0c-1.4-0.3-0.5-1.1-1.5-1.4c0.1-0.1,0.2-0.1,0.2-0.1l-0.6-0.5l0.4-0.2
				c-1.1,0.3-0.3-2.1-0.6-1.2c-0.6,0.1-1.3,0.1-1.8,0.5c-0.7-0.6,0.3-0.6,0.2-1.3c-0.4-0.5-1.1,0.1-1.4-0.8l0.3-0.3
				c-0.3-0.2-0.8-0.1-1.2-0.5l0.3-0.1c-1.3,0.1,0.2-1.8-1.8-0.8c0-0.5-0.7-0.8,0-1.5c-1.2-0.3-2.1-0.7-3.1-1.2
				c1-1.3-0.2-0.1-0.1-1.2l-0.5,0.6c-1.2-1-1-3.8-2.5-4.7l0.6-0.6l-0.9,0.4c-1.1-1.6-2.6-3.5-3.6-4.5c-0.7,0-1.9,0.2-2.2-0.6l0.1,0
				c-1.3-0.6-2.6-1.3-3.3-2.7c0.3-0.2,0.4-0.5,0.7-0.5c-0.9,0.4-0.6-0.6-0.9-0.8l-0.2,0.7c-0.9,0.3-0.7-0.7-0.5-1.3l-1.1,0.2
				c0-0.1,0.1-0.2,0.2-0.3l-0.4,0.2l0.5-1c-0.3,0-1.1-0.4-2,0.2c0.2-0.3,0-0.9,0.5-0.8L95,92l0,0.5c-0.6,0.6-1.4,0.5-1.4,0
				c0.8-0.1,0.9-0.8,1.1-1.4c-0.6,0.1-0.3,0.7-0.8,0.9c-0.7,0.1-1.5-0.3-1.4-0.7l0.4-0.1c-0.6-0.2,0.2-1.4-0.2-1.7
				c-0.8,0.1-0.7-0.6-1.6,0.5c-0.7-0.3,0.5-0.9,0.4-1.2c-0.7,0.3-1.1-0.8-0.7-1.4c-1.8,1.2-0.8-1.9-2.2-0.7l0.3-1.1
				c-0.3,0.3-1.2,1-1.7,0.8c0-0.7,0.7-1.2,0.9-1.7l-1.5,1.1c-0.5-3.2-3.8-4.7-4.7-7.8c-1.2-0.6-2.9-1.1-3.8-2.4l0.3,0l-0.7-1.4
				l0.2,1.3c-0.4-0.1-0.8,0-1-0.2c-0.6-1.7-1.5-3.8-3.6-4.6c-2.4,0.6,0.7-1.9-1.2-1.7c0.2-0.1,0.4-0.2,0.6-0.3
				c-1.4-0.4-2.2-0.7-4-0.8c1.5-1.3-0.6-0.6,0.2-1.2l-0.7,0.5c0.1-0.6-0.2-1.2,0.3-1.5l-1.1,0.3l0.6-0.6c-0.5-0.6-2.2-1.3-1.3-2.8
				c-2.3-0.4-4.1-2.9-5.6-4.8c-0.7,0.2-1.3-0.2-1.7-0.5l0.3-1.1c-0.6-0.2-1.9,0.3-1.8-0.5c0.1-0.1,0.2-0.1,0.2-0.1
				c-0.5-0.3-0.5-1-1.6-0.7c-0.4-0.5-0.4-1.3,0.3-1.8c-1.2,1.1-0.8-1.1-0.8-1.1S51.4,45.6,45,39.3c-6.4-6.3-14.1-12.5-20.1-12.2
				c-0.8,0.4-1.7,0.2-2.2,1.1c-0.6-0.2,0.3-1.4-0.4-0.9c0.1,0.9-1.7,1.3-1.9,2.6l-0.5-0.2c-0.5,0.3,0.9,0,0.1,0.7l1.2-1
				c0.1,0.4,0,0.8-0.3,1.3c0.7-0.2,2.4-1.4,2.3-0.2L23,30.4c0.5,0.5-0.4,1-0.5,1.3l-0.1-0.1l-0.1,1c0.1-0.7-1.4-0.4-1-0.1
				c0.3,0.9,0.1-0.4,0.7-0.1c0.3,0.2-0.3,0.7-0.7,1l0.5,0.5c-0.5,0.5-0.3-0.4-0.6,0.4l1.2,0.1c-1.2,1.4,1.3,0.1,0.4,1.6
				c-0.8-0.2-0.4,0.5-0.9,0.8l1.2,1.1c-0.1,0.3-0.7,0.1-0.5,0.2c-0.2,0.6,0.7,0,0.8,0.2c-0.3,0.4,0.8,0.8-0.1,1.6
				c0.2,1.3,1.4-0.7,1.6,0.4c-0.4,0.6-0.7-0.4-0.9,0.4l0.9,0.6c-0.3,0.2-1,0.7-1.1,0.3c1.2,2.7-0.5,6.4,2,7.6
				c-0.4,0.9-0.6,0.2-1.2,0.4c2.1,0.5,0.5,3.2,1.6,4.2l0.5-0.5c-0.1,3.1,2.8,4.1,3.8,6.5l0.2-0.6c0.7-0.2,1.2,0.1,1.7,0.2
				c-0.2,0.3-1.3,0.9-0.6,1.2c0.1-0.3,0.1-0.7,0.4-0.9c0.2,2.8,3.6,5.7,5.5,8.8c3.7,3,6.4,7.6,10,10.6c-0.5-0.5,0.9-1.5,1-0.8
				c-1.1,3.2,2.2,1.4,1.8,3.9c2.6,1.2,2.5,4.8,5.9,4.9l-0.6,0.6c0,0.5,0.5,0.2,0.8,0.4l-0.2,0.2c0.4,0.9,1.8,1.1,1.9,1.7l0.7-0.7
				c0.4,0.3-0.3,0.7,0.5,0.7l-0.3,0.3l1.1-0.2c-1.2,1.1,1,1.2,0.8,2c0.7,0.3,2.2,0.7,2.7,1.7c-0.5,0.8,0.5,1.7,0.8,2.6
				c1.3,1,3.2,2.5,4.5,4.2l0.7-0.8l0.4,0.3c-0.2,0.2-0.2,0.3-0.3,0.3c-0.6,1.2,1.2,0.6,1,1.5c0.5-0.9-0.2-0.4-0.4-0.6
				c0-0.7,1.1-1.1,1.1-0.3l-0.2,0.2l0.7-0.1c-0.6,0.6-0.6,1.2-1.1,1.8c1.4,1.1,3.3,1,4.4,2.5c-0.8,0.5,1.1,0.8-0.3,1.7
				c1.2,0.3,0.8-1.1,2-1.6c0.2,0.2,0.8,0.1,0.4,0.6c-0.4,0.2-0.5,0.9-0.8,0.8l0.6,0.4c0,0.1-0.3,0.2-0.5,0.2
				c1.8,0.4,1.2,2.7,2.8,2.9c0.5-0.4-0.3-0.5,0.2-0.9c1.8,0.1,0.1,1.6,1.6,1.9l-0.8,0.4c0.7-0.1,1.3-0.5,1.3,0.5
				c-0.6,0.8-1,0.2-1.5,0.3c0.3,0.4,1.3,1,1.7,0.1c0.6,0.2,0.2,0.9,0.2,1.3c0.2-0.2,0.1-0.8,0.6-0.9c0.2,0.9,1,1.7,1.6,2.4
				c-0.2,0.2-0.4,0.5-0.5,0.5C85.6,115.9,84,117.4,85,117.9z"/>
		</g>
	</g>
	<g id="XMLID_543_">
		<g id="XMLID_31_">
			<path id="XMLID_371_" class="st1" d="M49.1,170.7c0.1,0.1,0.2,0.2,0.3,0.3C49.3,170.9,49.2,170.8,49.1,170.7z"/>
			<path id="XMLID_370_" class="st1" d="M63.4,160.1l0,0.3C63.5,160.3,63.5,160.2,63.4,160.1z"/>
			<path id="XMLID_369_" class="st1" d="M40.8,177.4C40.8,177.3,40.8,177.3,40.8,177.4c-0.2,0-0.4,0.2-0.6,0.4L40.8,177.4z"/>
			<path id="XMLID_368_" class="st1" d="M92.1,135.8L92,136C92.1,135.9,92.1,135.9,92.1,135.8z"/>
			<path id="XMLID_367_" class="st1" d="M74.9,150.1c-0.1-0.2,0-0.3,0-0.4C74.8,149.7,74.8,149.8,74.9,150.1z"/>
			<path id="XMLID_366_" class="st1" d="M30.3,174.8l0.7,0.2C30.7,174.8,30.5,174.7,30.3,174.8z"/>
			<path id="XMLID_365_" class="st1" d="M24.6,184.2c0,0,0.1,0.1,0.1,0.1C24.7,184.2,24.7,184.2,24.6,184.2z"/>
			<path id="XMLID_364_" class="st1" d="M29.3,183c0-0.1,0-0.3,0-0.4C29.3,182.7,29.2,182.8,29.3,183z"/>
			<path id="XMLID_363_" class="st1" d="M29.3,182.4l0,0.2C29.4,182.5,29.4,182.5,29.3,182.4z"/>
			<path id="XMLID_362_" class="st1" d="M187,38c0.2-0.2,0.1-0.7,0-1.2L187,38z"/>
			<path id="XMLID_359_" class="st1" d="M116.5,112.2l0.1,0.2C116.6,112.3,116.5,112.2,116.5,112.2z"/>
			<path id="XMLID_357_" class="st1" d="M183.4,33.8l0.2-0.1C183.5,33.7,183.4,33.7,183.4,33.8z"/>
			<path id="XMLID_356_" class="st1" d="M33,169.5c-0.2-0.7,0.7-0.6,0.3-1C33.2,168.8,32.5,168.9,33,169.5z"/>
			<path id="XMLID_355_" class="st1" d="M105.2,90.5l0.1-0.2C105.2,90.4,105.2,90.5,105.2,90.5z"/>
			<path id="XMLID_353_" class="st1" d="M183.4,33.8l-0.3,0.1c0.1,0.1,0.2,0.1,0.3,0.2C183.4,33.9,183.4,33.8,183.4,33.8z"/>
			<path id="XMLID_352_" class="st1" d="M141.8,87.5L141.8,87.5c0,0.1,0,0.1,0,0.1L141.8,87.5z"/>
			<path id="XMLID_351_" class="st1" d="M143.8,86.9c0,0.1-0.1,0.3-0.1,0.4C143.9,87.2,143.9,87.1,143.8,86.9z"/>
			<path id="XMLID_350_" class="st1" d="M187,36.8l0-0.7C186.9,36.3,186.9,36.5,187,36.8z"/>
			<path id="XMLID_349_" class="st1" d="M157.6,72.1c0,0.1-0.1,0.1-0.1,0.2C157.6,72.2,157.6,72.1,157.6,72.1z"/>
			<path id="XMLID_348_" class="st1" d="M73.7,150.8c-0.1,0-0.1,0-0.2,0C73.6,150.9,73.6,151,73.7,150.8z"/>
			<polygon id="XMLID_347_" class="st1" points="71.9,129.3 71.9,129.3 71.9,129.3 			"/>
			<path id="XMLID_346_" class="st1" d="M71.9,130.4c0.3-0.1,0.2-0.6,0-1.1C71.7,129.4,71.7,129.7,71.9,130.4z"/>
			<path id="XMLID_345_" class="st1" d="M73.3,128.4c0,0-0.1,0-0.1,0C73.2,128.4,73.2,128.4,73.3,128.4z"/>
			<path id="XMLID_344_" class="st1" d="M61.8,138.1L61.8,138.1C61.8,138.2,61.8,138.2,61.8,138.1L61.8,138.1z"/>
			<path id="XMLID_343_" class="st1" d="M63.8,136c0.1,0,0.2,0.1,0.3,0.1C64,136,63.9,135.9,63.8,136z"/>
			<polygon id="XMLID_46_" class="st1" points="77.3,121.9 77.3,121.9 77.3,121.9 			"/>
			<path id="XMLID_45_" class="st2" d="M94,98.9c-1.7,2.2-3.5,5.7-5.7,7.4c0.5,1.3-0.1,2-0.6,2.8l-1.3-1.1l-0.1,0.9
				c-0.6-0.1,0.2-0.6-0.6-0.7l0.5,0.9c-0.5-0.4-0.5,4.4-0.5,2.7l-1-1c-0.5,0.4,0.1,1.8-0.7,2c-0.5-0.2-1.4,0.7-1.8,0.3
				c-2.4,0.6,0.4,2.1-1.6,2.9l0-0.3c0.1,0.6-0.4,1-0.3,1.1c1.4,1-0.4-0.9,0.7-0.6c1,1.1,0,1.1,0.8,1.8c-0.7,0-0.3,0.7-0.5,1.1
				c-1.1-0.2-1.4,1-2.5,0.6c0.1,0.6,0.8,1.8,0.3,2.4c-1.2-0.4-0.7-0.8-1.5-0.6l0.5,0.7c-0.5,0.3-0.6,0.1-0.9-0.2
				c-0.5,0.4,0.4,1.2-0.5,1.3l-0.3-0.9c-0.2,0.6-0.4,0.7-1.1,1.2c-0.3-0.4-0.1-0.6,0.2-0.6c-1.2-0.6-0.1,0.9-0.4,1
				c0.3,0.2,0.8-0.1,1.2,0.7c-0.4,0.2,0.2,1.4-0.7,0.9l-0.3-0.9c-0.1,1,0.4,1-0.5,1.5c0-0.1-0.2-0.2-0.3-0.3c0.3,1.2-0.9,1-1.6,1.6
				l0-0.3c-0.1,0.5,0.3,1.1,0.2,1.2c0.7,0,0.8,0.3,1.4,0.8c-1.4-0.5,0.4,1.8-0.9,2c-0.3-0.3-0.5-0.9,0-0.8c-0.7-1.3-1.5-2.1-1.5-3.1
				c-0.1,0.5-0.3,1-0.6,0.5l0.8,1c-0.2,0.2-0.3,0.3-0.5,0.4c0.5,0.7,1.3,0.6,1.3,1.4c-0.2,0.8-1.2-0.7-0.9-0.2
				c-0.3,1,0.7,1.3-0.2,1.6c0-0.1-0.1-0.4,0.1-0.4c-0.8,0.1-0.9,1.2-2.2,0.3c-0.2-0.3-0.5-0.7-0.2-0.7l0.2,0.2
				c-0.3-1.3-0.2,0.6-1-0.5c0.6,0.6-0.1,1-0.5,1.2l0.8,0.6c1.1,3-1.3-1.4-2-0.2c-0.1,1,0.4,0,0.5,0.8c-0.5,0.3-1.3-0.2-1.5,0.7
				c-0.4-0.1-1.1-0.1-1.9-0.9c0,0.7-1.4,0.7-0.9,1.7c1.2,0-0.2-1.4,1.5-1.1l0.6,0.9c-0.5,0.4-0.8,1.4-1.4,1.5
				c0.2,0.1,0.4,0.2,0.6,0.4c-0.4,1,0.1,1.9-0.8,2.4c-0.8-0.6-0.3-0.9,0-1.2c-1-0.1-0.5,0.4-1.4,0.9c-0.6-0.6,0.5-0.4,0-1.1
				l-0.6,0.9c0,0-0.1-0.1-0.1-0.1c0.9,1.1-0.7,0.5-0.8,1.2c-1.1,1.1,0.1,2.6,0.3,4c-0.4-0.1-0.7-0.3-0.9-0.6
				c0.7,0.2,0.3-0.1,0.1-0.5c-0.3,0.5-1.8-0.2-2-0.8c-0.3,0.9,0.7,0.3,0.7,1l-0.9,0.7c0.6,0.4,1,0.3,1,1.1c-0.2,0.5-0.5,0.6-1,1
				c-0.2-0.3-0.9-0.6-0.6-0.9c-0.4,0-0.8,0.3-0.4,1c1,0-0.4,1.2,0.8,1.7l-1,0c0.1-0.1-0.2-0.5,0.1-0.5c-0.9-0.6-0.2,0.6-0.3,0.9
				c-0.3,0-0.8,0.4-1.2,0.1c0.1,0.4-0.5,0.6-1,0.3c-0.1,0.4,0.5,0.5,0.7,0.8l-0.9,0.7c-0.5-0.4-1.7-1.5-1.8-1.8
				c0.1,0.7,1.2,1.4,0.7,1.8c-0.6-1.1-1.2,0-1.9-1.4c-0.9-0.4-1.6,0.4-1.8,1c0.4,0.9,0.8-0.1,1.5,0.6c-0.9,1.4,0.9,3.3-0.3,3.8
				l0.4,0c-0.1,0.9-0.2,0.8,0.1,1.6c-0.7-1-2.9-1.7-3.5-0.6c0.4,0.5,1.3,0.3,1.8,1.1l-0.4,0.7c-0.1,0-0.2-0.2-0.2-0.4
				c-0.2,0.8-2-0.1-1.2,1l-1.8-0.7l0.7,0.3c0.3,0.5-0.1,1.2-0.1,1.5c-0.1,1-0.7,0.9-1.6,0.7c0.5,0.2,1.5,0.8,1.2,1.4
				c-1.4-1.4-1.5,0.5-2.2-0.3c-0.2,0.2-0.9,0.1-0.4,0.7l-0.8-0.9c1.1,1.2,0.4,1.8,0.1,2.6c-1.5-1.7-0.4,0.7-2.1-0.5
				c1,1.2-0.5,1.4,0.4,2.4c-0.3,0.5-1.3-0.6-1.8-0.8l0.2,0.6c-0.7-0.3-1.5,0.4-2.3,0.5l0.6,1.4l-0.6-0.3c0.2,0.3,0,0.8,0.6,0.9
				l-0.3,0.2c1,1.1,0,0.6,0,1.5c-0.3-0.1-0.5-0.3-0.5-0.6c-0.2,0.2-0.7-0.4-1.2-0.6c0.4,0.1,1.1,2.7,2.2,2.5c0.5,0.4,0.4,1,0,1.1
				l-1.1-0.8l0.7,1.3c-0.2,0.5-1,0-1.3,0.2c0.2-0.3-1.2-2.4-1.9-1.7c0.3-0.5-0.1-1.2-0.1-1.6c-0.2,0.1-0.4,0.1-0.5-0.5
				c-0.3,0.9,0.4,0.8-0.1,1.5c-0.8-0.9-1.3-1-2-0.8l1,0.2c0.1,0.1,0.1,0.2,0.2,0.3c0.2-0.1,0.4,0,0.8,0.3c-0.1,0.1,0.4,1.7-0.2,1.3
				c1.9,0.7,0,2,1.2,2.4c0.2,0.3-0.2,0.8-0.6,0.4c-0.2-1.1-1.3-0.6-1.8-1.3c0.1,0.4,1,0.2,1.1,0.8c-0.2,0.3-1,0-1.4-0.1l0-0.3
				l-0.8,0.1c0.4,0.5,1.1,0.3,1,0.9c-0.3-0.1-0.5,0.6-0.8,0.2c-0.4-0.8-1.3-1.4-1.1-1.9c-0.2,0.3-1,1.4,0.1,1.8l-0.4,0.3
				c0.6,0.1,1.8,0.2,1.3,1l-0.2-0.2l0.2,1.1l-0.6-0.2c0.2,0.2,0.3,0.5,0.2,0.6c-0.3-0.2-0.6-0.1-0.9-0.5c-0.5,0.6,0,0.9,0.2,1.3
				c-0.2,0.3-0.5,0.3-0.9-0.3c-0.5,0.3-1.1,1.1-1.8,0.9c-0.1,0.9,0.3,0.1,0.6,0.9c-1.9-1-2.3,1.2-3,2.2c1.5,1-0.1,0.4,1,1.7
				c-0.2-0.6-1.8-0.2-1.4-1.3l-0.3,0.6c-1-0.4,0.2-1.3-1.2-1.8c-0.5,0.6,0.6,2.3-0.4,2.4c-0.7-1.1-0.2,0.8-1-0.4
				c-0.2-0.5,0.1-0.5,0.2-0.8l-0.3-0.1c-1.4,0.9,0.8,1.4,0.8,2.6c-0.6,0.8-1.3-0.2-1.7-0.6c-0.3-0.1-0.5,0.4-0.4,0.8
				c-0.2-1,1.3-0.2,1.7,0.5c-1.4-0.7-1.1,0.9-0.9,1.5c2.1,0.1,0.7-0.6,2.8-0.4c-0.2-0.5-1.2-1.4-0.2-1.5c0.1,0.8,0.6,0.5,0.8,0.5
				c-0.7-0.4,0.2-0.6,0.1-1c0.6,0.3,0.9,1.6,1.7,1.2l-1.2-1.4c0.4,0,0.8,1,1,0.2c0.4,0.9,1.1,0.9,0.7,1.8c1.8,0.3,0.5-1.7,0.7-2.8
				c0,0.1,0.2,0.3,0.2,0.5c-0.2-0.5,0-0.7,0.1-0.9c0.7-0.1,0.3,0.9,0.7,1.1l0.6-0.7c0.1,0,0.1,0,0.1,0.1c0-0.3,0-0.6,0.4-0.4
				c0.2,0.6,0.6,1.1,0.8,1.5l-0.2-1.5c0.4,0.5,1.3,0.2,1.1,0.9l0.8-1.2l0.9,0.8c0.1-0.4-0.1-0.6-0.5-0.4c0.5-0.1-0.1-3,1.5-1.1
				c0-1.5,0.6-1.5,1.1-2.8c0.1,1.5,1.8,0.2,1.4,1.3c0.8-0.1,0-1.1,0.2-1.6c0.7,0,1.4,1,1.4,1.7l0-0.8l0.2,0.2l-0.1-0.8
				c0.8,0.1,0.9,0.8,1.5,0.5l-0.7-0.8l0.7,0.2c-0.4-0.2-0.4-0.6-0.1-1l0.2,0.2l0.2-0.5c0.1,0.8,0.5-0.2,0.9,0.5
				c0.3-0.3,0.3-0.3,0.7-0.9l-0.6-0.4c0.2-1.1,0.8,0.7,1.4,0.2l-0.6-0.6c1.8,0.2,0.8-1.9,2-1.9c-0.2,0.5,0.6,1.1,0.4,0.9
				c0.3-0.7,1.3-1.4,1.1-2.7c1.1,0.7,1.4,0.9,2.3,0.7c0.3-0.5,0.3-0.6-0.1-1.2c0.7-0.1,0.9-1.3,1.6-0.7c-0.4-0.6,0.4-0.3,0.2-0.9
				l0.3,0.2l-0.6-0.6c2,0.6,0.4-1.9,2.3-1.5l0,0.3l0.1-0.5c0.3,0.2,0.4,0.5,0.7,0.8l1.5-1.2l-0.7-0.2c0.2-0.3-0.2-1.1,0.5-1.1
				c0.4,1.4,0.5-0.4,1.3,0.2l-0.1,0.5c0.3-0.5,0.3-0.5-0.3-1c0.3-0.7,1.5,0.8,1.3-0.3l-0.4,0.3c-0.4-0.2-0.7-1-0.5-1.2
				c0.1,0,0.6,0.1,0.5,0.4c0.2-0.6,1.1-0.9,1-1.4c0.4,0,0.8,0.5,0.8,0.7c0.3-1.4,0.5-0.3,0.9-1.7l0.3,0.4l-0.1-0.7l1.1,0.3l-0.6-0.3
				c0.2-0.3,0.2-0.8,0.7-0.9l0.4,0.6c0.5-1.1,1.8-0.1,1.8-1.6c0.1,0,0.2,0.3,0.2,0.5c-0.1-1.5,1.4,0.4,1.2-1.3
				c0.1,0.2,0.4,0.3,0.5,0.5l0-0.6l0.7,0.7l-0.7-1.3l0.9,0.5L64,159c1.6,0.9,1.2-0.5,2.6,0l-0.9-0.8c-0.6-3,3.7-1.7,4.3-4l0.7,0.7
				l-0.2-1.4c0.9,0.2,0.4,0.8,0.8,1c0.3-1-0.7-1.3-0.2-2.2c0.8,0.1,0.4,0.6,0.4,1c0.4-1,1-2.4,1.9-2.5c-0.1-0.1-0.2-0.3-0.2-0.3
				c0.2-0.8,1.1-1.1,1.5-1.6c0.3,0.3,0.2,0.5,0.2,0.7c0.2-0.1,0.7-0.2,0.5-0.7l0.4,0.8c0.5-0.3,0.7-1.6,1.5-1
				c-0.3-0.2-0.8-0.7-0.4-1c1.2,0.8,0.5-1.4,1.6-1.3c0.2,0.3-0.2,0.8,0,0.7c0.5,0,0.3-0.7,0.2-1.3l0.3,0.5l0.7-1.8
				c1.2,0.8,1-1.3,1.7-0.5c0.5-0.4-0.8-0.1-0.4-0.8c0.6,0.3,0.3-0.7,1,0l0,0.1l0.3-0.5l0.4,0.9c0.2-0.5-0.2-1.4-0.7-1.9
				c0.7,0,0.9-0.7,1.6-0.3l0,0.3c0.7-1.2,3.3,0.3,2.9-1.5c0.1,0,0.3,0.2,0.2,0.3l0.6-0.5l0.4,0.6L88,139l0.3,0.3
				c0.8-0.5,1.5-1.6,2.2-2.5l0,0.3c0.3-1.4,1.2-0.5,1.4-1.5c0.1,0.1,0.1,0.2,0.1,0.2l0.6-0.6l0.2,0.5c-0.3-1.2,2.2-0.3,1.3-0.6
				c-0.1-0.6-0.1-1.4-0.4-1.8c0.6-0.7,0.6,0.3,1.3,0.2c0.5-0.4,0-1.1,0.9-1.4l0.3,0.4c0.2-0.3,0.2-0.8,0.5-1.2l0,0.3
				c-0.1-1.4,1.8,0.2,0.8-1.8c0.5,0,0.9-0.7,1.5,0c0.4-1.2,0.8-2.1,1.3-3.1c1.2,1,0.1-0.2,1.2-0.1l-0.6-0.6c1.1-1.2,3.8-1,4.9-2.5
				l0.6,0.6l-0.4-0.9c1.6-1.1,3.6-2.6,4.7-3.6c0-0.7-0.1-1.9,0.6-2.3l0,0.1c0.6-1.3,1.4-2.6,2.8-3.3c0.2,0.3,0.5,0.4,0.5,0.7
				c-0.4-0.9,0.6-0.7,0.8-0.9l-0.7-0.2c-0.3-0.9,0.7-0.8,1.3-0.5l-0.2-1.1c0.1,0,0.2,0.1,0.3,0.2l-0.2-0.4l1,0.5
				c0-0.3,0.4-1.1-0.2-2.1c0.3,0.2,1,0,0.8,0.5l2-1.5l-0.6,0c-0.6-0.6-0.5-1.5,0.1-1.5c0.1,0.8,0.8,0.9,1.4,1.2
				c-0.1-0.6-0.7-0.3-0.9-0.8c-0.1-0.7,0.3-1.5,0.8-1.4l0.1,0.4c0.2-0.6,1.4,0.2,1.8-0.2c-0.1-0.8,0.6-0.7-0.5-1.6
				c0.3-0.7,0.9,0.5,1.2,0.4c-0.2-0.7,0.8-1.1,1.4-0.7c-1.2-1.8,1.9-0.8,0.8-2.2l1.1,0.3c-0.3-0.4-1-1.2-0.8-1.7
				c0.7,0,1.2,0.7,1.6,1l-1-1.5c3.2-0.5,4.8-3.9,8-4.8c0.7-1.2,1.2-2.9,2.5-3.8l0,0.3l1.4-0.7l-1.4,0.2c0.1-0.4,0-0.8,0.3-1
				c1.7-0.6,3.9-1.5,4.7-3.6c-0.5-2.4,1.9,0.7,1.7-1.3c0.1,0.2,0.2,0.4,0.3,0.7c0.5-1.4,0.8-2.2,0.9-4c1.3,1.6,0.6-0.7,1.3,0.2
				l-0.5-0.7c0.6,0.1,1.2-0.2,1.5,0.3l-0.3-1.2l0.6,0.6c0.6-0.5,1.3-2.2,2.8-1.3c0.5-2.3,3-4.2,5-5.7c-0.2-0.7,0.2-1.3,0.6-1.7
				l1.1,0.3c0.2-0.6-0.3-2,0.6-1.9c0.1,0.1,0.1,0.2,0.1,0.2c0.3-0.6,1-0.6,0.8-1.6c0.5-0.4,1.3-0.5,1.8,0.3
				c-1.1-1.2,1.1-0.8,1.1-0.8S187.6,50,187,38c-0.4-0.8-0.2-1.7-1.1-2.2c0.2-0.6,1.4,0.2,0.9-0.4c-0.9,0.1-1.3-1.7-2.6-1.9l0.2-0.5
				c-0.3-0.5,0,0.9-0.7,0.1l1,1.2c-0.4,0.1-0.8,0-1.3-0.2c0.2,0.7,1.4,2.4,0.2,2.3l0.1-0.2c-0.5,0.5-1-0.4-1.3-0.5l0.1-0.1l-1-0.1
				c0.7,0,0.4-1.4,0.1-1c-0.9,0.3,0.4,0.1,0.1,0.7c-0.2,0.3-0.7-0.3-1-0.7l-0.5,0.5c-0.5-0.5,0.4-0.3-0.4-0.6l-0.1,1.2
				c-1.4-1.2-0.1,1.3-1.6,0.4c0.2-0.8-0.5-0.4-0.8-0.9l-1.1,1.2c-0.3-0.1-0.1-0.7-0.2-0.5c-0.6-0.1,0,0.7-0.2,0.8
				c-0.4-0.3-0.8,0.9-1.7,0c-1.3,0.2,0.7,1.4-0.5,1.6c-0.6-0.4,0.5-0.7-0.4-0.9l-0.6,0.9c-0.2-0.3-0.7-1-0.3-1.2
				c-2.7,1.3-6.5-0.4-7.7,2.1c-0.9-0.4-0.2-0.6-0.4-1.2c-0.5,2.1-3.2,0.5-4.3,1.7l0.5,0.5c-3.2,0-4.2,2.8-6.6,3.9l0.6,0.1
				c0.2,0.7-0.1,1.2-0.2,1.7c-0.3-0.2-0.9-1.3-1.2-0.6c0.3,0.1,0.7,0.1,0.9,0.4c-2.9,0.2-5.8,3.7-9,5.6c-3.1,3.8-7.8,6.4-10.8,10.1
				c0.5-0.5,1.5,0.9,0.8,1c-3.2-1.1-1.5,2.2-4,1.8c-1.3,2.6-4.9,2.5-5.1,5.9l-0.6-0.6c-0.5,0-0.2,0.5-0.4,0.8l-0.2-0.2
				c-0.9,0.4-1.1,1.9-1.8,2l0.6,0.7c-0.3,0.5-0.7-0.3-0.8,0.5l-0.3-0.4l0.2,1.1c-1.1-1.2-1.2,1-2.1,0.8c-0.3,0.7-0.8,2.2-1.8,2.8
				c-0.8-0.5-1.7,0.5-2.6,0.8c-1.1,1.3-2.6,3.2-4.3,4.5l0.8,0.7l-0.3,0.4c-0.2-0.2-0.3-0.2-0.3-0.4c-1.2-0.6-0.7,1.2-1.5,1
				c0.9,0.5,0.4-0.2,0.6-0.4c0.7,0,1.1,1.1,0.3,1.2l-0.2-0.2l0.1,0.7c-0.6-0.6-1.2-0.6-1.8-1.1c-1.2,1.4-1,3.4-2.7,4.4
				c-0.5-0.8-0.8,1.1-1.7-0.3c-0.4,1.2,1.1,0.8,1.5,2c-0.2,0.2-0.2,0.8-0.6,0.4c-0.2-0.4-0.9-0.5-0.8-0.8l-0.5,0.6
				c-0.1,0-0.2-0.3-0.2-0.5c-0.4,1.8-2.7,1.2-3,2.8c0.3,0.5,0.5-0.3,0.9,0.2c-0.2,1.8-1.6,0.1-2,1.6l-0.4-0.8
				c0.1,0.7,0.5,1.3-0.5,1.4c-0.8-0.6-0.1-1-0.2-1.5c-0.4,0.3-1.1,1.3-0.2,1.7c-0.2,0.6-0.9,0.2-1.3,0.2c0.2,0.2,0.8,0.1,0.9,0.6
				c-0.9,0.2-1.8,1-2.5,1.6c-0.2-0.2-0.5-0.4-0.5-0.5C96,99.5,94.5,97.9,94,98.9z"/>
			<path id="XMLID_44_" class="st1" d="M61.4,138.3l0.4-0.2c-0.2-0.2-0.3-0.3-0.4-0.6L61.4,138.3z"/>
			<path id="XMLID_43_" class="st1" d="M74.8,125.8c0-0.1,0-0.2-0.1-0.3C74.6,125.6,74.7,125.7,74.8,125.8z"/>
			<path id="XMLID_42_" class="st1" d="M76.7,121.5c-0.1,0.4,0.3,0.4,0.6,0.4C77.2,121.8,77,121.6,76.7,121.5z"/>
			<path id="XMLID_41_" class="st1" d="M55.9,147.4c0-0.1-0.1-0.2-0.2-0.4C55.7,147.3,55.8,147.4,55.9,147.4z"/>
			<path id="XMLID_40_" class="st1" d="M35.3,167.3c0.1,0,0.1,0,0.2,0C35.4,167.3,35.3,167.3,35.3,167.3z"/>
			<path id="XMLID_39_" class="st1" d="M37.5,167.2c0.1-0.1,0.1-0.1,0.1-0.3C37.5,167,37.4,167.1,37.5,167.2z"/>
			<path id="XMLID_38_" class="st1" d="M60.5,142.3c0.1-0.1,0.1-0.2,0-0.4C60.4,142,60.5,142.1,60.5,142.3z"/>
			<path id="XMLID_37_" class="st1" d="M37.7,166.5l0.4-0.2c0,0-0.1-0.1-0.1-0.1L37.7,166.5z"/>
			<path id="XMLID_36_" class="st1" d="M34.8,167.6c0.1-0.1,0.3-0.2,0.4-0.3C34.9,167.3,34.8,167.4,34.8,167.6z"/>
			<path id="XMLID_35_" class="st1" d="M49.4,155.8C49.4,155.8,49.4,155.7,49.4,155.8C49.3,155.2,49.3,155.5,49.4,155.8z"/>
			<polygon id="XMLID_34_" class="st1" points="37.7,164.1 37.8,164.1 37.7,163.8 			"/>
			<path id="XMLID_33_" class="st1" d="M33.4,168.5c0-0.1,0.1-0.1,0-0.3c-0.1,0-0.1,0-0.2,0.1C33.2,168.4,33.3,168.5,33.4,168.5z"/>
			<path id="XMLID_32_" class="st1" d="M44.1,159c0.2,0.3,0.3,0.5,0.4,0.7C44.6,159.5,44.6,159.4,44.1,159z"/>
		</g>
	</g>
	<g id="XMLID_9_">
		<path id="XMLID_30_" class="st3" d="M95.1,65.6c-0.1,0.2-0.2,0.5-0.1,0.6L95.1,65.6z"/>
		<path id="XMLID_29_" class="st3" d="M98.8,62.6c0,0-0.1,0.1-0.1,0.2C98.7,62.8,98.7,62.8,98.8,62.6z"/>
		<path id="XMLID_28_" class="st3" d="M98.5,62.9l0.1-0.1C98.6,62.8,98.6,62.8,98.5,62.9z"/>
		<path id="XMLID_27_" class="st3" d="M91.9,66.2c-0.5,0.4-0.3-0.4-0.6,0.1C91.4,66.3,91.4,66.8,91.9,66.2z"/>
		<polygon id="XMLID_26_" class="st3" points="86.3,43.1 86.3,43.1 86.3,43.1 		"/>
		<path id="XMLID_25_" class="st3" d="M86.7,43.7c0.2,0-0.1-0.4-0.5-0.6C86.2,43.2,86.3,43.3,86.7,43.7z"/>
		<path id="XMLID_24_" class="st3" d="M83.4,49C83.4,49,83.4,49,83.4,49C83.4,49,83.4,49,83.4,49L83.4,49z"/>
		<polygon id="XMLID_23_" class="st3" points="87.8,38.6 87.8,38.7 87.8,38.7 		"/>
		<path id="XMLID_20_" class="st3" d="M120.8,52.5L120.8,52.5L120.8,52.5L120.8,52.5l0.1-0.5l0,0l0,0l0,0l0.1,0
			c0.1,0,0.1-0.1,0.2-0.1c0.1,0,0.2-0.1,0.3-0.1c0.2-0.1,0.3-0.2,0.3-0.3c0.1-0.2,0-0.4-0.1-0.5c-0.2-0.4-0.6-0.7,0.3-1.2
			c-0.5-0.7-0.3-1.5-0.2-2.3c0.1-0.8,0-1.5-1.3-1.9l0.7-0.3c0.3-0.3-0.3-0.2-0.4-0.4l0.2-0.1c0.1-0.6-0.9-1-0.6-1.4l-0.8,0.3
			c-0.2-0.3,0.6-0.4,0-0.5l0.4-0.2l-0.9,0c1.4-0.6-0.3-0.9,0.2-1.4c-0.5-0.3-1.4-0.6-1.5-1.3c0.6-0.5,0.2-1.2,0.2-1.9
			c-0.8-0.7-1.9-1.7-2.6-2.8l-0.7,0.7l-0.3-0.2c0.2-0.2,0.2-0.3,0.3-0.3c0.6-1-0.8-0.3-0.6-1c-0.5,0.8,0.1,0.3,0.2,0.4
			c-0.1,0.5-0.9,1.1-0.9,0.5l0.1-0.2l-0.5,0.2c0.5-0.6,0.5-1,1-1.7c-1-0.6-2.4,0.1-3.2-0.8c0.5-0.7-0.9-0.2,0.1-1.4
			c-0.9,0.2-0.5,1.1-1.3,1.9c-0.2-0.1-0.5,0.2-0.3-0.3c0.2-0.3,0.3-0.9,0.5-0.9l-0.5-0.1c0-0.1,0.2-0.3,0.3-0.3
			c-1.2,0.4-1.3-1.6-2.4-1.1c-0.2,0.5,0.3,0.3,0,0.8c-1.2,0.8-0.5-1.2-1.5-0.7l0.4-0.7c-0.4,0.4-0.7,1-1,0.3c0.1-0.9,0.5-0.6,0.9-1
			c-0.2-0.1-0.4-0.1-0.7,0c-0.3,0.1-0.5,0.3-0.5,0.7c-0.5,0.2-0.5-0.6-0.8-0.9c0,0.2,0.4,0.7,0,1c-0.3-0.3-0.7-0.5-1.1-0.6
			c-0.2-0.1-0.4-0.1-0.6-0.1c-0.1,0-0.1,0-0.2-0.1c0-0.2,0-0.6,0-0.7c-0.3,1.1-0.1-0.8-0.5-0.6l-0.2,0.1l-0.1,0l0,0l0,0l0,0l0,0
			l-0.7,0l0,0l0,0l0,0c-0.3,0.1-0.5,0.2-0.8,0.2c-0.5,0.2-1.1,0.4-1.6,0.6c-1,0.4-2,0.8-2.9,0.9c-0.1,1.2-0.6,1.4-1,1.9L94,30.9
			l-0.3,0.6c-0.4-0.4,0.2-0.4-0.3-0.8l0.2,1c-0.2-0.5-1.3,0.1-1-1.2c0,0-0.5,0.2-0.9,0.4c-0.4,0.2-0.9,0.4-0.9,0.4
			c-0.4,0.2,0.4,1.3-0.2,1.1c-0.3-0.4,0-0.4-0.3-0.8c-1.9-0.3,0.3,3.4-1.1,3.4l0-0.2c0.1,0.5-0.2,0.6-0.1,0.8
			c1.1,1.2-0.4-0.8,0.5-0.3c0.8,1.1,0.1,0.8,0.7,1.6c-0.5-0.2-0.1,0.5-0.2,0.6c-0.8-0.4-0.8,0.4-1.7-0.2c0.2,0.4,0.9,1.5,0.7,1.8
			c-0.9-0.5-0.7-0.7-1.2-0.7l0.5,0.6c-0.3,0.1-0.4,0-0.7-0.3c-0.2,0.2,0.6,0.9,0,0.9l-0.4-0.7c0,0.4-0.1,0.4-0.5,0.7
			c-0.3-0.3-0.2-0.4,0-0.4c-1-0.5,0.1,0.6,0,0.6c0.3,0.2,0.6,0.1,1.1,0.6c-0.2,0.1,0.6,0.9-0.2,0.5l-0.5-0.6
			c0.2,0.7,0.6,0.7,0.1,0.9c0-0.1-0.2-0.2-0.3-0.3c0.6,0.8-0.3,0.6-0.6,0.9l-0.1-0.2c0.1,0.3,0.7,0.7,0.6,0.8c0.5,0,0.7,0.2,1.3,0.6
			c-1.2-0.4,1,1.1,0.2,1.1C88,44,87.6,43.7,88,43.8c-1.1-0.8-2-1.4-2.4-2c0.2,0.3,0.2,0.6-0.3,0.3l1,0.7c0,0.1-0.1,0.2-0.2,0.2
			c0.7,0.4,1.2,0.4,1.5,0.9c0.2,0.4-1.2-0.5-0.7-0.2c0.2,0.6,1.1,0.7,0.6,0.9c-0.1-0.1-0.2-0.2-0.1-0.2c-0.6,0-0.1,0.7-1.4,0.2
			c-0.3-0.2-0.7-0.4-0.5-0.4l0.2,0.1c-0.8-0.7,0.2,0.4-1-0.3c0.7,0.3,0.4,0.6,0.2,0.7l0.9,0.3c2.3,1.5-1.6-0.7-1.5,0
			c0.4,0.6,0.3-0.1,0.8,0.4c-0.2,0.2-1,0-0.8,0.5c-0.4,0-0.9,0.1-1.9-0.2c0.3,0.4-0.7,0.7,0.3,1c0.9-0.2-0.9-0.7,0.5-0.8l0.9,0.4
			c-0.2,0.3,0.2,0.8-0.2,1c0.2,0,0.4,0,0.6,0.1c0.3,0.5,1.2,0.8,0.8,1.2c-0.9-0.1-0.7-0.3-0.7-0.5c-0.8,0.1-0.1,0.3-0.5,0.7
			c-0.8-0.1,0.1-0.3-0.6-0.5l0.1,0.6c0,0-0.1,0-0.2,0c1.3,0.3-0.2,0.4,0.2,0.9c-0.1,1,1.7,0.8,2.7,1.2c-0.4,0-0.7,0.1-1,0
			c0.6-0.1,0.1-0.1-0.2-0.1c0.1,0.2-1.3,0.3-1.8,0.2c0.4,0.3,0.7-0.1,1.1,0.1l-0.1,0.3c0.7,0,0.8-0.1,1.3,0.1c0,0,0.1,0.1,0.1,0.1
			l0,0l0,0.3l0,0l0,0l0,0l0,0.1c0,0.1-0.1,0.2-0.1,0.3c-0.3,0-1,0.1-1-0.1c-0.2,0.1-0.3,0.4,0.4,0.4c0.6-0.3,0.6,0.5,1.6,0.2
			L86,53.2c0-0.1-0.4,0-0.3-0.2c-1,0.2,0.3,0.2,0.4,0.3c-0.2,0.1-0.2,0.4-0.6,0.5c0.3,0.1,0.1,0.3-0.4,0.4c0.2,0.1,0.7-0.1,1-0.1
			l0,0.5c-0.6,0.1-2.1,0.4-2.3,0.4c0.5,0.1,1.6-0.2,1.6,0.1c-1.1,0-0.8,0.5-2.1,0.5c-0.8,0.3-0.6,0.9-0.3,1.1c0.9,0,0.4-0.4,1.3-0.6
			c0.5,0.7,2.8,0.1,2.6,0.6l0.2-0.2c0.6,0.1,0.5,0.1,1.2,0.1c-1.1,0.2-2.7,1.3-2.3,1.7c0.5-0.2,0.9-0.7,1.7-0.9l0.3,0.2
			c-0.1,0.1-0.3,0.1-0.4,0.1c0.5,0.1-1.1,1.1,0.1,0.6l-1.3,0.9L87,59c0.5-0.2,0.8,0.1,1,0c0.7,0,0.3,0.3-0.2,0.8
			c0.4-0.3,1.2-0.9,1.5-0.7C87.7,60,89,60,88.2,60.4c0.1,0.1-0.3,0.6,0.3,0.2l-1,0.6c1.3-0.8,1.5-0.4,1.9-0.3
			c-1.8,1.1,0.3,0.2-1.2,1.4c1.2-0.8,0.8,0.1,1.8-0.6c0.2,0.1-0.8,1-1.2,1.3l0.5-0.2c-0.4,0.5-0.2,1-0.3,1.5l1.1-0.7L89.8,64
			c0.3-0.2,0.5-0.2,0.8-0.6l0,0.1c1-1,0.4-0.1,1-0.4c-0.1,0.2-0.3,0.4-0.5,0.5c0.1,0.1-0.4,0.6-0.7,1c0.2-0.3,2-1.5,2.2-2.2
			c0.4-0.4,0.8-0.6,0.7-0.4l-0.8,1l1-0.9c0.2,0-0.2,0.6-0.2,0.8c-0.2,0-1.8,1.6-1.4,1.9c-0.3,0-0.8,0.4-1.1,0.5c0,0.1,0,0.2-0.4,0.5
			c0.6,0,0.6-0.5,1-0.4c-0.7,0.9-0.8,1.2-0.8,1.7l0.3-0.8c0.1-0.1,0.2-0.2,0.2-0.2c0-0.2,0.1-0.3,0.3-0.7c0.1,0.1,1.2-0.8,0.8-0.3
			c0.7-1.6,1.3-0.7,1.7-1.7c0.2-0.2,0.4-0.2,0.1,0.3c-0.7,0.5-0.5,1.2-1,1.8c0.3-0.2,0.3-0.8,0.6-1.1c0.2,0-0.1,0.7-0.2,1l-0.2,0.1
			l0,0.6c0.3-0.5,0.3-0.9,0.6-1.1c-0.1,0.2,0.3,0.1,0.1,0.5c-0.5,0.6-0.9,1.5-1.2,1.6c0.2,0,0.8,0.2,1.1-0.8l0.2,0.1
			c0.1-0.5,0.2-1.4,0.6-1.3l-0.1,0.2l0.6-0.6l-0.1,0.6c0.1-0.3,0.3-0.5,0.4-0.4c-0.1,0.3-0.1,0.5-0.3,0.9c0.3,0.1,0.5-0.5,0.7-0.7
			c0.2,0,0.2,0.2-0.2,0.8c0.2,0.2,0.6,0.2,0.6,0.9c0.5-0.4,0-0.2,0.4-0.9c-0.4,1.9,0.8,1,1.4,0.9c0.2-1.7,0.2-0.2,0.6-1.6
			c-0.2,0.5,0.3,1.4-0.3,1.8l0.4-0.1c0.1,1-0.7,0.6-0.5,1.9c0.5,0,0.9-1.8,1.3-1.1c-0.2,1.2,0.4-0.4,0.2,0.9
			c-0.1,0.4-0.2,0.3-0.4,0.4l0.1,0.2c0.3,0.1,0.3,0.1,0.4-0.1c0-0.1,0.1-0.3,0.1-0.6c0-0.5,0-1.1,0.2-1.5c0.3-0.1,0.2,1,0.2,1.5
			c0,0.2,0.2,0.1,0.3-0.2c-0.2,0.7-0.3-0.8-0.2-1.5c0,1.4,0.4,0.1,0.5-0.4c-0.3-1.5-0.3-0.1-0.6-1.7c-0.1,0.4-0.1,1.6-0.3,1.1
			c0.2-0.6,0-0.7,0-0.9c0,0.7-0.2,0.3-0.4,0.5c0-0.6,0.3-1.6,0.1-1.9l-0.2,1.6c-0.1-0.3,0.2-1.2-0.1-0.8c0.2-0.8,0.1-1.3,0.5-1.6
			c-0.1-1.5-0.6,0.7-1,1.2c0.1-0.1,0.1-0.3,0.2-0.4c-0.2,0.4-0.3,0.4-0.4,0.4c-0.1-0.4,0.3-0.7,0.4-1.1l-0.3,0c0-0.1,0-0.1,0-0.1
			c-0.1,0.2-0.2,0.3-0.1-0.1c0.1-0.2,0.2-0.4,0.2-0.6c0.7,0.2,1.5,0.3,2.3,0.3c0.6,0,1.2-0.1,1.8-0.2c0,0.2,0.2,0.4,0.2,0.8
			c0,0,0.5-0.2,0.5-0.2c0.1,0.2,0,0.5,0.1,0.4c0.2,0.4,0.1-0.4,0.1-0.4c0.2,0.4,0.4-0.1,0.7,0.9c0.6,0.6-0.3-1.4,0.2-0.9
			c0.3,0.6-0.2,0.2,0.2,0.9l0.2-0.4c0.1,0.3,0.3,1,0.1,1c0.6,0.2,1.5,1.1,2.3,1.7c0.8,0.6,1.6,0.9,1.9,0.2c0.6,0.6,0.2,0.5,0.4,1
			c0.2-1.4,2.1,0.7,2.8,0.1l-0.4-0.5c2.3,0.8,2.5-1.2,4-1.7l-0.5-0.2c-0.4-0.6-0.2-0.8-0.3-1.2c0.3,0.2,1,1,1.1,0.5
			c-0.2-0.1-0.5-0.1-0.8-0.3c2.1,0.1,3.1-2.3,4.6-3.9c0.3-1.4,0.8-2.6,1.3-4c0.2-0.8,0.5-1.7,0.6-2.6c0.1-0.4,0.1-0.7,0-1
			C122.1,52.8,120.4,52.6,120.8,52.5z M98.4,62.5c0-0.1,0.1-0.2,0.1-0.3c0,0,0,0,0.1,0L98.4,62.5z"/>
		<path id="XMLID_19_" class="st3" d="M83.2,49.2l0.2-0.2c-0.2,0-0.4-0.1-0.6-0.2L83.2,49.2z"/>
		<path id="XMLID_18_" class="st3" d="M87.8,38.6c-0.1-0.1-0.3-0.3-0.5-0.4C87.3,38.5,87.6,38.6,87.8,38.6z"/>
		<path id="XMLID_17_" class="st3" d="M91.1,63.7c0,0-0.1,0-0.2,0C91,63.8,91,63.8,91.1,63.7z"/>
		<path id="XMLID_16_" class="st3" d="M85.1,50.9c0,0-0.1-0.1-0.3-0.1C84.8,50.9,85,50.9,85.1,50.9z"/>
		<path id="XMLID_15_" class="st3" d="M90.7,63.8l-0.1-0.2c0,0-0.1,0.1-0.1,0.1L90.7,63.8z"/>
		<path id="XMLID_14_" class="st3" d="M90.8,65.5c0-0.1-0.1-0.1-0.1-0.2C90.6,65.5,90.7,65.5,90.8,65.5z"/>
		<path id="XMLID_13_" class="st3" d="M87.6,57.8C87.6,57.8,87.6,57.8,87.6,57.8C87.2,57.8,87.4,57.9,87.6,57.8z"/>
		<polygon id="XMLID_12_" class="st3" points="89,64.3 89.1,64.2 88.8,64.3 		"/>
		<path id="XMLID_11_" class="st3" d="M91.3,66.3c0,0-0.1,0-0.2,0.1c0,0,0,0.1,0,0.1C91.2,66.4,91.2,66.3,91.3,66.3z"/>
		<path id="XMLID_10_" class="st3" d="M87.5,60.7c0.3-0.1,0.5-0.2,0.7-0.3C88.1,60.4,88,60.4,87.5,60.7z"/>
	</g>
</g>
</svg>
