<?xml version="1.0" encoding="utf-8"?>
<!-- Generator: Adobe Illustrator 25.2.1, SVG Export Plug-In . SVG Version: 6.00 Build 0)  -->
<svg version="1.1" xmlns="http://www.w3.org/2000/svg" xmlns:xlink="http://www.w3.org/1999/xlink" x="0px" y="0px"
	 viewBox="0 0 954.2 163.4" style="enable-background:new 0 0 954.2 163.4;" xml:space="preserve">
<style type="text/css">
	.st0{fill:#FFFFFF;}
	.st1{fill:#FFFFFF;}
</style>
<g id="o">
	<circle class="st0" cx="937.5" cy="18" r="16.7"/>
</g>
<g id="a_3_">
	<path class="st0" d="M823.3,81.5c0-26.2,16.8-45.7,40.8-45.7c16.8,0,24.8,10,28.2,14.7h1.3V38h16.5v68c0,2.7,1.7,4,4.3,4h4v15
		h-11.8c-7.2,0-12.7-4.5-12.7-12h-1.2c-3,4.2-10.3,14.2-27.7,14.2C840.9,127.2,823.3,108,823.3,81.5z M894.1,81.7
		c0-19.3-12.3-30.5-27.2-30.5c-15.5,0-27,12.7-27,30.5c0,18.3,12,30.3,27.2,30.3C883.6,112,894.1,98.2,894.1,81.7z"/>
</g>
<g id="t">
	<path class="st0" d="M776.9,99.5V52.3h-15.8V38h16.8V13.2h15.5V38h25.7v14.3h-25.7v47c0,7.8,3.2,11.2,10.8,11.2h13.8V125h-14
		C787.8,125,776.9,117.5,776.9,99.5z"/>
</g>
<g id="e">
	<path class="st0" d="M674.2,81.7c0-27.5,19.5-45.8,42.8-45.8c26.5,0,42,18.8,42,44.8v5.2h-67.8c0.2,17,10.5,27,26.7,27
		c10.8,0,21-6,24-16.8l15.5,3.8c-5.3,17.2-20.5,27.3-39.5,27.3C691.4,127.2,674.2,108.3,674.2,81.7z M742.2,73.3
		c-0.8-14.8-12-23-25.2-23c-13.3,0-24.5,9.7-25.7,23H742.2z"/>
</g>
<g id="n">
	<path class="st0" d="M591.7,38h16.5v11.3h1.3c3.7-7.3,12.3-13.5,25-13.5c19.7,0,31.8,14.7,31.8,33.3V125h-16.5V72
		c0-12.3-9-20.7-20-20.7c-12.2,0-21.7,9.5-21.7,22.2V125h-16.5L591.7,38z"/>
</g>
<g id="a_2_">
	<path class="st0" d="M486.2,81.5c0-26.2,16.8-45.7,40.8-45.7c16.8,0,24.8,10,28.2,14.7h1.3V38h16.5v68c0,2.7,1.7,4,4.3,4h4v15
		h-11.8c-7.2,0-12.7-4.5-12.7-12h-1.2c-3,4.2-10.3,14.2-27.7,14.2C503.9,127.2,486.2,108,486.2,81.5z M557.1,81.7
		c0-19.3-12.3-30.5-27.2-30.5c-15.5,0-27,12.7-27,30.5c0,18.3,12,30.3,27.2,30.3C546.6,112,557.1,98.2,557.1,81.7z"/>
</g>
<g id="l_1_">
	<path class="st0" d="M437.1,110.7h17V14.5h-17V0h33.5v110.7h16.8V125h-50.3V110.7z"/>
</g>
<g id="p">
	<path class="st0" d="M344.7,38h16.2v12h1.3c2.8-3.8,10.5-14.2,27.5-14.2c24,0,42,19.2,42,45.5c0,26.5-17,45.8-40.8,45.8
		c-16.8,0-25.2-9.3-28.3-14.7h-1.3v50.8h-16.5L344.7,38z M414.7,81.3c0-18.3-11.8-30.2-27.2-30.2c-16.3,0-26.7,13.8-26.7,30.2
		c0,19.3,12.2,30.5,27,30.5C403.4,111.8,414.7,99.3,414.7,81.3L414.7,81.3z"/>
</g>
<g id="a_1_">
	<path class="st1" d="M239.2,81.5c0-26.2,16.8-45.7,40.8-45.7c16.8,0,24.8,10,28.2,14.7h1.3V38H326v68c0,2.7,1.7,4,4.3,4h4v15h-11.8
		c-7.2,0-12.7-4.5-12.7-12h-1.2c-3,4.2-10.3,14.2-27.7,14.2C256.9,127.2,239.2,108,239.2,81.5z M310,81.7
		c0-19.3-12.3-30.5-27.2-30.5c-15.5,0-27,12.7-27,30.5c0,18.3,12,30.3,27.2,30.3C299.5,112,310,98.2,310,81.7L310,81.7z"/>
</g>
<g id="l">
	<path class="st1" d="M190,110.7h17V14.5h-17V0h33.5v110.7h16.8V125H190V110.7z"/>
</g>
<g id="u">
	<path class="st1" d="M104.7,93.8V38h16.5v53c0,12.3,9,20.5,20,20.5c12.2,0,21.7-9.3,21.7-22V38h16.5v87h-16.5v-11.3h-1.3
		c-3.7,7.3-12.3,13.5-25,13.5C116.8,127.2,104.7,112.5,104.7,93.8z"/>
</g>
<g id="a">
	<path class="st1" d="M0,81.5c0-26.2,16.8-45.7,40.8-45.7c16.8,0,24.8,10,28.2,14.7h1.3V38h16.5v68c0,2.7,1.7,4,4.3,4h4v15H83.3
		c-7.2,0-12.7-4.5-12.7-12h-1.2c-3,4.2-10.3,14.2-27.7,14.2C17.7,127.2,0,108,0,81.5z M70.8,81.7c0-19.3-12.3-30.5-27.2-30.5
		c-15.5,0-27,12.7-27,30.5c0,18.3,12,30.3,27.2,30.3C60.3,112,70.8,98.2,70.8,81.7z"/>
</g>
</svg>
