<?xml version="1.0" encoding="UTF-8"?><svg id="Capa_2" xmlns="http://www.w3.org/2000/svg" viewBox="0 0 564.35 120.17"><defs><style>.cls-1{fill:#e71d73;}.cls-2{fill:#1d1d1b;}</style></defs><g id="Capa_1-2"><g><g><path class="cls-2" d="M89.91,105.59c-.82-1.8,0-2.95,1.64-3.44l2.45-.82c1.47-.49,2.46,.16,3.44,1.47,3.6,6.06,10.81,10.15,19.97,10.15,10.15,0,18.83-6.22,18.83-15.72,0-6.88-4.58-11.79-12.93-14.57l-12.28-3.93c-10.31-3.11-18.66-9.17-18.66-20.79s9-22.76,25.05-22.76c8.84,0,17.68,4.09,22.26,13.1,.82,1.8,0,2.95-1.8,3.44l-2.13,.66c-1.64,.49-2.62-.16-3.44-1.47-3.11-5.4-9.01-8.35-14.74-8.35-11.13,0-17.19,7.7-17.19,15.23,0,8.19,6.71,12.11,13.1,14.08l12.44,3.93c13.42,4.09,18.33,12.28,18.33,21.45,0,14.24-12.6,22.92-27.01,22.92-12.28,0-22.59-5.57-27.34-14.57Z"/><path class="cls-2" d="M158.5,77.6c0-23.08,15.23-42.4,40.93-42.4,16.21,0,28.65,8.02,35.2,21.61v-17.03c0-1.64,.98-2.78,2.62-2.78h2.95c1.8,0,2.78,.98,2.78,2.78V115.58c0,1.64-.98,2.78-2.78,2.78h-2.95c-1.64,0-2.62-.98-2.62-2.78v-17.03c-6.71,14.08-19.48,21.61-34.87,21.61-25.21,0-41.26-18.83-41.26-42.57Zm76.29,0c0-19.64-13.75-34.87-34.54-34.87s-33.4,15.88-33.4,34.87,12.61,35.2,33.56,35.2c19.81,0,34.38-14.41,34.38-35.2Z"/><path class="cls-2" d="M269.01,8.51c0-4.09,2.78-6.88,6.38-6.88s6.55,2.78,6.55,6.88-2.78,7.04-6.55,7.04-6.38-2.78-6.38-7.04Zm2.46,107.07V39.78c0-1.64,.98-2.78,2.62-2.78h2.95c1.8,0,2.78,.98,2.78,2.78V115.58c0,1.64-.98,2.78-2.78,2.78h-2.95c-1.64,0-2.62-.98-2.62-2.78Z"/><path class="cls-2" d="M301.43,77.93c0-23.41,19.15-42.73,42.57-42.73s42.89,19.48,42.89,42.73-19.32,42.24-42.89,42.24-42.57-18.83-42.57-42.24Zm77.11,0c0-19.15-15.55-35.2-34.54-35.2s-34.22,15.88-34.22,35.2,15.55,34.87,34.22,34.87,34.54-15.72,34.54-34.87Z"/><path class="cls-2" d="M438.46,103.46l-22.27-27.18v39.29c0,1.64-.98,2.78-2.78,2.78h-2.79c-1.8,0-2.78-.98-2.78-2.78V2.78c0-1.64,.98-2.78,2.78-2.78h2.79c1.8,0,2.78,.98,2.78,2.78V73.02l34.87-34.54c.82-.98,1.8-1.47,3.27-1.47h4.09c2.29,0,3.11,1.64,1.64,3.27l-35.03,34.71,20.3,24.23c5.07,6.06,11.29,13.42,19.15,13.42,2.13,0,5.73-.82,8.68-2.29,1.15-.66,1.97-.33,2.46,.65l1.47,2.79c.49,1.15,.16,2.45-1.8,3.44-4.09,2.29-8.84,2.95-11.46,2.95-12.6,0-20.3-10.81-25.37-16.7Z"/><path class="cls-2" d="M479.88,77.6c0-23.08,15.23-42.4,40.93-42.4,16.21,0,28.65,8.02,35.2,21.61v-17.03c0-1.64,.98-2.78,2.62-2.78h2.95c1.8,0,2.78,.98,2.78,2.78V115.58c0,1.64-.98,2.78-2.78,2.78h-2.95c-1.64,0-2.62-.98-2.62-2.78v-17.03c-6.71,14.08-19.48,21.61-34.87,21.61-25.21,0-41.26-18.83-41.26-42.57Zm76.29,0c0-19.64-13.75-34.87-34.54-34.87s-33.4,15.88-33.4,34.87,12.6,35.2,33.56,35.2c19.81,0,34.38-14.41,34.38-35.2Z"/></g><path class="cls-1" d="M13.11,120.16c-3.15,0-6.31-.92-8.82-2.78-5.36-3.98-5.75-10.74-.88-15.12l31.83-28.57L3.41,45.13c-4.87-4.37-4.48-11.14,.88-15.12,5.36-3.98,13.65-3.66,18.52,.72l39.86,35.77c4.55,4.08,4.55,10.32,0,14.4L22.81,116.66c-2.59,2.32-6.14,3.5-9.7,3.5Z"/></g></g></svg>