<?xml version="1.0" encoding="UTF-8"?>
<svg id="Capa_2" data-name="Capa 2" xmlns="http://www.w3.org/2000/svg" xmlns:xlink="http://www.w3.org/1999/xlink" viewBox="0 0 1149.06 550">
  <defs>
    <style>
      .cls-1 {
        fill: #b0117d;
      }

      .cls-1, .cls-2, .cls-3, .cls-4, .cls-5, .cls-6, .cls-7 {
        stroke-width: 0px;
      }

      .cls-1, .cls-8, .cls-3, .cls-5, .cls-6, .cls-7 {
        isolation: isolate;
      }

      .cls-1, .cls-3, .cls-5, .cls-6, .cls-7 {
        fill-rule: evenodd;
        mix-blend-mode: color-dodge;
        opacity: .8;
      }

      .cls-2 {
        fill: #f25c6e;
      }

      .cls-3 {
        fill: #e30613;
      }

      .cls-4 {
        fill: none;
      }

      .cls-9 {
        clip-path: url(#clippath-1);
      }

      .cls-5 {
        fill: #009fe3;
      }

      .cls-10 {
        clip-path: url(#clippath);
      }

      .cls-6 {
        fill: #a2c617;
      }

      .cls-7 {
        fill: #fdc300;
      }
    </style>
    <clipPath id="clippath">
      <rect class="cls-4" x="0" width="40.16" height="550"/>
    </clipPath>
    <clipPath id="clippath-1">
      <rect class="cls-4" x="-240.62" y="0" width="330.78" height="554.84"/>
    </clipPath>
  </defs>
  <g id="Capa_1-2" data-name="Capa 1">
    <g>
      <rect class="cls-2" x="299.53" y="-299.53" width="550" height="1149.06" transform="translate(299.53 849.53) rotate(-90)"/>
      <g class="cls-10">
        <g class="cls-8">
          <g id="Capa_2-2" data-name="Capa 2">
            <g id="Capa_1-2" data-name="Capa 1-2">
              <g class="cls-9">
                <g>
                  <path class="cls-1" d="M-1472.93,121.09C-964.14,687.81-183.96,956.01,588.71,709.32c-8.3-26.04-79.83-274.31-361.73-240.25-466.24,70.35-897.2-79.82-1252.69-359.57-38.31-30.14-100.87-59.08-171.88-60.29-38.34-.63-97.14,15.09-97.14,15.09l-178.2,56.79h0Z"/>
                  <path class="cls-3" d="M-633.03-578.48C-507.48-97.69-123.41,292.09,420.3,381.73c3.29-17.56,39.41-182.71-141.12-247.75C-23.87,34.47-235.39-181.98-360.18-450.73c-13.43-28.93-41.86-64.51-84.23-86.53-22.86-11.92-63.26-20.48-63.26-20.48l-125.36-20.73h0Z"/>
                  <path class="cls-7" d="M509.47,455.35C-59.1,628.93-694.23,438.94-1137.87-55.29c15.66-14.33,159.49-154.12,342.54-12.09C-497.82,177.11-150.28,300.84,202.93,259.09c38.05-4.5,92.55,2.03,142.38,31.13,26.88,15.7,61.79,51.24,61.79,51.24l102.36,113.89h0Z"/>
                  <path class="cls-6" d="M869.18,284.85C327.86-193.15-397.54-317.07-1017.88-17.45c11.88,23.34,118.71,246.72,355.21,189.2C-274.02,63.67,129.16,110.4,486.23,336.78c38.46,24.39,97.62,45.43,158.99,39.99,33.11-2.93,80.9-22.9,80.9-22.9l143.06-69.02h0Z"/>
                  <path class="cls-5" d="M-1191.53,111.02c-76.29-13.49-127.73-83.99-114.51-158.72,13.22-74.74,86.29-125.96,162.58-112.47,0,0,980.67,172.74,1428.81,252.01,67.61,11.96,132.92,48.49,177.5,117.85,43.03,67,47.15,123.2,33.57,199.97-2.03,0-1687.95-298.64-1687.95-298.64h0Z"/>
                </g>
              </g>
            </g>
          </g>
        </g>
      </g>
    </g>
  </g>
</svg>