<?xml version="1.0" encoding="UTF-8"?>
<svg id="Capa_2" data-name="Capa 2" xmlns="http://www.w3.org/2000/svg" xmlns:xlink="http://www.w3.org/1999/xlink" viewBox="0 0 1149.06 550">
  <defs>
    <style>
      .cls-1 {
        fill: #b0117d;
      }

      .cls-1, .cls-2, .cls-3, .cls-4, .cls-5, .cls-6 {
        isolation: isolate;
      }

      .cls-1, .cls-3, .cls-7, .cls-4, .cls-5, .cls-6 {
        stroke-width: 0px;
      }

      .cls-1, .cls-3, .cls-4, .cls-5, .cls-6 {
        fill-rule: evenodd;
        mix-blend-mode: color-dodge;
        opacity: .8;
      }

      .cls-3 {
        fill: #e30613;
      }

      .cls-7 {
        fill: none;
      }

      .cls-8 {
        clip-path: url(#clippath-1);
      }

      .cls-4 {
        fill: #009fe3;
      }

      .cls-9 {
        clip-path: url(#clippath);
      }

      .cls-5 {
        fill: #a2c617;
      }

      .cls-6 {
        fill: #fdc300;
      }
    </style>
    <clipPath id="clippath">
      <rect class="cls-7" x="299.53" y="-299.53" width="550" height="1149.06" transform="translate(299.53 849.53) rotate(-90)"/>
    </clipPath>
    <clipPath id="clippath-1">
      <rect class="cls-7" x="-98.47" y="-92.45" width="1265.88" height="754.67"/>
    </clipPath>
  </defs>
  <g id="Capa_1-2" data-name="Capa 1">
    <g class="cls-9">
      <g class="cls-2">
        <g id="Capa_2-2" data-name="Capa 2">
          <g id="Capa_1-2" data-name="Capa 1-2">
            <g class="cls-8">
              <g>
                <path class="cls-1" d="M891.14-2903.99C-401.85-1743.18-1013.76,36.83-450.92,1799.7c59.41-18.94,625.85-182.13,548.14-825.3C-63.28-89.34,279.32-1072.58,917.59-1883.64c68.76-87.41,134.8-230.13,137.56-392.15,1.43-87.48-34.44-221.64-34.44-221.64l-129.57-406.56h0Z"/>
                <path class="cls-3" d="M2487.22-987.73C1390.28-701.3,501,174.97,296.47,1415.46c40.05,7.51,416.87,89.9,565.25-321.97C1088.76,402.07,1582.59-80.5,2195.76-365.21c66-30.65,147.19-95.49,197.43-192.17,27.2-52.16,46.73-144.34,46.73-144.34l47.3-286.01h0Z"/>
                <path class="cls-6" d="M128.51,1618.9C-267.52,321.69,165.96-1127.38,1293.55-2139.55c32.7,35.72,351.63,363.89,27.57,781.51C763.34-679.26,481.03,113.68,576.28,919.54c10.27,86.8-4.64,211.16-71.02,324.85-35.81,61.33-116.9,140.98-116.9,140.98l-259.85,233.54h0Z"/>
                <path class="cls-5" d="M517.51,2439.59C1608.1,1204.56,1890.82-450.46,1207.23-1865.78c-53.25,27.11-562.9,270.83-431.67,810.42,246.59,886.72,139.96,1806.59-376.53,2621.25-55.66,87.75-103.65,222.72-91.23,362.73,6.69,75.55,52.25,184.57,52.25,184.57l157.46,326.4h0Z"/>
                <path class="cls-4" d="M914.13-2261.97c30.79-174.05,191.62-291.42,362.13-261.26,170.52,30.16,287.39,196.87,256.61,370.93,0,0-394.12,2237.43-574.96,3259.87-27.28,154.25-110.64,303.27-268.88,404.98-152.86,98.18-281.1,107.57-456.24,76.59,0-4.63,681.35-3851.1,681.35-3851.1h0Z"/>
              </g>
            </g>
          </g>
        </g>
      </g>
    </g>
  </g>
</svg>